<svg width="112" height="112" viewBox="0 0 112 112" fill="none" xmlns="http://www.w3.org/2000/svg">
<circle cx="56" cy="56.0001" r="56" fill="#445072"/>
<path d="M90.6196 43.6445V80.1174C90.7068 82.6259 88.7465 84.7315 86.2381 84.8236H31.4679C28.9595 84.7315 26.9992 82.6259 27.0863 80.1174V43.6445C26.9992 41.136 28.9595 39.0305 31.4679 38.9384H51.1851L90.6196 43.6445Z" fill="#69738E"/>
<path d="M85.9136 43.6445V80.1174C86.0007 82.6259 84.0404 84.7315 81.532 84.8236H26.7619C24.2536 84.7315 22.2932 82.6259 22.3802 80.1174V43.6445C22.2931 41.136 24.2534 39.0305 26.7618 38.9384H46.4792L85.9136 43.6445Z" fill="#F5F6F8"/>
<path d="M87.0903 43.6445V80.1174C87.16 82.6453 85.1685 84.7514 82.6408 84.8236H30.3595C27.8318 84.7514 25.8405 82.6451 25.91 80.1174V43.6445C25.8403 41.1167 27.8318 39.0105 30.3595 38.9384H47.045L87.0903 43.6445Z" fill="#F5F6F8"/>
<path d="M90.6197 38.2323V49.0214C90.4893 58.8678 85.8274 68.1046 77.9837 74.0582L71.0067 79.5761C70.0869 80.2936 68.797 80.2936 67.877 79.5761L67.6536 79.3996L60.9002 74.0582C53.0565 68.1047 48.3946 58.868 48.2642 49.0214V38.2323C48.2705 37.4452 48.728 36.7314 49.4407 36.397L67.5477 27.6082C68.7447 27.0318 70.139 27.0318 71.3361 27.6082L87.0782 35.244L89.4431 36.397C90.1558 36.7314 90.6134 37.4452 90.6197 38.2323Z" fill="#69738E"/>
<path d="M87.0901 35.4323V46.9389C87.0452 57.2744 82.4168 67.0571 74.454 73.6465L67.6536 79.3998L60.9002 74.0583C53.0565 68.1048 48.3946 58.8681 48.2642 49.0215V38.2324C48.2705 37.4453 48.728 36.7315 49.4407 36.3972L67.5477 27.6084C68.7447 27.0319 70.139 27.0319 71.3361 27.6084L87.0782 35.2441C87.088 35.3063 87.092 35.3693 87.0901 35.4323Z" fill="#F5F6F8"/>
<path d="M69.4419 60.1163C75.29 60.1163 80.0308 55.3966 80.0308 49.5745C80.0308 43.7524 75.29 39.0326 69.4419 39.0326C63.5938 39.0326 58.853 43.7524 58.853 49.5745C58.853 55.3966 63.5938 60.1163 69.4419 60.1163Z" fill="#DADCE3"/>
<path d="M45.1908 64.0427L41.1041 62.0283C40.5784 61.7717 40.2443 61.2387 40.2426 60.6537V59.0728C40.3797 58.9162 40.5088 58.7525 40.6293 58.5826C41.1797 57.8116 41.6082 56.9605 41.8996 56.0591C42.4347 55.9015 42.804 55.4127 42.8095 54.8549V53.1677C42.8076 52.8091 42.6518 52.4685 42.3817 52.2326V49.7934C42.3817 49.7934 42.8895 45.9974 37.6756 45.9974C32.4611 45.9974 32.9694 49.7934 32.9694 49.7934V52.2326C32.6993 52.4685 32.5436 52.8091 32.5416 53.1677V54.8549C32.5441 55.2867 32.7673 55.6872 33.1332 55.9165C33.4185 57.0667 33.9462 58.1428 34.6808 59.0726V60.6142C34.6791 61.1793 34.367 61.6977 33.8683 61.9635L30.0516 64.0159C28.9538 64.6008 28.2666 65.7419 28.2632 66.9856V68.3519H47.0878V67.0684C47.0837 65.7809 46.348 64.6074 45.1908 64.0427Z" fill="#A2A8B9"/>
<path d="M23.5567 43.6445V58.9397V80.1175H21.2036V58.9397V43.6445H23.5567Z" fill="#445072"/>
<path d="M22.3801 49.5273C23.0291 49.5253 23.5548 48.9998 23.5566 48.3508V43.6447H21.2036V48.3508C21.2055 48.9998 21.7311 49.5253 22.3801 49.5273Z" fill="#293044"/>
<path d="M21.2036 80.1175H23.5567V57.763C23.5567 57.1132 23.0299 56.5865 22.3802 56.5865C21.7306 56.5865 21.2036 57.1134 21.2036 57.763V80.1175Z" fill="#293044"/>
<path d="M23.5571 53.0569C23.5526 52.7454 23.4307 52.4472 23.2159 52.2215L23.0395 52.0802C22.9739 52.0355 22.9026 51.9998 22.8275 51.9739C22.7607 51.9401 22.6892 51.9164 22.6154 51.9038C22.5378 51.8906 22.4592 51.8827 22.3805 51.8802C22.069 51.8845 21.7707 52.0064 21.5451 52.2215C21.1009 52.6899 21.1009 53.4239 21.5451 53.8921C21.6575 53.9984 21.7891 54.0823 21.9329 54.1392C22.0745 54.1996 22.2266 54.2316 22.3805 54.2334C22.6919 54.2287 22.9902 54.1068 23.2159 53.8921C23.4305 53.6666 23.5523 53.3683 23.5571 53.0569Z" fill="#293044"/>
<path d="M69.4422 81.2894C68.6102 81.2923 67.8017 81.0141 67.1476 80.5001L60.1706 74.9758C52.0443 68.7992 47.2179 59.2223 47.0879 49.0161V38.2307C47.088 36.9919 47.802 35.864 48.9216 35.3342L67.0346 26.5491C68.5565 25.8173 70.3286 25.8173 71.8505 26.5491L89.9627 35.334C91.0823 35.8642 91.7962 36.9919 91.7965 38.2306V49.0159C91.666 59.2229 86.839 68.8002 78.712 74.9769L71.7366 80.4999C71.0825 81.0141 70.274 81.2922 69.4422 81.2894ZM69.4422 28.3508C68.9643 28.3499 68.4925 28.4575 68.0623 28.6655L49.9488 37.4506C49.6434 37.5912 49.446 37.8945 49.441 38.2307V49.0161C49.5737 58.5019 54.0699 67.3974 61.6293 73.1295L68.6082 78.6549C69.0989 79.0364 69.7858 79.0364 70.2765 78.6549L77.253 73.1306C84.8136 67.3989 89.3108 58.5028 89.4436 49.0161V38.2307C89.4389 37.8945 89.2413 37.5909 88.9358 37.4506L70.8226 28.6655C70.392 28.458 69.9202 28.3503 69.4422 28.3508Z" fill="#293044"/>
<path d="M69.4423 61.2928C62.9766 61.2669 57.7537 56.0089 57.771 49.5432C57.7884 43.0775 63.0393 37.8475 69.505 37.8561C75.9707 37.8648 81.2076 43.1086 81.2078 49.5743C81.1875 56.0563 75.9241 61.2986 69.4423 61.2928ZM69.4423 40.2092C64.276 40.2351 60.1067 44.4395 60.1239 49.6058C60.1411 54.772 64.3386 58.9484 69.5049 58.9398C74.6711 58.9313 78.8545 54.7408 78.8545 49.5746C78.8355 44.3917 74.625 40.2023 69.4423 40.2092Z" fill="#293044"/>
<path d="M67.5171 54.1266C67.205 54.127 66.9056 54.0029 66.6853 53.7819L64.7596 51.8563C64.3002 51.3969 64.3002 50.652 64.7596 50.1926C65.219 49.7332 65.9639 49.7332 66.4233 50.1926L67.5171 51.2863L72.4612 46.3424C72.9213 45.8868 73.6629 45.8888 74.1207 46.3465C74.5784 46.8043 74.5804 47.5459 74.125 48.006L68.3491 53.7819C68.1286 54.0029 67.8293 54.127 67.5171 54.1266Z" fill="#293044"/>
<path d="M22.3802 44.8212C22.0682 44.8214 21.7689 44.6974 21.5482 44.4767C21.3276 44.2561 21.2036 43.9568 21.2036 43.6446C21.2075 40.3972 23.839 37.7657 27.0864 37.7618H48.2642C48.914 37.7618 49.4407 38.2887 49.4407 38.9383C49.4407 39.588 48.9138 40.1148 48.2642 40.1148H27.0864C25.1379 40.1169 23.5588 41.696 23.5567 43.6445C23.5569 43.9565 23.4329 44.2558 23.2122 44.4765C22.9917 44.6974 22.6924 44.8212 22.3802 44.8212Z" fill="#293044"/>
<path d="M85.9135 86.0002H27.0864C23.839 85.9964 21.2075 83.3649 21.2036 80.1175C21.2036 79.4676 21.7304 78.941 22.3801 78.941C23.0298 78.941 23.5566 79.4678 23.5566 80.1175C23.5587 82.0659 25.1378 83.645 27.0862 83.6471H85.9135C87.8619 83.645 89.441 82.0659 89.4431 80.1175V43.6445C89.4431 42.9947 89.9699 42.468 90.6196 42.468C91.2694 42.468 91.7961 42.9948 91.7961 43.6445V80.1175C91.7924 83.3649 89.1609 85.9964 85.9135 86.0002Z" fill="#293044"/>
<path d="M47.0877 74.2347H28.5295C27.8797 74.2347 27.353 73.708 27.353 73.0582C27.353 72.4084 27.8799 71.8817 28.5295 71.8817H47.0877C47.7375 71.8817 48.2642 72.4085 48.2642 73.0582C48.2642 73.7079 47.7375 74.2347 47.0877 74.2347Z" fill="#293044"/>
<path d="M37.6754 78.941H28.5295C27.8797 78.941 27.353 78.4143 27.353 77.7645C27.353 77.1147 27.8799 76.588 28.5295 76.588H37.6753C38.3251 76.588 38.8518 77.1147 38.8518 77.7645C38.8518 78.4143 38.3251 78.941 37.6754 78.941Z" fill="#293044"/>
<path d="M47.0877 69.5286H28.2631C27.951 69.5288 27.6517 69.4048 27.431 69.1841C27.2104 68.9635 27.0864 68.6641 27.0864 68.352V66.9859C27.089 65.3087 28.0143 63.769 29.4942 62.9795L33.311 60.9275C33.4279 60.8667 33.5019 60.7467 33.504 60.6149V59.4695C32.8763 58.5923 32.3988 57.617 32.0908 56.5833C31.6263 56.1283 31.3644 55.5055 31.3646 54.8553V53.1687C31.3656 52.68 31.5147 52.2032 31.7926 51.8013V49.8549C31.6989 48.6677 32.0815 47.492 32.856 46.5873C34.1247 45.3188 35.8873 44.6729 37.6753 44.8212C39.4629 44.673 41.2251 45.3184 42.4941 46.586C43.2688 47.4911 43.6516 48.6671 43.5581 49.8548V51.8012C43.8359 52.2031 43.9851 52.6799 43.9861 53.1685V54.8552C43.9872 55.6908 43.5563 56.4678 42.8469 56.9095C42.5306 57.7472 42.1067 58.5402 41.5854 59.2683C41.5284 59.3476 41.473 59.4223 41.4188 59.4923V60.654C41.4214 60.7902 41.5006 60.9133 41.6233 60.9722L45.7107 62.9863L45.7113 62.9875C47.2745 63.7458 48.2663 65.3313 48.2643 67.0686V68.352C48.2645 68.664 48.1405 68.9633 47.9198 69.1841C47.6992 69.4048 47.3999 69.5286 47.0877 69.5286ZM29.4396 67.1755H45.9112V67.0686C45.9098 66.2283 45.428 65.4628 44.6709 65.0981L40.584 63.084C39.6534 62.6325 39.0635 61.6882 39.0655 60.654V59.0731C39.0655 58.7841 39.1718 58.5052 39.3643 58.2895C39.4746 58.1634 39.5781 58.0314 39.6745 57.8942C40.1542 57.2219 40.5273 56.4799 40.781 55.694C40.9002 55.3297 41.1894 55.0464 41.556 54.9346L41.6329 53.1685C41.371 52.9265 41.2168 52.5897 41.2049 52.2333V49.794C41.2049 49.7417 41.2084 49.6895 41.2153 49.6378C41.2493 49.0838 41.0667 48.5382 40.7057 48.1165C39.8666 47.4017 38.7717 47.0613 37.6753 47.1743C36.5697 47.0573 35.4653 47.4057 34.6272 48.136C34.2786 48.556 34.1027 49.0929 34.1353 49.6378C34.1422 49.6896 34.1457 49.7417 34.1457 49.794V52.2333C34.1457 52.5692 34.002 52.889 33.7509 53.1123L33.7176 54.8553C33.9935 55.045 34.1924 55.327 34.2789 55.6504C34.5235 56.6191 34.9665 57.5265 35.5802 58.3149C35.7579 58.5278 35.8558 58.7959 35.857 59.0732V60.6151C35.8555 61.6126 35.3059 62.5285 34.4265 62.9992L30.6085 65.0525C29.8921 65.4322 29.4427 66.1753 29.4394 66.9862V67.1755H29.4396Z" fill="#293044"/>
</svg>
