<svg width="601" height="492" viewBox="0 0 601 492" fill="none" xmlns="http://www.w3.org/2000/svg">
<path d="M0 385.5C0 366.998 14.9985 352 33.5 352H601V419H33.5C14.9985 419 0 404.002 0 385.5Z" fill="#4A61C0"/>
<path d="M601 100C384.504 100 209 275.504 209 492L601 492L601 100Z" fill="#B7C0E6"/>
<rect x="52.4893" y="41.821" width="468.119" height="329.258" rx="15.4985" fill="#293044" stroke="#293044" stroke-width="1.00292"/>
<rect x="43.6685" y="33" width="469.127" height="330.258" rx="16" fill="white"/>
<mask id="mask0_615_42726" style="mask-type:alpha" maskUnits="userSpaceOnUse" x="44" y="33" width="470" height="331">
<rect x="44" y="33" width="469.127" height="330.258" rx="16" fill="white"/>
</mask>
<g mask="url(#mask0_615_42726)">
<g opacity="0.5">
<path d="M295.15 380.001C366.986 380.001 425.22 321.798 425.22 250C425.22 178.203 366.986 119.999 295.15 119.999C223.315 119.999 165.081 178.203 165.081 250C165.081 321.798 223.315 380.001 295.15 380.001Z" stroke="#E4E7F6" stroke-miterlimit="10"/>
<path d="M295.15 457.994C410.082 457.994 503.254 364.871 503.254 249.999C503.254 135.127 410.082 42.0051 295.15 42.0051C180.218 42.0051 87.0469 135.127 87.0469 249.999C87.0469 364.871 180.218 457.994 295.15 457.994Z" stroke="#E4E7F6" stroke-miterlimit="10"/>
<path d="M295.15 536C453.186 536 581.3 407.953 581.3 250C581.3 92.0466 453.186 -36 295.15 -36C137.114 -36 9 92.0466 9 250C9 407.953 137.114 536 295.15 536Z" stroke="#E4E7F6" stroke-miterlimit="10"/>
</g>
</g>
<rect x="44.1699" y="33.5015" width="468.124" height="329.255" rx="15.4985" stroke="#445072" stroke-width="1.00292"/>
<path d="M467.088 58.3503C467.859 58.3503 467.859 57.0623 467.088 57.0623C466.187 57.0623 466.187 58.3503 467.088 58.3503Z" fill="#3A3144"/>
<path d="M133.498 161.009L123.592 186.255C122.305 189.604 126.036 192.567 128.995 190.506L166.818 163.585" fill="#E4E7F6"/>
<path d="M234.745 174.405H171.578C133.497 174.405 102.75 143.62 102.75 105.493C102.75 67.4948 133.497 36.5811 171.578 36.5811H234.745C272.697 36.5811 303.573 67.366 303.573 105.493C303.573 143.62 272.697 174.405 234.745 174.405Z" fill="#E4E7F6"/>
<path d="M234.745 174.405H171.578C133.497 174.405 102.75 143.62 102.75 105.493C102.75 67.4948 133.497 36.5811 171.578 36.5811H234.745C272.697 36.5811 303.573 67.366 303.573 105.493C303.573 143.62 272.697 174.405 234.745 174.405Z" fill="#E4E7F6"/>
<path d="M238.863 109.357C237.319 109.743 236.033 110.645 234.875 111.675C233.974 112.448 233.074 113.35 232.173 114.38C230.372 116.57 228.957 118.889 227.928 121.465C227.413 122.753 227.027 124.17 226.641 125.587C226.512 126.102 226.512 126.488 226.77 127.003C227.027 127.39 227.413 127.776 227.799 127.776C228.7 128.034 229.729 127.519 229.986 126.488C230.243 124.943 230.758 123.526 231.273 122.109C231.273 122.238 231.144 122.366 231.144 122.495C231.916 120.563 232.945 118.76 234.232 117.214C234.103 117.343 234.103 117.472 233.974 117.601C235.132 116.184 236.419 114.767 237.834 113.607C237.705 113.736 237.576 113.736 237.448 113.865C237.962 113.479 238.606 113.092 239.249 112.835C239.12 112.835 238.992 112.963 238.863 112.963C239.12 112.835 239.378 112.706 239.635 112.706C240.535 112.448 241.179 111.418 240.921 110.516C240.793 109.614 239.892 109.099 238.863 109.357Z" fill="#FA9E98"/>
<path d="M231.658 115.539L232.173 131.64C232.173 131.64 251.47 129.708 247.74 119.146C245.167 111.16 231.658 115.539 231.658 115.539Z" fill="#FA9E98"/>
<path d="M246.968 109.743C246.84 110.001 246.711 110.129 246.582 110.387L246.454 110.516C246.325 110.645 246.454 110.645 246.454 110.516C246.454 110.645 246.196 110.773 246.196 110.902C245.81 111.289 245.553 111.675 245.167 111.933C245.038 112.061 244.91 112.061 244.91 112.19L244.781 112.319C244.781 112.319 244.653 112.448 244.781 112.319C244.91 112.19 244.781 112.319 244.653 112.319L244.524 112.448C244.395 112.577 244.267 112.577 244.138 112.705C243.752 112.963 243.237 113.221 242.851 113.478C240.922 114.638 238.863 115.41 236.934 116.441C235.776 117.085 234.618 117.858 233.589 118.759C233.074 119.275 233.074 120.176 233.589 120.692C234.103 121.207 234.875 121.207 235.518 120.692C235.647 120.563 235.776 120.563 235.904 120.434L236.033 120.305C236.162 120.176 235.776 120.434 236.033 120.305C236.29 120.176 236.548 119.919 236.676 119.79C237.191 119.532 237.577 119.146 238.091 118.888C239.121 118.373 240.15 117.858 241.179 117.343C243.237 116.441 245.167 115.41 246.968 113.865C247.869 113.092 248.769 112.061 249.413 111.031C249.799 110.387 249.541 109.485 248.898 109.228C248.126 108.97 247.354 109.099 246.968 109.743Z" fill="#FA9E98"/>
<path d="M250.184 112.834C249.927 113.092 249.541 113.478 249.155 113.736C249.026 113.865 248.769 113.993 248.64 114.122C248.64 114.122 248.769 114.122 248.769 113.993L248.64 114.122C248.512 114.251 248.383 114.251 248.383 114.38C247.74 114.895 246.968 115.282 246.196 115.668C245.81 115.926 245.424 116.054 245.038 116.183C244.781 116.312 244.652 116.312 244.395 116.441C244.395 116.441 244.266 116.441 244.266 116.57C244.395 116.441 244.524 116.441 244.266 116.57C244.138 116.57 244.138 116.698 244.009 116.698C243.237 117.085 242.337 117.342 241.436 117.6C240.793 117.858 240.278 118.502 240.535 119.275C240.793 119.919 241.436 120.434 242.208 120.176C245.81 119.017 249.412 117.342 252.114 114.638C252.629 114.122 252.629 113.221 252.114 112.705C251.471 112.448 250.699 112.319 250.184 112.834Z" fill="#FA9E98"/>
<path d="M250.956 117.343C249.798 118.115 248.64 118.888 247.354 119.532C247.096 119.661 246.71 119.79 246.324 119.919C246.067 120.047 246.453 119.919 246.324 119.919C246.196 119.919 246.196 119.919 246.067 120.047C245.938 120.176 245.681 120.176 245.553 120.305C244.909 120.563 244.266 120.82 243.494 120.949C242.851 121.078 242.336 121.851 242.594 122.624C242.851 123.268 243.494 123.783 244.266 123.525C247.096 122.752 249.927 121.464 252.371 119.661C252.628 119.403 252.886 119.275 253.014 118.888C253.143 118.631 253.014 118.115 252.886 117.858C252.371 117.214 251.47 116.827 250.956 117.343Z" fill="#FA9E98"/>
<path d="M250.055 122.495C249.927 122.495 249.927 122.495 250.055 122.495C250.055 122.495 249.927 122.495 249.798 122.624C249.67 122.624 249.541 122.753 249.412 122.753C249.155 122.881 248.898 123.01 248.64 123.01C248.126 123.268 247.482 123.397 246.968 123.525C245.81 123.912 244.523 124.041 243.494 124.556C242.851 124.813 242.594 125.844 242.98 126.359C243.366 127.003 244.138 127.132 244.781 126.874C244.781 126.874 244.909 126.874 244.909 126.746C245.167 126.617 244.781 126.746 244.909 126.746C245.038 126.746 245.167 126.617 245.295 126.617C245.553 126.488 245.81 126.488 246.067 126.359C246.582 126.23 247.225 126.102 247.74 125.973C249.026 125.586 250.184 125.2 251.342 124.685C251.599 124.556 251.857 124.169 251.985 123.912C252.114 123.654 251.985 123.139 251.857 122.881C251.728 122.624 251.342 122.366 251.085 122.237C250.699 122.237 250.441 122.237 250.055 122.495Z" fill="#FA9E98"/>
<path d="M211.074 152.121C206.185 152.121 201.297 150.06 197.952 145.939L173.637 115.926L190.747 101.886L211.846 127.777L229.342 113.737L243.237 130.997L221.752 148.257C218.536 150.833 214.805 152.121 211.074 152.121Z" fill="#3A3144"/>
<path d="M201.039 141.172L206.571 174.404H151.894C151.894 174.404 148.807 144.65 156.912 132.671" fill="#445072"/>
<path d="M213.647 72.7764C213.647 72.7764 218.793 76.383 216.092 79.2167C213.904 81.5353 207.858 78.3151 207.858 78.3151L209.659 73.4204" fill="#3A3144"/>
<path d="M262.534 136.407C261.119 136.922 259.833 137.824 258.803 138.983C257.774 140.013 257.002 141.044 256.102 142.203C254.558 144.393 253.4 146.84 252.628 149.416C252.242 150.962 251.856 152.508 251.728 154.053C251.728 154.44 251.985 155.084 252.242 155.342C252.499 155.599 253.014 155.857 253.529 155.857C254.043 155.857 254.429 155.728 254.815 155.342C255.201 154.955 255.33 154.569 255.33 154.053C255.33 153.925 255.33 153.667 255.458 153.538C255.458 153.667 255.458 153.796 255.458 154.053C255.716 151.993 256.23 149.932 257.131 148.128C257.131 148.257 257.002 148.386 257.002 148.515C257.774 146.583 258.803 144.908 260.09 143.234C259.961 143.362 259.961 143.491 259.833 143.62C260.733 142.461 261.634 141.43 262.791 140.529C262.663 140.657 262.534 140.658 262.406 140.786C262.791 140.4 263.306 140.142 263.821 139.885C263.692 139.885 263.563 140.013 263.435 140.013C263.563 140.013 263.692 139.885 263.821 139.885C264.207 139.756 264.593 139.498 264.85 139.112C265.107 138.725 265.107 138.21 264.979 137.695C264.464 136.793 263.563 136.149 262.534 136.407Z" fill="#FA9E98"/>
<path d="M255.844 143.362L257.902 159.334C257.902 159.334 276.942 155.728 272.311 145.423C268.837 137.695 255.844 143.362 255.844 143.362Z" fill="#FA9E98"/>
<path d="M270.639 136.149C270.382 136.664 270.125 137.051 269.867 137.566C269.739 137.695 269.739 137.695 269.61 137.824C269.739 137.566 269.61 137.824 269.61 137.952C269.481 138.21 269.224 138.339 269.095 138.596C268.709 138.983 268.324 139.369 267.938 139.627C267.809 139.756 267.809 139.756 267.68 139.884L267.552 140.013C267.423 140.142 267.809 139.884 267.552 140.013C267.294 140.142 267.166 140.4 266.908 140.528C265.107 141.817 263.178 142.847 261.376 144.006C260.219 144.779 259.189 145.552 258.289 146.582C257.774 147.098 257.774 147.999 258.289 148.515C258.803 149.03 259.704 149.03 260.219 148.515C260.604 148.128 260.99 147.742 261.505 147.355C261.634 147.226 261.634 147.226 261.762 147.098C261.505 147.355 261.891 147.098 261.891 146.969C262.148 146.84 262.406 146.582 262.663 146.454C263.563 145.81 264.593 145.294 265.493 144.65C267.423 143.491 269.353 142.332 270.897 140.786C271.797 139.884 272.569 138.854 273.084 137.695C273.341 137.051 273.341 136.278 272.569 135.891C271.797 135.376 270.897 135.505 270.639 136.149Z" fill="#FA9E98"/>
<path d="M273.984 138.854C273.469 139.498 272.826 140.142 272.183 140.786C272.054 140.915 271.797 141.044 271.668 141.173C271.668 141.173 271.282 141.43 271.539 141.301C271.411 141.43 271.282 141.43 271.282 141.559C270.896 141.817 270.639 142.074 270.253 142.332C268.709 143.362 267.165 144.135 265.493 144.779C264.85 145.037 264.721 146.067 264.978 146.583C265.364 147.227 266.136 147.355 266.779 147.098C270.124 145.552 273.469 143.749 275.785 140.786C276.042 140.529 276.171 140.271 276.171 139.885C276.171 139.498 276.042 139.112 275.785 138.983C275.399 138.468 274.498 138.339 273.984 138.854Z" fill="#FA9E98"/>
<path d="M275.013 143.491C274.756 143.748 274.499 144.006 274.241 144.135C274.113 144.135 274.113 144.264 273.984 144.264C273.727 144.392 274.113 144.135 273.984 144.264C273.855 144.392 273.727 144.521 273.598 144.521C273.084 144.908 272.44 145.294 271.797 145.68C271.154 146.067 270.639 146.324 269.996 146.711C269.739 146.84 269.353 146.968 269.095 147.097C268.967 147.097 268.967 147.226 268.838 147.226C269.095 147.097 268.838 147.226 268.838 147.226C268.709 147.355 268.452 147.355 268.323 147.484C267.938 147.613 267.68 147.741 267.552 148.128C267.423 148.385 267.294 148.772 267.423 149.158C267.68 149.802 268.323 150.317 269.095 150.06C272.054 148.901 274.627 147.355 277.072 145.294C277.586 144.779 277.586 143.877 277.072 143.362C276.3 142.975 275.528 142.975 275.013 143.491Z" fill="#FA9E98"/>
<path d="M274.884 148.515C274.369 148.772 273.855 149.03 273.34 149.288C273.212 149.416 273.083 149.416 272.954 149.416C272.954 149.416 272.826 149.416 272.826 149.545C272.697 149.674 273.083 149.416 272.826 149.545C272.568 149.674 272.311 149.803 271.925 149.932C270.767 150.318 269.609 150.576 268.58 151.349C267.937 151.735 267.68 152.508 268.066 153.152C268.452 153.796 269.223 154.054 269.867 153.667C270.124 153.538 270.381 153.41 270.639 153.281C270.767 153.152 270.381 153.41 270.639 153.281C270.639 153.281 270.767 153.281 270.767 153.152C270.896 153.152 271.025 153.023 271.153 153.023C271.668 152.894 272.311 152.637 272.826 152.379C273.984 151.864 275.141 151.349 276.299 150.833C276.942 150.447 277.2 149.545 276.814 149.03C276.299 148.386 275.527 148.128 274.884 148.515Z" fill="#FA9E98"/>
<path d="M177.882 164.358C190.671 164.358 201.039 153.978 201.039 141.173C201.039 128.368 190.671 117.987 177.882 117.987C165.093 117.987 154.725 128.368 154.725 141.173C154.725 153.978 165.093 164.358 177.882 164.358Z" fill="#445072"/>
<path d="M197.822 100.341L186.115 92.3548C188.688 88.6194 190.232 85.5281 192.033 82.1791C192.676 81.0198 193.191 79.9893 193.834 78.8301L206.313 85.6569C205.799 86.6873 205.155 87.7178 204.641 88.877C202.711 92.226 200.781 96.0903 197.822 100.341Z" fill="#FA9E98"/>
<path d="M196.279 87.8464C196.279 87.8464 197.308 92.8699 201.039 95.3173L204.641 89.0057" fill="#3A3144"/>
<path d="M201.167 91.8393L201.682 91.9681C205.541 93.2562 209.658 91.0665 210.944 87.2022L213.517 79.2162C215.19 74.0639 212.36 68.5252 207.214 66.8507C202.068 65.1762 196.536 68.0099 194.863 73.1622L193.705 76.8977C191.518 83.0804 194.992 89.7784 201.167 91.8393Z" fill="#FA9E98"/>
<path d="M207.987 85.6567C207.858 85.5279 207.858 85.5279 207.729 85.3991L207.601 85.2702C207.601 85.2702 207.601 85.1414 207.601 85.2702C207.472 85.1414 207.343 84.8838 207.215 84.755C207.215 84.755 207.215 84.6262 207.086 84.6262V84.4974C207.086 84.3686 206.957 84.2398 206.957 84.2398C206.829 83.9822 206.829 83.8534 206.829 83.5957C206.829 83.3381 206.443 83.2093 206.314 83.3381C206.057 83.4669 205.928 83.5957 206.057 83.8534C206.185 84.755 206.7 85.6567 207.343 86.3007C207.472 86.4295 207.858 86.4295 207.987 86.3007C208.244 86.1719 208.244 85.9143 207.987 85.6567Z" fill="#3A3144"/>
<path d="M209.53 82.1788C209.956 82.1788 210.302 81.8327 210.302 81.4059C210.302 80.9791 209.956 80.6331 209.53 80.6331C209.103 80.6331 208.758 80.9791 208.758 81.4059C208.758 81.8327 209.103 82.1788 209.53 82.1788Z" fill="#3A3144"/>
<path d="M210.816 78.8297C210.43 78.7009 209.916 78.7009 209.53 78.7009C209.272 78.7009 209.015 78.9585 209.144 79.0874C209.144 79.345 209.401 79.4738 209.53 79.4738C209.787 79.4738 209.916 79.4738 210.173 79.4738H210.044C210.301 79.4738 210.43 79.6026 210.687 79.6026C210.945 79.6026 211.202 79.4738 211.202 79.345C211.202 79.0874 211.073 78.8297 210.816 78.8297Z" fill="#3A3144"/>
<path d="M212.231 85.6565C211.845 86.5582 210.173 87.4598 209.272 86.687L210.688 84.2396C210.816 84.1108 211.717 84.2396 211.845 84.3684C212.489 84.7549 212.489 85.2701 212.231 85.6565Z" fill="#FA9E98"/>
<path d="M159.356 106.91L154.725 129.194C154.339 130.739 155.368 132.285 156.912 132.671L202.969 144.651C204.255 145.037 205.671 144.393 206.314 143.234L215.062 127.39C221.623 115.669 215.577 100.985 202.712 97.2494L184.443 91.8395C173.251 88.6193 161.672 95.5749 159.356 106.91Z" fill="#3A3144"/>
<path d="M203.097 77.4132C203.097 77.4132 201.296 74.4506 199.881 76.3827C199.109 77.542 199.624 78.9589 200.267 79.8605C200.653 80.5046 200.653 81.2774 200.01 81.7926L195.25 86.3009C194.992 86.5585 194.478 86.6873 194.092 86.5585L191.004 85.7857C190.489 85.6568 190.104 85.1416 190.104 84.6264C190.232 82.0502 188.688 75.8675 190.747 71.2304C191.905 68.6543 197.437 61.5699 206.442 65.9493C207.214 66.3357 203.612 66.2069 204.512 66.0781C206.571 65.8205 210.688 65.6917 213.775 69.1695C218.149 73.9354 218.535 76.1251 215.062 76.3827C211.46 76.6403 207.085 73.2913 203.097 77.4132Z" fill="#3A3144"/>
<path d="M220.723 172.344C216.22 172.344 213.004 171.313 210.302 169.252C204.384 164.744 202.583 156.372 199.238 135.247C198.338 129.709 197.051 121.207 196.279 119.146C196.279 119.146 196.923 120.692 198.852 122.238L212.361 104.72C217.635 108.713 218.664 115.54 221.237 131.898C222.009 136.793 223.296 144.779 224.454 149.803C230.886 148.772 242.979 145.294 254.043 141.301L261.505 162.168C261.119 162.297 252.242 165.517 242.465 168.351C232.687 170.927 225.869 172.344 220.723 172.344Z" fill="#3A3144"/>
<path d="M197.437 121.98C198.208 126.488 198.98 130.997 199.752 135.505C200.01 136.793 200.138 138.081 200.395 139.369C200.395 139.627 200.91 139.498 200.781 139.24C200.01 134.732 199.238 130.224 198.466 125.716C198.208 124.428 198.08 123.139 197.822 121.851C197.694 121.594 197.308 121.723 197.437 121.98Z" fill="#385A7D"/>
<path d="M237.318 115.411C237.704 116.828 237.576 118.245 237.061 119.533C236.932 119.791 237.061 120.048 237.19 120.177C237.318 120.306 237.704 120.177 237.833 120.048C238.476 118.503 238.734 116.828 238.219 115.154C238.09 114.638 237.19 114.896 237.318 115.411Z" fill="#3A3144"/>
<path d="M186.244 58.6073C186.63 59.509 187.144 60.4106 187.53 61.3123C187.659 61.5699 187.916 61.5699 188.173 61.4411C188.431 61.3123 188.431 61.0546 188.302 60.797C187.916 59.8954 187.402 58.9937 187.016 58.0921C186.887 57.9633 186.63 57.8345 186.372 57.9633C186.244 58.0921 186.115 58.3497 186.244 58.6073Z" fill="#3A3144"/>
<path d="M198.594 53.7127C198.852 55.1296 199.109 56.5465 199.366 57.9634C199.366 58.221 199.752 58.3498 199.881 58.221C200.138 58.0922 200.267 57.9634 200.138 57.7058C199.881 56.2889 199.624 54.872 199.366 53.4551C199.366 53.1975 198.98 53.0687 198.852 53.1975C198.594 53.1975 198.466 53.4551 198.594 53.7127Z" fill="#3A3144"/>
<path d="M212.617 55.0006C212.36 56.1598 211.974 57.4479 211.717 58.6072C211.588 59.1224 212.489 59.38 212.617 58.8648C212.875 57.7055 213.26 56.4175 213.518 55.2582C213.518 54.743 212.746 54.4853 212.617 55.0006Z" fill="#3A3144"/>
<path d="M320.04 176.08C319.783 176.08 319.526 176.08 319.397 175.952C318.497 175.565 318.111 174.535 318.497 173.633C320.426 169.254 320.426 165.518 320.426 163.715C320.426 163.071 320.426 162.556 320.555 162.169C320.812 161.267 321.713 160.623 322.614 160.752C323.514 161.01 324.157 161.912 324.029 162.813C324.029 162.942 324.029 163.328 324.029 163.586C324.029 165.647 324.029 169.898 321.842 174.921C321.456 175.694 320.684 176.08 320.04 176.08Z" fill="#FF9B66"/>
<path d="M304.088 184.066L321.198 177.755C321.198 177.755 321.198 157.918 310.906 158.691C300.614 159.593 304.088 184.066 304.088 184.066Z" fill="#FF9B66"/>
<path d="M319.14 170.026C318.496 170.026 317.853 169.511 317.853 168.867C316.438 157.532 309.491 154.441 309.105 154.312C308.462 154.054 308.076 153.281 308.462 152.508C308.719 151.864 309.491 151.478 310.134 151.864C310.52 151.993 318.754 155.6 320.426 168.609C320.555 169.382 320.04 170.026 319.268 170.155C319.268 170.026 319.268 170.026 319.14 170.026Z" fill="#FF9B66"/>
<path d="M312.449 162.684C311.935 162.684 311.549 162.427 311.291 162.04C310.777 161.396 307.689 157.789 304.602 156.888C303.958 156.63 303.444 155.986 303.701 155.213C303.958 154.569 304.602 154.054 305.373 154.312C309.362 155.471 313.478 160.237 313.607 160.881C313.864 161.525 313.35 162.298 312.707 162.555C312.707 162.555 312.578 162.684 312.449 162.684Z" fill="#FF9B66"/>
<path d="M307.69 164.874C307.175 164.874 306.789 164.616 306.532 164.101C306.532 163.972 304.86 161.01 301.643 160.623C300.871 160.495 300.357 159.851 300.486 159.078C300.614 158.305 301.257 157.79 302.029 157.918C306.661 158.562 308.976 162.813 308.976 162.942C309.234 163.586 308.976 164.359 308.333 164.745C308.076 164.745 307.947 164.874 307.69 164.874Z" fill="#FF9B66"/>
<path d="M305.245 170.026C304.731 170.026 304.216 169.64 303.959 169.125C303.959 168.996 302.801 165.776 299.713 164.874C299.07 164.616 298.555 163.972 298.813 163.199C299.07 162.555 299.713 162.04 300.485 162.298C304.988 163.715 306.403 168.352 306.532 168.352C306.789 168.996 306.275 169.769 305.631 170.026C305.503 170.026 305.374 170.026 305.245 170.026Z" fill="#FF9B66"/>
<path d="M410.481 323.822L420.387 349.069C421.673 352.417 417.943 355.38 414.984 353.319L377.032 326.527" fill="#E4E7F6"/>
<path d="M322.999 337.218H386.166C424.118 337.218 454.994 306.433 454.994 268.306C454.994 230.308 424.247 199.394 386.166 199.394H322.999C285.047 199.394 254.171 230.179 254.171 268.306C254.171 306.433 285.047 337.218 322.999 337.218Z" fill="#E4E7F6"/>
<path d="M415.113 286.21C414.727 286.21 414.341 286.081 414.083 285.823C413.311 285.179 413.183 284.149 413.697 283.376C413.697 283.247 413.955 282.989 414.083 282.732C414.984 280.929 416.656 277.064 420.902 273.329C421.674 272.685 422.703 272.814 423.346 273.458C423.989 274.231 423.861 275.261 423.218 275.905C419.615 279.125 418.072 282.474 417.3 284.149C417.042 284.793 416.785 285.179 416.656 285.437C416.142 285.952 415.627 286.21 415.113 286.21Z" fill="#FF9B66"/>
<path d="M440.586 272.556L422.446 271.011C422.446 271.011 414.084 288.915 423.732 292.65C433.381 296.386 440.586 272.556 440.586 272.556Z" fill="#FF9B66"/>
<path d="M422.317 299.735C421.931 299.735 421.545 299.606 421.288 299.348C421.031 299.091 415.113 292.264 419.101 279.898C419.358 279.254 420.13 278.868 420.774 278.997C421.417 279.254 421.803 280.027 421.674 280.671C418.201 291.491 423.089 297.288 423.347 297.545C423.861 298.06 423.732 298.962 423.218 299.477C422.961 299.606 422.703 299.735 422.317 299.735Z" fill="#FF9B66"/>
<path d="M427.591 299.349C427.334 299.349 426.948 299.22 426.691 298.962C423.603 296.129 421.931 290.203 422.059 289.431C422.188 288.658 422.831 288.271 423.603 288.271C424.246 288.4 424.632 288.915 424.761 289.431C424.889 290.203 426.305 294.84 428.62 296.901C429.135 297.417 429.264 298.189 428.749 298.834C428.363 299.22 427.977 299.349 427.591 299.349Z" fill="#FF9B66"/>
<path d="M432.095 297.416C431.838 297.416 431.58 297.288 431.323 297.159C427.335 294.583 427.206 289.688 427.206 289.688C427.206 288.915 427.849 288.4 428.493 288.4C429.264 288.4 429.779 288.915 429.779 289.688C429.779 289.817 430.036 293.295 432.609 294.969C433.253 295.355 433.381 296.128 432.995 296.772C432.867 297.159 432.481 297.416 432.095 297.416Z" fill="#FF9B66"/>
<path d="M435.439 294.325C435.182 294.325 434.796 294.196 434.539 293.939C431.065 290.847 431.709 285.952 431.709 285.952C431.837 285.18 432.481 284.793 433.252 284.793C434.024 284.922 434.41 285.566 434.41 286.339C434.41 286.468 434.024 289.945 436.34 292.006C436.855 292.522 436.983 293.294 436.469 293.939C436.211 294.067 435.825 294.325 435.439 294.325Z" fill="#FF9B66"/>
<path d="M374.074 277.709C386.721 277.709 396.973 267.444 396.973 254.781C396.973 242.119 386.721 231.854 374.074 231.854C361.426 231.854 351.174 242.119 351.174 254.781C351.174 267.444 361.426 277.709 374.074 277.709Z" fill="#F99192"/>
<path d="M374.459 219.874L361.852 215.881C362.366 213.563 360.565 204.546 358.378 200.94L369.828 194.242C372.787 199.265 376.775 212.79 374.459 219.874Z" fill="#FF9B66"/>
<path d="M359.536 202.614L361.08 209.054C361.08 209.054 364.039 206.993 368.027 202.228C367.898 202.228 364.811 203.902 359.536 202.614Z" fill="#3A3144"/>
<path d="M356.578 203.001C352.59 200.296 351.56 194.757 354.262 190.635L359.537 182.907C362.624 178.398 368.8 177.239 373.302 180.33L374.846 181.361C379.349 184.452 380.507 190.635 377.419 195.143L374.203 199.652C370.215 205.448 362.367 206.994 356.578 203.001Z" fill="#FF9B66"/>
<path d="M359.536 189.605C359.962 189.605 360.308 189.259 360.308 188.832C360.308 188.405 359.962 188.059 359.536 188.059C359.11 188.059 358.764 188.405 358.764 188.832C358.764 189.259 359.11 189.605 359.536 189.605Z" fill="#3A3144"/>
<path d="M354.262 189.089C353.747 190.12 354.004 192.052 355.419 192.438L356.706 189.604C356.835 189.347 355.934 188.703 355.805 188.703C355.034 188.316 354.519 188.574 354.262 189.089Z" fill="#FF9B66"/>
<path d="M377.805 209.57L349.759 214.593C342.683 215.882 338.18 222.837 339.853 229.793L346.414 256.971C346.928 259.161 348.858 260.578 351.045 260.32L396.33 256.713C398.646 256.585 400.447 254.524 400.447 252.076L399.804 227.345C399.546 216.01 389.126 207.509 377.805 209.57Z" fill="#8998D6"/>
<path d="M356.963 192.438L359.15 192.567C359.407 192.567 359.665 192.825 359.536 193.211C359.15 194.113 358.378 195.659 357.22 195.53C356.062 195.401 356.191 193.855 356.32 193.083C356.32 192.567 356.577 192.438 356.963 192.438Z" fill="#3A3144"/>
<path d="M357.091 195.401C357.863 195.53 358.507 194.886 359.021 194.113C358.121 193.597 356.963 194.241 356.191 194.628C356.32 195.014 356.577 195.272 357.091 195.401Z" fill="#FF9B66"/>
<path d="M357.349 183.164L360.565 184.452C361.594 184.839 362.752 184.839 363.653 184.323L364.939 183.679L363.91 185.998L365.454 186.9C366.612 187.544 367.255 188.832 367.255 190.12V190.377C367.255 190.377 368.541 188.832 370.471 189.476C372.401 190.12 370.214 193.984 368.027 193.855L367.769 206.092C367.769 206.736 368.413 207.251 369.056 207.122L387.324 203.645C388.096 203.516 388.482 202.743 388.354 201.97C387.067 197.204 382.307 181.619 375.36 179.429C374.717 179.3 374.202 178.914 373.687 178.656C371.372 177.11 363.009 173.246 356.834 181.361C356.577 182.005 356.706 182.907 357.349 183.164Z" fill="#3A3144"/>
<path d="M351.174 260.32C351.174 260.32 331.362 312.101 328.789 337.218H392.599C392.599 337.218 405.979 271.269 396.587 256.713" fill="#69738E"/>
<path d="M360.179 186.127C360.307 186.127 360.436 186.256 360.693 186.256H360.565C360.822 186.384 361.208 186.513 361.465 186.771C361.594 186.9 361.98 186.771 362.108 186.642C362.237 186.384 362.108 186.127 361.98 185.998C361.465 185.74 361.079 185.483 360.565 185.225C360.307 185.096 360.05 185.354 360.05 185.483C359.793 185.869 359.921 186.127 360.179 186.127Z" fill="#3A3144"/>
<path d="M371.372 300.379C369.957 305.016 368.542 309.525 367.127 314.162C365.711 318.799 364.296 323.307 362.881 327.944C362.109 330.52 361.337 333.096 360.437 335.672C360.308 336.188 361.08 336.445 361.337 335.93C362.752 331.293 364.168 326.785 365.583 322.148C366.998 317.511 368.413 313.002 369.828 308.365C370.6 305.789 371.372 303.213 372.273 300.637C372.401 300.122 371.629 299.864 371.372 300.379Z" fill="#3A3144"/>
<path d="M359.921 265.215C362.88 268.177 365.968 270.882 369.184 273.587C369.57 273.973 370.213 273.329 369.827 272.943C366.611 270.238 363.523 267.404 360.564 264.571C360.05 264.184 359.407 264.828 359.921 265.215Z" fill="#3A3144"/>
<path d="M346.413 235.718C331.361 235.718 320.683 232.369 314.251 225.542C307.69 218.715 303.444 207.509 301.386 191.408C299.971 180.588 300.099 171.314 300.099 170.928L322.227 171.314L311.163 171.185L322.227 171.314C322.098 183.551 324.414 204.289 330.075 210.214C331.49 211.631 337.279 213.949 350.016 213.434C359.536 213.048 367.769 211.373 367.769 211.373L372.272 233.013C371.886 233.142 362.109 235.074 350.788 235.589C349.244 235.718 347.829 235.718 346.413 235.718Z" fill="#8998D6"/>
<path d="M437.498 284.149L417.428 274.746V274.875C417.685 274.231 423.989 259.676 416.013 246.022C410.738 237.134 403.662 231.982 394.914 230.823C387.838 229.792 382.178 231.596 382.178 231.596H382.306L375.102 210.6C376.131 210.214 385.137 207.251 396.973 208.668C408.165 209.956 423.861 215.623 435.182 234.687C449.076 258.516 438.012 283.119 437.498 284.149Z" fill="#8998D6"/>
<path d="M420.645 282.217C422.189 282.475 423.861 281.573 424.633 280.156C424.89 279.641 424.119 279.254 423.861 279.77C423.218 280.929 421.931 281.573 420.516 281.315C420.259 281.315 420.13 281.573 420.13 281.702C420.259 282.088 420.388 282.217 420.645 282.217Z" fill="#3A3144"/>
<path d="M356.062 166.29C356.448 167.578 356.834 168.738 357.22 170.026C357.349 170.541 358.249 170.283 358.121 169.768C357.735 168.48 357.349 167.321 356.963 166.033C356.834 165.518 355.934 165.775 356.062 166.29Z" fill="#3A3144"/>
<path d="M369.57 163.843C368.927 165.775 368.541 167.707 368.155 169.639C368.155 169.897 368.155 170.155 368.413 170.155C368.67 170.155 368.927 170.026 368.927 169.897C369.184 167.965 369.699 166.033 370.342 164.101C370.6 163.457 369.828 163.199 369.57 163.843Z" fill="#3A3144"/>
<path d="M382.692 168.867C381.792 170.026 380.891 171.186 379.991 172.345C379.862 172.474 379.862 172.731 379.991 172.989C380.119 173.118 380.505 173.118 380.634 172.989C381.663 171.83 382.564 170.67 383.464 169.382C383.593 169.125 383.464 168.867 383.335 168.738C383.078 168.609 382.821 168.738 382.692 168.867Z" fill="#3A3144"/>
<path d="M376.776 141.044L371.115 155.6C370.343 157.532 372.53 159.206 374.203 158.047L396.073 142.59" fill="#B2EEE6"/>
<path d="M438.271 144.908H385.396C360.437 144.908 340.239 124.686 340.239 99.697C340.239 74.7084 360.437 54.4856 385.396 54.4856H438.271C463.229 54.4856 483.427 74.7084 483.427 99.697C483.427 124.686 463.229 144.908 438.271 144.908Z" fill="#B7C0E6"/>
<path d="M408.938 134.347L407.395 145.038H444.575C444.575 145.038 443.417 132.286 439.686 129.065" fill="#F99192"/>
<path d="M428.371 89.5818L417.715 90.252L418.433 101.693L429.089 101.023L428.371 89.5818Z" fill="#936D61"/>
<path d="M425.664 91.4536C423.863 95.7043 419.488 96.7347 419.488 96.7347L418.588 91.3248C418.588 91.196 426.95 88.3622 425.664 91.4536Z" fill="#3A3144"/>
<path d="M444.318 133.059L443.932 130.74C443.417 127.52 443.417 124.3 443.674 121.08L444.318 114.897C444.446 113.609 444.446 112.321 444.318 111.033C443.803 104.206 440.33 98.7959 433.254 99.0535L414.985 99.5687C409.968 99.6975 407.138 102.016 405.465 105.751C404.693 107.426 404.436 109.229 404.436 111.161C404.693 120.307 404.822 127.134 404.822 132.157C404.822 134.862 407.009 136.923 409.582 136.923L441.487 137.18C443.932 137.18 444.189 137.309 444.318 135.892C444.575 134.862 444.446 133.96 444.318 133.059Z" fill="white"/>
<path d="M415.885 80.3761L415.242 84.1115C414.341 84.1115 414.856 80.2473 414.856 80.2473" fill="#3A3144"/>
<path d="M420.002 94.2878C424.633 94.6742 428.75 91.3252 429.265 86.6882L429.522 83.7256C429.908 79.9902 427.078 76.6412 423.347 76.2548H422.961C419.23 75.8684 415.885 78.7021 415.499 82.4375L414.984 88.2339C414.599 91.1964 416.914 94.0302 420.002 94.2878Z" fill="#936D61"/>
<path d="M413.441 85.5288C413.569 86.9457 415.37 88.8778 417.043 88.3626L417.686 84.756C417.686 84.4984 414.856 83.9832 414.598 83.9832C413.698 84.112 413.312 84.756 413.441 85.5288Z" fill="#936D61"/>
<path d="M431.195 85.7864C431.066 87.2033 429.265 89.1354 427.592 88.6202L426.949 85.0136C426.949 84.7559 429.78 84.2407 430.037 84.2407C430.937 84.3695 431.195 85.0136 431.195 85.7864Z" fill="#936D61"/>
<path d="M415.757 81.149C415.757 81.149 414.599 88.7486 415.885 89.5215C416.786 90.0367 416.271 88.6198 419.745 89.135C421.16 89.3926 421.932 88.6198 423.347 89.5215C428.622 92.8704 426.821 81.2778 426.821 81.2778L429.008 83.0811C429.008 83.0811 430.68 94.0297 424.891 96.9923C420.517 99.182 413.441 97.3787 413.698 91.4536C414.084 83.4675 414.856 80.8914 414.856 80.8914" fill="#3A3144"/>
<path d="M424.633 78.8305C424.633 78.7017 420.645 82.1795 415.242 81.5354C410.739 81.0202 420.002 73.163 425.662 76.8984C425.662 76.8984 429.522 78.1864 429.65 82.0507C429.779 85.9149 428.493 87.203 428.493 87.203L428.235 85.9149L428.364 84.2404C428.493 84.1116 424.762 82.6947 424.633 78.8305Z" fill="#3A3144"/>
<path d="M420.773 88.362C420.645 88.1044 420.259 87.9756 420.001 87.9756C419.616 87.9756 419.358 88.1044 419.23 88.362C419.101 88.4908 419.23 88.7484 419.358 88.7484C419.487 88.8772 419.616 88.7484 419.744 88.6196C419.744 88.6196 419.744 88.6196 419.873 88.6196C419.873 88.6196 419.744 88.6196 419.873 88.6196C419.873 88.6196 419.873 88.6196 420.001 88.6196C420.001 88.6196 420.13 88.6196 420.001 88.6196C420.001 88.6196 420.001 88.6196 420.13 88.6196C420.13 88.6196 420.13 88.6196 420.259 88.6196C420.259 88.6196 420.259 88.6196 420.387 88.6196C420.516 88.7484 420.645 88.7484 420.773 88.7484C420.773 88.7484 420.773 88.4908 420.773 88.362Z" fill="#3A3144"/>
<path d="M421.932 89.3925L421.804 89.5213C421.675 89.5213 421.804 89.5213 421.804 89.5213C421.804 89.5213 421.804 89.5213 421.675 89.6501C421.546 89.7789 421.418 89.7789 421.289 89.9077H421.16C421.032 89.9077 421.032 89.9077 420.903 90.0365C420.774 90.0365 420.774 90.0365 420.646 90.0365H420.517C420.517 90.0365 420.388 90.0365 420.517 90.0365C420.388 90.0365 420.26 90.1653 420.26 90.2941C420.26 90.4229 420.388 90.5517 420.517 90.5517C421.289 90.4229 421.932 90.1653 422.575 89.6501C422.704 89.5213 422.704 89.3925 422.575 89.2637C422.19 89.3925 422.061 89.3925 421.932 89.3925Z" fill="white"/>
<path d="M423.348 87.8473C423.632 87.8473 423.862 87.6167 423.862 87.3321C423.862 87.0476 423.632 86.8169 423.348 86.8169C423.063 86.8169 422.833 87.0476 422.833 87.3321C422.833 87.6167 423.063 87.8473 423.348 87.8473Z" fill="#3A3144"/>
<path d="M423.861 84.4982C423.604 84.3694 423.218 84.3694 422.832 84.3694C422.703 84.3694 422.575 84.4982 422.575 84.627C422.575 84.7558 422.703 84.8846 422.832 84.8846C423.089 84.8846 423.218 84.8846 423.475 84.8846C423.475 84.8846 423.475 84.8846 423.347 84.8846C423.475 84.8846 423.604 84.8846 423.604 84.8846C423.733 84.8846 423.861 84.8846 423.99 84.627C424.119 84.7558 423.99 84.4982 423.861 84.4982Z" fill="#3A3144"/>
<path d="M417.557 87.4606C417.841 87.4606 418.072 87.23 418.072 86.9454C418.072 86.6609 417.841 86.4302 417.557 86.4302C417.273 86.4302 417.042 86.6609 417.042 86.9454C417.042 87.23 417.273 87.4606 417.557 87.4606Z" fill="#3A3144"/>
<path d="M418.072 84.2406C417.815 84.1118 417.429 84.1118 417.043 84.1118C416.914 84.1118 416.786 84.2406 416.786 84.3694C416.786 84.4982 416.914 84.627 417.043 84.627C417.3 84.627 417.429 84.627 417.686 84.627C417.686 84.627 417.686 84.627 417.558 84.627C417.686 84.627 417.815 84.627 417.815 84.627C417.943 84.627 418.072 84.627 418.201 84.3694C418.329 84.3694 418.201 84.2406 418.072 84.2406Z" fill="#3A3144"/>
<path d="M363.526 88.62L373.175 81.5356C373.175 81.5356 365.198 69.9429 359.409 74.58C353.748 79.217 363.526 88.62 363.526 88.62Z" fill="#936D61"/>
<path d="M366.098 71.7464C367.127 74.8378 368.028 77.9291 369.057 81.0205C369.186 81.5357 369.829 82.051 370.472 81.7934C370.987 81.6645 371.501 81.0205 371.244 80.3765C370.215 77.2851 369.314 74.1937 368.285 71.1024C368.157 70.5871 367.513 70.0719 366.87 70.3295C366.355 70.5871 365.97 71.2312 366.098 71.7464Z" fill="#936D61"/>
<path d="M354.263 79.9899C356.193 81.4067 358.122 82.8236 360.052 84.3693C360.438 84.6269 360.953 84.7557 361.21 84.3693C361.467 84.1117 361.596 83.4677 361.21 83.2101C359.152 81.5356 357.093 79.9899 355.035 78.573C354.649 78.3154 354.134 78.4442 353.877 78.8306C353.748 79.3458 353.877 79.7323 354.263 79.9899Z" fill="#936D61"/>
<path d="M354.005 75.4815C355.549 77.156 357.221 78.7017 359.151 79.861C359.537 80.1186 360.18 79.9898 360.309 79.6034C360.566 79.217 360.438 78.7017 360.052 78.4441C359.537 78.1865 359.151 77.8001 358.765 77.5425C358.636 77.4137 358.508 77.4137 358.508 77.2849L358.379 77.156C358.251 77.0272 358.508 77.2849 358.379 77.156C358.122 77.0272 357.993 76.7696 357.736 76.6408C356.964 75.9968 356.192 75.2239 355.42 74.3223C355.163 73.9359 354.52 73.9359 354.262 74.3223C353.619 74.5799 353.619 75.0951 354.005 75.4815Z" fill="#936D61"/>
<path d="M361.338 75.2241C359.666 73.8072 358.122 72.2615 356.578 70.7158C356.321 70.3294 355.678 70.3294 355.42 70.7158C355.034 71.1023 355.034 71.6175 355.42 71.8751C356.835 73.5496 358.508 74.9665 360.18 76.3834C360.566 76.641 361.081 76.7698 361.338 76.3834C361.596 76.1257 361.724 75.4817 361.338 75.2241Z" fill="#936D61"/>
<path d="M358.379 69.0412C360.18 72.3902 363.396 74.7087 366.355 77.0273C366.741 77.2849 367.385 77.0273 367.513 76.7697C367.77 76.3832 367.513 75.868 367.256 75.6104C364.554 73.5495 361.595 71.2309 359.923 68.2684C359.28 67.2379 357.864 68.1396 358.379 69.0412Z" fill="#936D61"/>
<path d="M475.451 71.8749L464.001 68.5259C464.001 68.5259 467.475 54.8723 474.422 57.1909C481.369 59.5094 475.451 71.8749 475.451 71.8749Z" fill="#936D61"/>
<path d="M464.902 57.0621C465.031 60.2823 465.159 63.5025 465.416 66.8515C465.416 67.4955 465.931 68.0107 466.574 68.0107C467.218 68.0107 467.732 67.4955 467.732 66.8515C467.604 63.6313 467.475 60.4111 467.218 57.0621C467.218 56.4181 466.703 55.9028 466.06 55.9028C465.416 55.9028 464.902 56.4181 464.902 57.0621Z" fill="#936D61"/>
<path d="M479.825 59.5096C478.41 61.5705 477.123 63.7602 475.837 65.8211C475.58 66.2075 475.708 66.7228 476.094 66.9804C476.48 67.238 476.995 67.1092 477.252 66.7228C478.539 64.533 479.825 62.4721 481.24 60.4112C481.498 60.0248 481.369 59.5096 480.983 59.2519C480.468 58.9943 480.082 59.1231 479.825 59.5096Z" fill="#936D61"/>
<path d="M478.281 55.5165C477.637 57.3198 476.48 59.2519 475.322 60.7976C475.064 61.184 474.936 61.6992 475.322 61.9568C475.579 62.2144 476.222 62.3433 476.48 61.9568C477.895 60.1535 479.053 58.0926 479.953 55.9029C480.082 55.5165 479.824 55.0012 479.31 54.8724C478.795 54.7436 478.409 55.0012 478.281 55.5165Z" fill="#936D61"/>
<path d="M474.422 59.2518C475.579 57.3196 476.48 55.2587 477.381 53.1978C477.509 52.8114 477.252 52.2962 476.737 52.1673C476.223 52.0385 475.837 52.2962 475.708 52.8114C474.936 54.7435 474.036 56.6756 473.006 58.4789C472.749 58.8653 472.878 59.3806 473.264 59.6382C473.65 59.767 474.164 59.6382 474.422 59.2518Z" fill="#936D61"/>
<path d="M471.849 51.3946C471.334 54.8724 469.276 58.0926 467.474 61.0552C466.831 61.9568 468.375 62.8585 469.018 61.9568C470.047 60.4111 470.948 58.8654 471.72 57.1909C472.492 55.5165 473.264 53.842 473.521 51.9098C473.65 51.3946 473.392 51.0082 472.878 50.8794C472.492 50.6218 471.977 50.8794 471.849 51.3946Z" fill="#936D61"/>
<path d="M417.043 114.124C410.997 114.124 398.646 113.737 391.828 110.775C383.851 107.297 364.94 90.2942 361.209 86.9452L371.244 75.9966C381.021 84.8843 393.886 95.5753 397.617 97.121C401.605 98.7955 412.926 99.3107 419.616 99.1819L420.002 114.124C419.488 114.124 418.458 114.124 417.043 114.124Z" fill="white"/>
<path d="M431.581 114.123L430.81 99.3106C430.81 99.3106 435.312 99.053 440.458 97.6361C446.248 96.0904 450.493 93.9007 452.423 91.1957C453.967 88.7484 458.855 75.8676 462.586 65.3054L476.609 70.2001C474.036 77.6709 467.732 95.5751 464.516 99.9546C455.253 112.578 433.897 113.995 431.581 114.123Z" fill="white"/>
<path d="M404.822 105.88C404.179 108.327 403.922 110.904 404.179 113.48C404.179 113.866 404.822 113.866 404.694 113.48C404.436 111.032 404.694 108.456 405.208 106.009C405.466 105.622 404.951 105.494 404.822 105.88Z" fill="#DADCE3"/>
<path d="M442.774 113.093C443.417 112.707 443.932 112.32 444.575 111.934C444.704 111.805 444.704 111.676 444.704 111.548C444.575 111.419 444.447 111.419 444.318 111.419C443.675 111.805 443.16 112.192 442.517 112.578C442.388 112.707 442.388 112.836 442.388 112.964C442.517 113.093 442.645 113.093 442.774 113.093Z" fill="#DADCE3"/>
<path d="M363.525 75.3523C362.625 77.1556 362.496 79.0877 363.01 81.0198C363.139 81.4063 363.654 81.2775 363.525 80.891C363.01 79.2165 363.268 77.2844 364.04 75.7387C364.168 75.2235 363.654 74.9659 363.525 75.3523Z" fill="#3A3144"/>
<path d="M470.819 61.1838C472.234 62.3431 471.848 64.404 471.462 65.8209C471.333 66.2073 471.977 66.3361 471.977 65.9497C472.234 64.9193 472.491 63.8888 472.363 62.8583C472.234 61.9567 471.848 61.1838 471.205 60.6686C470.819 60.411 470.562 60.9262 470.819 61.1838Z" fill="#3A3144"/>
<path d="M211.845 283.633L217.506 298.189C218.278 300.121 216.091 301.795 214.418 300.636L192.548 285.179" fill="#B7C0E6"/>
<path d="M146.877 289.172H194.606C215.576 289.172 232.558 272.17 232.558 251.174V249.113C232.558 228.118 215.576 211.115 194.606 211.115H146.877C125.907 211.115 108.925 228.118 108.925 249.113V251.174C108.925 272.17 125.907 289.172 146.877 289.172Z" fill="#B7C0E6"/>
<path d="M152.666 292.006L161.285 286.338C161.285 286.338 168.232 296.256 162.829 299.476C157.426 302.697 152.666 292.006 152.666 292.006Z" fill="#FCC5C2"/>
<path d="M166.946 294.839C164.759 293.165 162.571 291.362 160.256 289.687C159.87 289.301 159.87 288.657 160.256 288.27C160.642 287.884 161.285 287.884 161.671 288.27C163.858 289.945 166.045 291.748 168.361 293.423C168.747 293.809 168.747 294.453 168.361 294.839C167.975 295.226 167.332 295.226 166.946 294.839Z" fill="#FCC5C2"/>
<path d="M156.911 302.182C156.397 300.121 155.754 298.06 154.982 295.999C154.853 295.613 155.11 295.226 155.496 295.097C155.882 294.969 156.268 295.226 156.397 295.613C157.04 297.674 157.683 299.735 158.327 301.795C158.584 302.697 157.169 303.084 156.911 302.182Z" fill="#FCC5C2"/>
<path d="M160.513 303.856C159.613 302.181 158.969 300.249 158.455 298.446C158.326 298.059 158.584 297.673 158.969 297.544C159.355 297.415 159.741 297.673 159.87 298.059C160.256 299.863 160.899 301.537 161.671 303.212C161.8 303.598 161.8 303.985 161.414 304.242C161.285 304.242 160.771 304.113 160.513 303.856Z" fill="#FCC5C2"/>
<path d="M162.957 297.931C163.601 299.605 164.244 301.28 165.144 302.954C165.273 303.341 165.273 303.727 164.887 303.985C164.501 304.242 164.115 304.114 163.858 303.727C162.957 302.053 162.186 300.249 161.542 298.317C161.414 297.931 161.671 297.544 162.057 297.416C162.443 297.287 162.829 297.544 162.957 297.931Z" fill="#FCC5C2"/>
<path d="M166.946 302.181C164.887 299.734 163.73 296.514 162.829 293.423C162.572 292.521 163.987 292.134 164.244 293.036C164.63 294.453 165.145 295.87 165.788 297.287C166.431 298.704 167.074 299.992 167.975 301.151C168.232 301.409 168.232 301.924 167.975 302.181C167.718 302.439 167.203 302.439 166.946 302.181Z" fill="#FCC5C2"/>
<path d="M194.477 279.898L195.893 289.044H163.73C163.73 289.044 164.759 277.966 167.975 275.261" fill="#3A3144"/>
<path d="M178.378 241.568L177.128 249.976L185.018 251.152L186.268 242.743L178.378 241.568Z" fill="#FCC5C2"/>
<path d="M180.069 243.445C181.613 247.181 185.472 247.954 185.472 247.954L186.244 243.317C186.115 243.317 178.911 240.869 180.069 243.445Z" fill="#3A3144"/>
<path d="M163.858 278.868L164.116 276.936C164.501 274.231 164.63 271.397 164.373 268.563L163.858 263.153C163.73 261.994 163.73 260.964 163.858 259.804C164.373 254.008 167.332 249.242 173.378 249.5L189.202 250.015C193.448 250.144 195.892 252.076 197.436 255.296C198.079 256.713 198.337 258.387 198.337 259.933C198.079 267.662 198.079 273.458 197.951 277.709C197.951 280.156 195.892 282.088 193.448 282.217L166.303 282.474C164.244 282.474 163.987 282.603 163.858 281.315C163.73 280.413 163.73 279.641 163.858 278.868Z" fill="#4A61C0"/>
<path d="M146.877 271.525C147.649 268.821 149.708 265.085 159.356 256.841C164.245 252.72 167.976 250.787 168.233 250.659L176.596 259.675C168.619 265.472 160.643 272.427 159.228 275.003C159.099 277.193 161.415 283.633 164.245 288.914L152.924 294.968C150.351 290.46 144.819 278.867 146.877 271.525Z" fill="#4A61C0"/>
<path d="M184.829 246.022C180.841 246.408 177.238 243.446 176.852 239.453L176.595 236.877C176.338 233.656 178.654 230.694 181.87 230.436H182.256C185.472 230.179 188.431 232.497 188.688 235.717L189.203 240.741C189.589 243.317 187.53 245.764 184.829 246.022Z" fill="#FCC5C2"/>
<path d="M184.186 240.87C184.314 240.612 184.571 240.484 184.829 240.484C185.086 240.484 185.343 240.612 185.472 240.87C185.601 240.999 185.472 241.128 185.343 241.256C185.215 241.385 185.086 241.256 184.957 241.128C184.829 241.256 184.7 241.256 184.571 241.256C184.186 241.128 184.186 240.999 184.186 240.87Z" fill="#3A3144"/>
<path d="M183.285 241.772L183.414 241.9C183.414 241.9 183.414 241.9 183.542 241.9C183.671 242.029 183.8 242.029 183.928 242.158C183.928 242.158 183.928 242.158 184.057 242.158C184.057 242.158 184.186 242.158 184.186 242.287C184.314 242.287 184.314 242.287 184.443 242.287H184.572C184.7 242.287 184.829 242.416 184.829 242.544C184.829 242.673 184.7 242.802 184.572 242.802C183.928 242.673 183.285 242.416 182.899 242.029C182.771 241.9 182.771 241.772 182.899 241.643C183.028 241.643 183.157 241.643 183.285 241.772Z" fill="#3A3144"/>
<path d="M181.998 240.226C182.211 240.226 182.384 240.053 182.384 239.84C182.384 239.626 182.211 239.453 181.998 239.453C181.785 239.453 181.612 239.626 181.612 239.84C181.612 240.053 181.785 240.226 181.998 240.226Z" fill="#3A3144"/>
<path d="M181.484 237.521C181.741 237.521 181.998 237.392 182.384 237.392C182.513 237.392 182.642 237.521 182.642 237.65C182.642 237.779 182.513 237.907 182.384 237.907C182.256 237.907 181.998 237.907 181.87 237.907C181.87 237.907 181.87 237.907 181.998 237.907C181.87 237.907 181.87 237.907 181.741 237.907C181.612 237.907 181.484 237.907 181.484 237.779C181.355 237.65 181.355 237.521 181.484 237.521Z" fill="#3A3144"/>
<path d="M187.016 239.968C187.229 239.968 187.402 239.795 187.402 239.581C187.402 239.368 187.229 239.195 187.016 239.195C186.803 239.195 186.63 239.368 186.63 239.581C186.63 239.795 186.803 239.968 187.016 239.968Z" fill="#3A3144"/>
<path d="M186.501 237.263C186.759 237.263 187.016 237.134 187.402 237.134C187.53 237.134 187.659 237.263 187.659 237.392C187.659 237.521 187.53 237.65 187.402 237.65C187.273 237.65 187.016 237.65 186.887 237.65C186.887 237.65 186.887 237.65 187.016 237.65C186.887 237.65 186.887 237.65 186.759 237.65C186.63 237.65 186.501 237.65 186.501 237.521C186.373 237.392 186.373 237.263 186.501 237.263Z" fill="#3A3144"/>
<path d="M210.816 210.084L200.524 211.372C200.524 211.372 198.723 199.393 205.027 198.878C211.33 198.363 210.816 210.084 210.816 210.084Z" fill="#FCC5C2"/>
<path d="M199.238 200.939C200.396 203.515 201.682 205.963 202.84 208.539C203.097 209.054 202.969 209.569 202.454 209.956C202.068 210.213 201.296 210.084 201.039 209.569C199.881 206.993 198.595 204.546 197.437 201.97C197.179 201.454 197.308 200.939 197.823 200.553C198.337 200.295 198.981 200.424 199.238 200.939Z" fill="#FCC5C2"/>
<path d="M211.588 199.136C211.202 201.197 210.816 203.386 210.559 205.576C210.559 205.962 210.044 206.22 209.658 206.091C209.272 205.962 209.144 205.576 209.144 205.19C209.401 203 209.787 200.939 210.173 198.749C210.301 198.363 210.687 198.105 211.073 198.234C211.459 198.363 211.717 198.749 211.588 199.136Z" fill="#FCC5C2"/>
<path d="M209.015 196.044C209.015 197.976 208.886 199.909 208.372 201.841C208.114 202.742 206.699 202.356 206.956 201.454C207.471 199.651 207.6 197.848 207.6 196.044C207.6 195.658 207.986 195.271 208.372 195.271C208.758 195.271 209.015 195.658 209.015 196.044Z" fill="#FCC5C2"/>
<path d="M204.384 200.295C204.641 198.363 204.641 196.56 204.641 194.627C204.641 193.726 206.056 193.726 206.185 194.627C206.185 196.56 206.185 198.363 205.928 200.295C205.928 200.681 205.67 201.068 205.156 201.068C204.77 201.068 204.255 200.681 204.384 200.295Z" fill="#FCC5C2"/>
<path d="M202.583 194.628C203.355 197.848 202.841 201.197 202.326 204.288C202.326 204.675 201.811 204.933 201.426 204.804C201.04 204.675 200.782 204.288 200.911 203.902C201.426 201.068 201.811 197.848 201.168 195.014C200.911 194.113 202.326 193.726 202.583 194.628Z" fill="#FCC5C2"/>
<path d="M196.664 262.509C198.208 259.675 205.927 245.249 207.599 240.225C209.143 235.202 211.073 213.433 211.587 206.864L198.851 205.834C197.822 218.586 196.149 233.785 195.377 236.361C194.477 239.195 189.073 249.886 185.471 256.455L196.664 262.509Z" fill="#4A61C0"/>
<path d="M168.876 266.631C167.718 267.533 166.561 268.434 165.274 269.207C165.017 269.336 164.759 268.949 165.017 268.821C166.303 268.048 167.461 267.275 168.49 266.373C168.876 266.116 169.134 266.373 168.876 266.631Z" fill="#3A3144"/>
<path d="M179.94 234.429L179.683 235.459C179.683 235.459 181.998 233.141 188.174 234.815C188.174 234.815 188.174 232.368 183.028 232.497C180.969 232.497 179.94 234.429 179.94 234.429Z" fill="#3A3144"/>
<path d="M190.619 245.506C191.519 238.551 189.204 232.239 186.631 230.693C185.473 230.049 183.929 229.277 180.713 230.178C179.169 230.693 177.239 232.239 176.467 234.944C174.666 241.127 176.081 240.869 174.923 244.991C174.537 246.408 170.807 249.371 170.807 249.371C170.935 249.499 172.222 252.72 172.736 254.523C174.28 260.319 183.157 263.282 183.929 263.282C188.946 262.766 192.42 253.879 192.549 252.848C192.549 252.075 190.104 248.727 190.619 245.506ZM185.344 233.27C186.502 233.527 187.274 233.914 187.788 234.171C187.788 234.171 189.204 236.103 189.204 239.839C189.204 243.188 187.274 245.764 185.344 245.893C180.713 246.279 179.426 242.286 179.298 240.483C179.169 237.005 179.941 234.429 179.941 234.429C180.327 233.785 183.286 232.883 185.344 233.27Z" fill="#385A7D"/>
<path d="M173.25 250.015C174.408 250.015 175.051 251.431 175.566 252.333C176.081 253.364 176.467 254.394 176.981 255.296C177.882 256.841 179.168 258.387 180.969 258.645C181.227 258.645 181.227 258.387 181.098 258.387C178.911 258.129 177.624 256.069 176.853 254.265C176.338 253.235 175.952 252.204 175.309 251.303C174.794 250.53 174.28 249.886 173.25 249.757C173.122 249.628 173.122 250.015 173.25 250.015Z" fill="black"/>
<path d="M177.495 251.045C178.138 251.818 178.782 252.591 179.553 253.235C180.197 253.75 181.097 254.137 181.869 253.879C182.126 253.75 181.998 253.493 181.74 253.622C180.969 253.879 180.068 253.493 179.553 252.978C178.91 252.462 178.267 251.689 177.752 251.045C177.624 250.788 177.366 250.917 177.495 251.045Z" fill="black"/>
<path d="M163.473 231.724C163.087 230.436 163.216 228.117 165.017 228.117C166.561 227.988 166.561 229.792 166.303 230.822C166.046 232.11 165.403 233.269 165.274 234.557C165.146 235.717 165.532 237.005 166.689 237.52C167.204 237.778 167.719 236.876 167.204 236.747C166.175 236.232 166.175 235.073 166.303 234.042C166.561 232.883 167.075 231.853 167.204 230.693C167.333 229.663 167.333 228.504 166.561 227.731C165.66 226.829 164.245 226.958 163.345 227.731C162.058 228.761 161.929 230.564 162.444 231.981C162.701 232.625 163.602 232.368 163.473 231.724Z" fill="black"/>
<path d="M168.875 241.642C169.647 241.642 169.647 240.354 168.875 240.354C167.974 240.354 167.974 241.642 168.875 241.642Z" fill="black"/>
<path d="M428.751 63.1164C429.523 62.3436 430.681 62.4724 431.453 63.1164C432.611 64.0181 432.482 65.8214 432.096 66.9806C431.71 68.2687 430.81 69.5568 430.81 70.9737C430.81 72.1329 431.453 73.2922 432.611 73.5498C433.254 73.6786 433.511 72.777 432.868 72.6482C431.196 72.2617 431.839 70.2008 432.225 69.0416C432.868 67.6247 433.383 66.2078 433.125 64.5333C432.997 63.2452 432.225 62.2148 430.938 61.6995C429.909 61.3131 428.623 61.4419 427.851 62.3436C427.593 62.9876 428.365 63.6316 428.751 63.1164Z" fill="black"/>
<path d="M434.797 76.6409C435.569 76.6409 435.569 75.3528 434.797 75.3528C434.025 75.3528 434.025 76.6409 434.797 76.6409Z" fill="black"/>
<path d="M313.995 0H265.88C249.927 0 236.934 13.0095 236.934 28.9817V43.7945C236.934 54.6143 242.98 64.1461 251.728 69.0408L247.869 78.9589C247.226 80.6334 249.155 82.3079 250.699 81.1487L262.921 72.5186C263.95 72.6474 264.851 72.6474 265.88 72.6474H313.995C329.948 72.6474 342.942 59.6378 342.942 43.6657V28.9817C342.942 13.0095 329.948 0 313.995 0Z" fill="#4F8AE0"/>
<path d="M244.49 37.5669H237.157V44.1361C237.157 54.9559 243.204 64.4876 251.952 69.3823L248.093 79.3005C247.449 80.975 249.379 82.6495 250.923 81.4902L263.145 72.8601C264.174 72.9889 265.074 72.9889 266.104 72.9889H295.822C287.974 52.2509 268.033 37.5669 244.49 37.5669Z" fill="#124A9B"/>
<path d="M268.968 39.5439C270.46 39.5439 271.669 38.3329 271.669 36.839C271.669 35.3451 270.46 34.134 268.968 34.134C267.476 34.134 266.266 35.3451 266.266 36.839C266.266 38.3329 267.476 39.5439 268.968 39.5439Z" fill="#FFFBE9"/>
<path d="M289.938 39.5439C291.43 39.5439 292.639 38.3329 292.639 36.839C292.639 35.3451 291.43 34.134 289.938 34.134C288.445 34.134 287.236 35.3451 287.236 36.839C287.236 38.3329 288.445 39.5439 289.938 39.5439Z" fill="#FFFBE9"/>
<path d="M310.908 39.5439C312.4 39.5439 313.61 38.3329 313.61 36.839C313.61 35.3451 312.4 34.134 310.908 34.134C309.416 34.134 308.207 35.3451 308.207 36.839C308.207 38.3329 309.416 39.5439 310.908 39.5439Z" fill="#FFFBE9"/>
<g filter="url(#filter0_d_615_42726)">
<rect x="180.535" y="312.32" width="155.571" height="37.7142" rx="5" fill="white"/>
</g>
<g filter="url(#filter1_d_615_42726)">
<circle cx="180.535" cy="331.178" r="11.7857" fill="#9BEBD7"/>
</g>
<rect x="197.035" y="329.999" width="114.321" height="3.5357" rx="1" fill="#E4E7F5"/>
<rect x="197.035" y="321.749" width="114.321" height="3.5357" rx="1" fill="#8998D6"/>
<rect x="197.035" y="335.892" width="114.321" height="3.5357" rx="1" fill="#E4E7F5"/>
<g filter="url(#filter2_d_615_42726)">
<rect x="89.7856" y="12.9644" width="155.571" height="37.7142" rx="5" fill="white"/>
</g>
<g filter="url(#filter3_d_615_42726)">
<circle cx="89.7857" cy="31.8213" r="11.7857" fill="#9BEBD7"/>
</g>
<rect x="106.286" y="30.6431" width="114.321" height="3.5357" rx="1" fill="#E4E7F5"/>
<rect x="106.286" y="22.3928" width="114.321" height="3.5357" rx="1" fill="#8998D6"/>
<rect x="106.286" y="36.5356" width="114.321" height="3.5357" rx="1" fill="#E4E7F5"/>
<g filter="url(#filter4_d_615_42726)">
<rect x="337.285" y="127.285" width="155.571" height="37.7142" rx="5" fill="white"/>
</g>
<g filter="url(#filter5_d_615_42726)">
<circle cx="337.285" cy="146.142" r="11.7857" fill="#9BEBD7"/>
</g>
<rect x="353.785" y="144.964" width="114.321" height="3.5357" rx="1" fill="#E4E7F5"/>
<rect x="353.785" y="136.714" width="114.321" height="3.5357" rx="1" fill="#8998D6"/>
<rect x="353.785" y="150.857" width="114.321" height="3.5357" rx="1" fill="#E4E7F5"/>
<path d="M184.503 325.874C184.029 325.403 183.204 325.404 182.735 325.877L181.62 326.996L180.241 328.375H177.375C177.247 328.375 177.122 328.414 177.017 328.488C176.912 328.562 176.832 328.666 176.788 328.786L174.288 335.661C174.205 335.889 174.262 336.145 174.433 336.317L175.683 337.567C175.767 337.651 175.874 337.71 175.99 337.735C176.106 337.761 176.227 337.753 176.339 337.712L183.214 335.212C183.334 335.168 183.439 335.088 183.512 334.983C183.586 334.878 183.625 334.753 183.625 334.625V331.759L185.004 330.379V330.379H185.005L186.125 329.256C186.361 329.019 186.491 328.705 186.491 328.371C186.491 328.037 186.36 327.723 186.123 327.487L184.503 325.874ZM182.558 331.058C182.5 331.116 182.454 331.185 182.423 331.261C182.391 331.337 182.375 331.418 182.375 331.5V334.188L176.594 336.289L179.514 333.37C179.53 333.371 179.546 333.375 179.563 333.375C179.748 333.375 179.929 333.32 180.083 333.217C180.238 333.114 180.358 332.968 180.429 332.796C180.5 332.625 180.518 332.437 180.482 332.255C180.446 332.073 180.357 331.906 180.225 331.775C180.094 331.644 179.927 331.554 179.745 331.518C179.564 331.482 179.375 331.5 179.204 331.571C179.033 331.642 178.886 331.763 178.783 331.917C178.68 332.071 178.625 332.252 178.625 332.438C178.625 332.454 178.629 332.47 178.63 332.486L175.711 335.406L177.813 329.625H180.5C180.666 329.625 180.825 329.559 180.942 329.442L182.063 328.321L183.679 329.938L182.558 331.058ZM184.562 329.053L182.946 327.437L183.62 326.759L185.241 328.373L184.562 329.053Z" fill="white"/>
<path d="M94.5026 25.8738C94.0295 25.4026 93.2045 25.4045 92.7351 25.877L91.6201 26.9963L90.2413 28.3751H87.3751C87.2468 28.375 87.1217 28.4144 87.0167 28.488C86.9117 28.5616 86.8319 28.6658 86.7882 28.7863L84.2882 35.6613C84.2051 35.8895 84.262 36.1451 84.4332 36.317L85.6832 37.567C85.7672 37.6512 85.8736 37.7096 85.9898 37.7353C86.106 37.761 86.2271 37.7529 86.3388 37.712L93.2138 35.212C93.3344 35.1683 93.4386 35.0885 93.5121 34.9835C93.5857 34.8785 93.6252 34.7533 93.6251 34.6251V31.7588L95.0045 30.3795V30.3788H95.0051L96.1251 29.2557C96.3613 29.0195 96.4913 28.7051 96.4907 28.3713C96.4907 28.037 96.3601 27.7226 96.1232 27.487L94.5026 25.8738ZM92.5582 31.0582C92.5001 31.1161 92.4539 31.185 92.4225 31.2609C92.3911 31.3367 92.375 31.418 92.3751 31.5001V34.1876L86.5945 36.2895L89.5138 33.3701C89.5301 33.3707 89.5463 33.3751 89.5626 33.3751C89.748 33.3751 89.9293 33.3201 90.0834 33.2171C90.2376 33.1141 90.3578 32.9677 90.4287 32.7963C90.4997 32.625 90.5182 32.4365 90.4821 32.2547C90.4459 32.0728 90.3566 31.9058 90.2255 31.7747C90.0944 31.6436 89.9273 31.5543 89.7455 31.5181C89.5636 31.4819 89.3751 31.5005 89.2038 31.5714C89.0325 31.6424 88.8861 31.7626 88.7831 31.9167C88.6801 32.0709 88.6251 32.2522 88.6251 32.4376C88.6251 32.4538 88.6295 32.4701 88.6301 32.4863L85.7107 35.4057L87.8126 29.6251H90.5001C90.6663 29.6251 90.8251 29.5595 90.942 29.442L92.0626 28.3213L93.6788 29.9376L92.5582 31.0582ZM94.562 29.0532L92.9457 27.437L93.6201 26.7595L95.2407 28.3726L94.562 29.0532Z" fill="white"/>
<path d="M341.503 140.874C341.029 140.403 340.204 140.404 339.735 140.877L338.62 141.996L337.241 143.375H334.375C334.247 143.375 334.122 143.414 334.017 143.488C333.912 143.562 333.832 143.666 333.788 143.786L331.288 150.661C331.205 150.889 331.262 151.145 331.433 151.317L332.683 152.567C332.767 152.651 332.874 152.71 332.99 152.735C333.106 152.761 333.227 152.753 333.339 152.712L340.214 150.212C340.334 150.168 340.439 150.088 340.512 149.983C340.586 149.878 340.625 149.753 340.625 149.625V146.759L342.004 145.379V145.379H342.005L343.125 144.256C343.361 144.019 343.491 143.705 343.491 143.371C343.491 143.037 343.36 142.723 343.123 142.487L341.503 140.874ZM339.558 146.058C339.5 146.116 339.454 146.185 339.423 146.261C339.391 146.337 339.375 146.418 339.375 146.5V149.188L333.594 151.289L336.514 148.37C336.53 148.371 336.546 148.375 336.563 148.375C336.748 148.375 336.929 148.32 337.083 148.217C337.238 148.114 337.358 147.968 337.429 147.796C337.5 147.625 337.518 147.437 337.482 147.255C337.446 147.073 337.357 146.906 337.225 146.775C337.094 146.644 336.927 146.554 336.745 146.518C336.564 146.482 336.375 146.5 336.204 146.571C336.033 146.642 335.886 146.763 335.783 146.917C335.68 147.071 335.625 147.252 335.625 147.438C335.625 147.454 335.629 147.47 335.63 147.486L332.711 150.406L334.813 144.625H337.5C337.666 144.625 337.825 144.559 337.942 144.442L339.063 143.321L340.679 144.938L339.558 146.058ZM341.562 144.053L339.946 142.437L340.62 141.759L342.241 143.373L341.562 144.053Z" fill="white"/>
<defs>
<filter id="filter0_d_615_42726" x="170.535" y="302.32" width="175.571" height="57.7141" filterUnits="userSpaceOnUse" color-interpolation-filters="sRGB">
<feFlood flood-opacity="0" result="BackgroundImageFix"/>
<feColorMatrix in="SourceAlpha" type="matrix" values="0 0 0 0 0 0 0 0 0 0 0 0 0 0 0 0 0 0 127 0" result="hardAlpha"/>
<feOffset/>
<feGaussianBlur stdDeviation="5"/>
<feColorMatrix type="matrix" values="0 0 0 0 0.847059 0 0 0 0 0.870588 0 0 0 0 0.921569 0 0 0 0.5 0"/>
<feBlend mode="normal" in2="BackgroundImageFix" result="effect1_dropShadow_615_42726"/>
<feBlend mode="normal" in="SourceGraphic" in2="effect1_dropShadow_615_42726" result="shape"/>
</filter>
<filter id="filter1_d_615_42726" x="158.75" y="309.392" width="43.5713" height="43.5713" filterUnits="userSpaceOnUse" color-interpolation-filters="sRGB">
<feFlood flood-opacity="0" result="BackgroundImageFix"/>
<feColorMatrix in="SourceAlpha" type="matrix" values="0 0 0 0 0 0 0 0 0 0 0 0 0 0 0 0 0 0 127 0" result="hardAlpha"/>
<feOffset/>
<feGaussianBlur stdDeviation="5"/>
<feColorMatrix type="matrix" values="0 0 0 0 0.847059 0 0 0 0 0.870588 0 0 0 0 0.921569 0 0 0 0.5 0"/>
<feBlend mode="normal" in2="BackgroundImageFix" result="effect1_dropShadow_615_42726"/>
<feBlend mode="normal" in="SourceGraphic" in2="effect1_dropShadow_615_42726" result="shape"/>
</filter>
<filter id="filter2_d_615_42726" x="79.7856" y="2.96436" width="175.571" height="57.7141" filterUnits="userSpaceOnUse" color-interpolation-filters="sRGB">
<feFlood flood-opacity="0" result="BackgroundImageFix"/>
<feColorMatrix in="SourceAlpha" type="matrix" values="0 0 0 0 0 0 0 0 0 0 0 0 0 0 0 0 0 0 127 0" result="hardAlpha"/>
<feOffset/>
<feGaussianBlur stdDeviation="5"/>
<feColorMatrix type="matrix" values="0 0 0 0 0.847059 0 0 0 0 0.870588 0 0 0 0 0.921569 0 0 0 0.5 0"/>
<feBlend mode="normal" in2="BackgroundImageFix" result="effect1_dropShadow_615_42726"/>
<feBlend mode="normal" in="SourceGraphic" in2="effect1_dropShadow_615_42726" result="shape"/>
</filter>
<filter id="filter3_d_615_42726" x="68" y="10.0356" width="43.5713" height="43.5713" filterUnits="userSpaceOnUse" color-interpolation-filters="sRGB">
<feFlood flood-opacity="0" result="BackgroundImageFix"/>
<feColorMatrix in="SourceAlpha" type="matrix" values="0 0 0 0 0 0 0 0 0 0 0 0 0 0 0 0 0 0 127 0" result="hardAlpha"/>
<feOffset/>
<feGaussianBlur stdDeviation="5"/>
<feColorMatrix type="matrix" values="0 0 0 0 0.847059 0 0 0 0 0.870588 0 0 0 0 0.921569 0 0 0 0.5 0"/>
<feBlend mode="normal" in2="BackgroundImageFix" result="effect1_dropShadow_615_42726"/>
<feBlend mode="normal" in="SourceGraphic" in2="effect1_dropShadow_615_42726" result="shape"/>
</filter>
<filter id="filter4_d_615_42726" x="327.285" y="117.285" width="175.571" height="57.7141" filterUnits="userSpaceOnUse" color-interpolation-filters="sRGB">
<feFlood flood-opacity="0" result="BackgroundImageFix"/>
<feColorMatrix in="SourceAlpha" type="matrix" values="0 0 0 0 0 0 0 0 0 0 0 0 0 0 0 0 0 0 127 0" result="hardAlpha"/>
<feOffset/>
<feGaussianBlur stdDeviation="5"/>
<feColorMatrix type="matrix" values="0 0 0 0 0.847059 0 0 0 0 0.870588 0 0 0 0 0.921569 0 0 0 0.5 0"/>
<feBlend mode="normal" in2="BackgroundImageFix" result="effect1_dropShadow_615_42726"/>
<feBlend mode="normal" in="SourceGraphic" in2="effect1_dropShadow_615_42726" result="shape"/>
</filter>
<filter id="filter5_d_615_42726" x="315.5" y="124.356" width="43.5713" height="43.5713" filterUnits="userSpaceOnUse" color-interpolation-filters="sRGB">
<feFlood flood-opacity="0" result="BackgroundImageFix"/>
<feColorMatrix in="SourceAlpha" type="matrix" values="0 0 0 0 0 0 0 0 0 0 0 0 0 0 0 0 0 0 127 0" result="hardAlpha"/>
<feOffset/>
<feGaussianBlur stdDeviation="5"/>
<feColorMatrix type="matrix" values="0 0 0 0 0.847059 0 0 0 0 0.870588 0 0 0 0 0.921569 0 0 0 0.5 0"/>
<feBlend mode="normal" in2="BackgroundImageFix" result="effect1_dropShadow_615_42726"/>
<feBlend mode="normal" in="SourceGraphic" in2="effect1_dropShadow_615_42726" result="shape"/>
</filter>
</defs>
</svg>
