<svg width="120" height="112" viewBox="0 0 120 112" fill="none" xmlns="http://www.w3.org/2000/svg">
<circle cx="64" cy="56" r="56" fill="#DADCE3"/>
<circle cx="16" cy="16" r="16" fill="#445072"/>
<path d="M15.4957 22.1591C14.6927 22.1591 13.9768 22.0114 13.348 21.7159C12.723 21.4205 12.2268 21.0133 11.8594 20.4943C11.492 19.9754 11.3007 19.3807 11.2855 18.7102H13.6719C13.6984 19.161 13.8878 19.5265 14.2401 19.8068C14.5923 20.0871 15.0109 20.2273 15.4957 20.2273C15.8821 20.2273 16.223 20.142 16.5185 19.9716C16.8177 19.7973 17.0507 19.5568 17.2173 19.25C17.3878 18.9394 17.473 18.5833 17.473 18.1818C17.473 17.7727 17.3859 17.4129 17.2116 17.1023C17.0412 16.7917 16.8045 16.5492 16.5014 16.375C16.1984 16.2008 15.8518 16.1117 15.4616 16.108C15.1207 16.108 14.7893 16.178 14.4673 16.3182C14.1491 16.4583 13.901 16.6496 13.723 16.892L11.5355 16.5L12.0866 10.3636H19.2003V12.375H14.1151L13.8139 15.2898H13.8821C14.0866 15.0019 14.3954 14.7633 14.8082 14.5739C15.2211 14.3845 15.6832 14.2898 16.1946 14.2898C16.8954 14.2898 17.5204 14.4545 18.0696 14.7841C18.6188 15.1136 19.0526 15.5663 19.3707 16.142C19.6889 16.714 19.8461 17.3731 19.8423 18.1193C19.8461 18.9034 19.6643 19.6004 19.2969 20.2102C18.9332 20.8163 18.4238 21.2936 17.7685 21.642C17.117 21.9867 16.3594 22.1591 15.4957 22.1591Z" fill="white"/>
<path d="M62.3568 30.0508H57.293V33.0892C57.293 33.6483 57.7464 34.1017 58.3059 34.1017H65.3952C65.9543 34.1017 66.4077 33.6483 66.4077 33.0892V31.0637C66.4077 30.5042 65.9543 30.0508 65.3952 30.0508H62.3568Z" fill="#F5F6F8"/>
<path d="M54.2551 27.0129H61.344C61.9035 27.0129 62.3569 27.4663 62.3569 28.0254V30.0509C62.3569 30.6104 61.9035 31.0638 61.344 31.0638H53.2422V28.0254C53.2422 27.4663 53.6956 27.0129 54.2551 27.0129Z" fill="white"/>
<path d="M53.2417 38.1526C47.0894 38.1526 42.1016 43.1404 42.1016 49.2928H55.0813C57.2477 46.8742 60.1308 45.2113 63.3092 44.5474C61.4747 40.6458 57.5527 38.1549 53.2417 38.1526Z" fill="white"/>
<path d="M48.1787 53.3436H53.7488V63.4713H48.1787V53.3436Z" fill="#F5F6F8"/>
<path d="M40.0767 53.3436H44.1276V63.4713H40.0767V53.3436Z" fill="#F5F6F8"/>
<path d="M59.0544 46.1264C58.5667 42.833 57.1811 38.1526 53.2424 38.1526C47.166 38.1526 47.166 49.2928 47.166 49.2928H59.0544V46.1264Z" fill="#F5F6F8"/>
<path d="M51.763 63.4713H39.0642C38.5047 63.4713 38.0513 63.9247 38.0513 64.4838V66.5093C38.0513 67.0688 38.5047 67.5222 39.0642 67.5222H53.5557C52.7621 66.2673 52.158 64.9024 51.763 63.4713Z" fill="white"/>
<path d="M55.0819 49.2927H39.0642C38.5047 49.2927 38.0513 49.7461 38.0513 50.3057V52.3311C38.0513 52.8902 38.5047 53.3436 39.0642 53.3436H52.4811C53.126 51.8634 54.004 50.4958 55.0819 49.2927Z" fill="white"/>
<path d="M44.1274 53.3436H48.1783V63.4713H44.1274V53.3436Z" fill="white"/>
<path d="M81.5989 59.4205C81.5957 67.8088 74.7966 74.6083 66.4079 74.6116C65.9104 74.6153 65.4134 74.5884 64.9192 74.5304C64.8989 74.5304 64.8785 74.5406 64.8585 74.5304C57.1091 73.7368 51.2163 67.2098 51.2163 59.4205C51.2163 51.6307 57.1091 45.1038 64.8585 44.3101C64.8785 44.3003 64.8989 44.3101 64.9192 44.3101C65.4134 44.2526 65.9104 44.2252 66.4079 44.2294C74.7966 44.2322 81.5957 51.0317 81.5989 59.4205Z" fill="#A2A8B9"/>
<path d="M78.5605 59.4204C78.5545 67.2074 72.665 73.7307 64.9192 74.5304C64.8988 74.5304 64.8785 74.5406 64.8585 74.5304C57.1091 73.7367 51.2163 67.2097 51.2163 59.4204C51.2163 51.6306 57.1091 45.1037 64.8585 44.31C64.8785 44.3003 64.8988 44.31 64.9192 44.31C72.665 45.1097 78.5545 51.6329 78.5605 59.4204Z" fill="#A2A8B9"/>
<path d="M77.548 59.4204C77.5498 62.3754 76.3764 65.2098 74.287 67.2992C72.1976 69.3891 69.3627 70.562 66.4078 70.5601C65.8992 70.5643 65.3911 70.5272 64.8886 70.4489C59.376 69.6937 55.2676 64.9845 55.2676 59.4204C55.2676 53.8563 59.376 49.1467 64.8886 48.3915C65.3911 48.3136 65.8992 48.276 66.4078 48.2802C69.3627 48.2784 72.1976 49.4517 74.287 51.5411C76.3764 53.6306 77.5498 56.465 77.548 59.4204Z" fill="#F5F6F8"/>
<path d="M74.5096 59.4204C74.5096 53.3292 70.2023 48.3915 64.8886 48.3915C59.5753 48.3915 55.2676 53.3292 55.2676 59.4204C55.2676 65.5111 59.5753 70.4489 64.8886 70.4489C70.2023 70.4489 74.5096 65.5111 74.5096 59.4204Z" fill="white"/>
<path d="M87.8473 75.5531L83.553 79.8474L81.4061 77.7C81.2165 77.5109 81.1099 77.2541 81.1099 76.9861C81.1099 76.7181 81.2165 76.4613 81.4061 76.2722L84.272 73.4062C84.4612 73.2166 84.718 73.11 84.986 73.11C85.2539 73.11 85.5108 73.2166 85.6999 73.4062L87.8473 75.5531Z" fill="#F5F6F8"/>
<path d="M85.3457 77.0417L83.0468 79.3406L81.4061 77.7C81.2165 77.5108 81.1099 77.254 81.1099 76.986C81.1099 76.7181 81.2165 76.4613 81.4061 76.2721L82.9554 74.7228C83.0463 74.765 83.1288 74.8229 83.1988 74.8948L85.3457 77.0417Z" fill="white"/>
<path d="M92.8608 84.8604C91.674 86.0439 89.7534 86.0439 88.567 84.8604L83.5537 79.8475L87.848 75.5532L92.8608 80.5665C94.0458 81.7524 94.0458 83.674 92.8608 84.8604Z" fill="#A2A8B9"/>
<path d="M91.3013 85.6905C90.3083 85.8889 89.2819 85.5774 88.567 84.8602L83.5537 79.8474L85.8629 77.5382L90.6634 82.3387C91.5442 83.2191 91.7969 84.5482 91.3013 85.6905Z" fill="#A2A8B9"/>
<path d="M78.5396 73.4039L81.4041 70.5393L84.2687 73.4039L81.4041 76.2684L78.5396 73.4039Z" fill="white"/>
<path d="M81.4043 69.1068L79.479 67.1635C78.4349 68.9237 77.0469 70.455 75.3975 71.6664L77.1077 73.4039C77.2977 73.5935 77.555 73.7006 77.8239 73.7006C78.0923 73.7006 78.3501 73.5935 78.5402 73.4039L81.4043 70.5394C81.5943 70.3493 81.701 70.092 81.701 69.8231C81.701 69.5547 81.5943 69.2969 81.4043 69.1068Z" fill="#F5F6F8"/>
<path d="M76.535 27.0129H92.739C93.2981 27.0129 93.7515 27.4663 93.7515 28.0254V42.204C93.7515 42.7631 93.2981 43.2165 92.739 43.2165H76.535C75.9759 43.2165 75.5225 42.7631 75.5225 42.204V28.0254C75.5225 27.4663 75.9759 27.0129 76.535 27.0129Z" fill="#F5F6F8"/>
<path d="M76.535 27.0129H89.7006C90.2601 27.0129 90.7135 27.4663 90.7135 28.0254V42.204C90.7135 42.7631 90.2601 43.2165 89.7006 43.2165H76.535C75.9759 43.2165 75.5225 42.7631 75.5225 42.204V28.0254C75.5225 27.4663 75.9759 27.0129 76.535 27.0129Z" fill="white"/>
<path d="M71.4715 57.395C71.4705 60.191 69.204 62.4575 66.4076 62.4584C65.8935 62.457 65.3817 62.3819 64.8884 62.2359C62.7781 61.5674 61.3442 59.6087 61.3442 57.395C61.3442 55.1809 62.7781 53.2227 64.8884 52.5537C65.3817 52.4077 65.8935 52.3326 66.4076 52.3312C69.204 52.3321 71.4705 54.5986 71.4715 57.395Z" fill="#F5F6F8"/>
<path d="M68.433 57.395C68.433 54.7215 66.8462 52.5537 64.8884 52.5537C62.9311 52.5537 61.3438 54.7215 61.3438 57.395C61.3438 60.0686 62.9311 62.2359 64.8884 62.2359C66.8462 62.2359 68.433 60.0686 68.433 57.395Z" fill="white"/>
<path d="M74.5199 67.0462C73.1977 68.4578 71.5288 69.4981 69.679 70.0642C68.6202 70.3947 67.5173 70.5621 66.4079 70.5602C63.3342 70.5621 60.3969 69.29 58.2959 67.0462L58.3061 64.4839C58.308 63.4097 58.734 62.3801 59.491 61.6179C59.562 61.547 59.6426 61.4761 59.7238 61.4051C60.4567 60.7765 61.3913 60.4316 62.357 60.433C62.6273 60.7941 62.9476 61.1149 63.3088 61.3852C65.4487 63.0662 68.5376 62.7384 70.2766 60.6458C70.3429 60.5799 70.4041 60.509 70.4588 60.433C71.5334 60.4325 72.564 60.8595 73.3238 61.6193C74.0836 62.3792 74.5101 63.4097 74.5097 64.4839L74.5199 67.0462Z" fill="#F5F6F8"/>
<path d="M71.6743 68.1096C71.0735 68.8236 70.405 69.4782 69.679 70.0641C68.6202 70.3947 67.5173 70.562 66.4079 70.5602C63.3342 70.562 60.3969 69.2899 58.2959 67.0461L58.3061 64.4839C58.308 63.4097 58.734 62.3801 59.491 61.6179C59.562 61.547 59.6426 61.4761 59.7238 61.4051C60.2894 61.5919 60.8804 61.6879 61.4757 61.6888C62.0992 61.687 62.7181 61.5841 63.3088 61.3852C65.4487 63.0662 68.5376 62.7384 70.2766 60.6458C71.1792 61.7352 71.6674 63.1093 71.6539 64.5247L71.6743 68.1096Z" fill="white"/>
<path d="M49.1908 78.6624C49.1922 80.5428 48.4458 82.3466 47.1158 83.6767C45.7862 85.0062 43.9823 85.7526 42.1015 85.7512C41.5911 85.7499 41.0821 85.6956 40.5823 85.5895C37.3297 84.8746 35.0127 81.9924 35.0127 78.6624C35.0127 75.3319 37.3297 72.4502 40.5823 71.7354C41.0821 71.6292 41.5911 71.575 42.1015 71.5731C43.9823 71.5717 45.7862 72.3181 47.1158 73.6482C48.4458 74.9778 49.1922 76.7816 49.1908 78.6624Z" fill="#F5F6F8"/>
<path d="M46.1524 78.6624C46.1529 81.9929 43.8354 84.8746 40.5823 85.5894C37.3297 84.8746 35.0127 81.9924 35.0127 78.6624C35.0127 75.3319 37.3297 72.4502 40.5823 71.7354C43.8354 72.4498 46.1529 75.3319 46.1524 78.6624Z" fill="white"/>
<path d="M49.1909 78.6624C49.1955 80.5432 48.4482 82.3485 47.1149 83.6753L42.1016 78.6624V71.5731C43.9824 71.5717 45.7862 72.3181 47.1158 73.6482C48.4459 74.9778 49.1922 76.7816 49.1909 78.6624Z" fill="#A2A8B9"/>
<path d="M46.1525 78.6625C46.1557 79.7969 45.8845 80.9155 45.3625 81.9234L42.1016 78.6625V72.2616C44.579 73.4289 46.158 75.9235 46.1525 78.6625Z" fill="#A2A8B9"/>
<path d="M54.2551 27.0129C53.6956 27.0129 53.2422 27.4663 53.2422 28.0254V31.0638H56.2806V28.0254" fill="white"/>
<path d="M38.0509 68.5347C37.4918 68.5347 37.0384 68.0813 37.0384 67.5222C37.0384 66.9627 37.4918 66.5093 38.0509 66.5093H35.013C34.4534 66.5093 34 66.9627 34 67.5222C34 68.0813 34.4534 68.5347 35.013 68.5347H38.0509Z" fill="white"/>
<path d="M38.0506 78.6624C38.0506 75.3352 40.3635 72.4553 43.6124 71.7377C43.1163 71.6292 42.6096 71.574 42.1015 71.5731C41.5911 71.575 41.0821 71.6292 40.5823 71.7354C37.3297 72.4502 35.0127 75.3319 35.0127 78.6624C35.0127 81.9924 37.3297 84.8746 40.5823 85.5894C41.0821 85.6956 41.5911 85.7499 42.1015 85.7512C42.6096 85.7508 43.1163 85.6956 43.6124 85.5867C40.3635 84.869 38.0506 81.9892 38.0506 78.6624Z" fill="white"/>
<path d="M41.0897 64.4838C41.0897 63.9247 41.5431 63.4713 42.1022 63.4713H43.1151V53.3436H42.1022C41.5431 53.3436 41.0897 52.8902 41.0897 52.3311V50.3057C41.0897 49.7461 41.5431 49.2927 42.1022 49.2927H39.0642C38.5047 49.2927 38.0513 49.7461 38.0513 50.3057V52.3311C38.0513 52.8902 38.5047 53.3436 39.0642 53.3436H40.0767V63.4713H39.0642C38.5047 63.4713 38.0513 63.9247 38.0513 64.4838V66.5093H41.0897V64.4838Z" fill="white"/>
<path d="M54.7939 38.2634C51.5997 37.8095 48.3657 38.765 45.9304 40.8813C43.4951 42.9976 42.0983 46.0666 42.1016 49.2928H45.14C45.1428 43.7176 49.2683 39.0042 54.7939 38.2634Z" fill="white"/>
<path d="M44.1278 64.484H40.0769C39.5178 64.484 39.0645 64.0306 39.0645 63.4715V53.3438C39.0645 52.7847 39.5178 52.3313 40.0769 52.3313H44.1278C44.6874 52.3313 45.1408 52.7847 45.1408 53.3438V63.4715C45.1408 64.0306 44.6874 64.484 44.1278 64.484ZM41.0899 62.4585H43.1153V54.3567H41.0899V62.4585Z" fill="#36405B"/>
<path d="M48.179 64.484C47.6199 64.484 47.1665 64.0306 47.1665 63.4715V53.3438C47.1665 52.7847 47.6199 52.3313 48.179 52.3313C48.7386 52.3313 49.192 52.7847 49.192 53.3438V63.4715C49.192 64.0306 48.7386 64.484 48.179 64.484Z" fill="#36405B"/>
<path d="M62.3567 32.0763H53.242C52.6829 32.0763 52.2295 31.6229 52.2295 31.0638V27.013C52.2295 26.4534 52.6829 26 53.242 26H62.3567C62.9158 26 63.3692 26.4534 63.3692 27.013V31.0638C63.3692 31.6229 62.9158 32.0763 62.3567 32.0763ZM54.2549 30.0509H61.3438V28.0254H54.2549V30.0509Z" fill="#36405B"/>
<path d="M66.408 35.1148H57.2933C56.7342 35.1148 56.2808 34.6614 56.2808 34.1018V31.0639C56.2808 30.5043 56.7342 30.0509 57.2933 30.0509H61.3441C61.3441 29.4918 61.7975 29.0385 62.3571 29.0385H66.408C66.9676 29.0385 67.4209 29.4918 67.4209 30.0509V34.1018C67.4209 34.6614 66.9676 35.1148 66.408 35.1148ZM58.3062 33.0893H65.3955V31.0639H63.3696C63.3696 31.623 62.9162 32.0764 62.3571 32.0764H58.3062V33.0893Z" fill="#36405B"/>
<path d="M53.242 39.1656C52.6829 39.1656 52.2295 38.7122 52.2295 38.1527V31.0639C52.2295 30.5043 52.6829 30.0509 53.242 30.0509C53.8015 30.0509 54.2549 30.5043 54.2549 31.0639V38.1527C54.2549 38.7122 53.8015 39.1656 53.242 39.1656Z" fill="#36405B"/>
<path d="M47.1663 50.3058C46.6067 50.3058 46.1533 49.8524 46.1533 49.2928C46.1533 48.7968 46.2335 37.1401 53.2426 37.1401C53.8022 37.1401 54.2556 37.5935 54.2556 38.1526C54.2556 38.7122 53.8022 39.1656 53.2426 39.1656C48.3165 39.1656 48.1788 49.1918 48.1788 49.2928C48.1788 49.8524 47.7254 50.3058 47.1663 50.3058Z" fill="#36405B"/>
<path d="M59.0522 47.139C58.5506 47.1385 58.125 46.7709 58.0518 46.2743C57.6591 43.6189 56.5131 39.1656 53.242 39.1656C52.6829 39.1656 52.2295 38.7122 52.2295 38.1526C52.2295 37.5935 52.6829 37.1401 53.242 37.1401C56.7936 37.1401 59.2136 40.2796 60.0554 45.9776C60.137 46.5312 59.755 47.0462 59.202 47.1278C59.1524 47.1348 59.1023 47.1385 59.0522 47.139Z" fill="#36405B"/>
<path d="M53.242 50.3058C52.6829 50.3058 52.2295 49.8524 52.2295 49.2928V38.1526C52.2295 37.5935 52.6829 37.1401 53.242 37.1401C53.8015 37.1401 54.2549 37.5935 54.2549 38.1526V49.2928C54.2549 49.8524 53.8015 50.3058 53.242 50.3058Z" fill="#36405B"/>
<path d="M53.5563 68.5348H35.0134C34.4539 68.5348 34.0005 68.0814 34.0005 67.5224C34.0005 66.9628 34.4539 66.5094 35.0134 66.5094H53.5563C54.1159 66.5094 54.5693 66.9628 54.5693 67.5224C54.5693 68.0814 54.1159 68.5348 53.5563 68.5348Z" fill="#36405B"/>
<path d="M66.4082 75.6242C57.4589 75.6242 50.2046 68.3694 50.2046 59.4206C50.2046 50.4714 57.4589 43.2166 66.4082 43.2166C75.3574 43.2166 82.6122 50.4714 82.6122 59.4206C82.602 68.3652 75.3532 75.614 66.4082 75.6242ZM66.4082 45.242C58.5776 45.242 52.23 51.59 52.23 59.4206C52.23 67.2507 58.5776 73.5987 66.4082 73.5987C74.2387 73.5987 80.5867 67.2507 80.5867 59.4206C80.5779 51.5937 74.235 45.2508 66.4082 45.242Z" fill="#36405B"/>
<path d="M66.408 71.5733C59.6961 71.5733 54.2554 66.1321 54.2554 59.4206C54.2554 52.7087 59.6961 47.2675 66.408 47.2675C73.12 47.2675 78.5607 52.7087 78.5607 59.4206C78.5538 66.1293 73.1167 71.5659 66.408 71.5733ZM66.408 49.2929C60.8148 49.2929 56.2808 53.8273 56.2808 59.4206C56.2808 65.0134 60.8148 69.5478 66.408 69.5478C72.0013 69.5478 76.5353 65.0134 76.5353 59.4206C76.5288 53.8301 71.9985 49.2994 66.408 49.2929Z" fill="#36405B"/>
<path d="M90.7138 86.7642C89.6388 86.7675 88.6073 86.3401 87.8497 85.5774L80.6881 78.4158C80.3084 78.0361 80.0947 77.5211 80.0947 76.9838C80.0947 76.4469 80.3084 75.9314 80.6881 75.5517L83.5522 72.6876C83.9314 72.3066 84.447 72.0929 84.9847 72.0942H84.9866C85.5239 72.0929 86.0394 72.307 86.4177 72.6886L93.5775 79.8488C94.3373 80.6082 94.7643 81.6387 94.7643 82.7129C94.7643 83.7875 94.3373 84.8176 93.5775 85.577C92.8199 86.3396 91.7889 86.767 90.7138 86.7642ZM84.9847 74.1197L82.1202 76.9842L89.2818 84.1454C90.0829 84.9108 91.3448 84.9108 92.1459 84.1454C92.526 83.7657 92.7393 83.2507 92.7393 82.7134C92.7393 82.176 92.526 81.661 92.1459 81.2813L84.9847 74.1197Z" fill="#36405B"/>
<path d="M81.4044 77.2806C81.1355 77.2811 80.8777 77.1744 80.6881 76.9844L77.824 74.1198C77.634 73.9302 77.5273 73.6724 77.5273 73.404C77.5273 73.1351 77.634 72.8778 77.824 72.6878L80.6881 69.8237C80.8782 69.6336 81.1355 69.527 81.4044 69.527C81.6728 69.527 81.9306 69.6336 82.1202 69.8237L84.9847 72.6878C85.3797 73.0832 85.3797 73.7244 84.9847 74.1198L82.1202 76.9844C81.9306 77.1744 81.6728 77.2811 81.4044 77.2806ZM79.9723 73.404L81.4044 74.8361L82.8364 73.404L81.4044 71.972L79.9723 73.404Z" fill="#36405B"/>
<path d="M83.5526 80.8619C83.1433 80.8619 82.7738 80.6152 82.6171 80.2369C82.4604 79.8582 82.5471 79.4229 82.8368 79.1331L87.1339 74.8361C87.5312 74.4508 88.164 74.4555 88.5553 74.8467C88.9466 75.238 88.9512 75.8708 88.566 76.2681L84.2689 80.5652C84.0793 80.7557 83.8215 80.8623 83.5526 80.8619Z" fill="#36405B"/>
<path d="M77.8238 74.7128C77.2864 74.7137 76.7714 74.5005 76.3917 74.1203L74.6759 72.3763C74.4692 72.1667 74.3644 71.8779 74.3881 71.5845C74.4117 71.2915 74.5619 71.0231 74.7993 70.8492C76.3402 69.7204 77.636 68.2906 78.6091 66.6467C78.769 66.3774 79.0449 66.1975 79.3555 66.159C79.6665 66.1205 79.9776 66.2286 80.1983 66.4506L82.1241 68.394C82.9112 69.1863 82.9099 70.4658 82.1208 71.2562L79.2567 74.1203C78.877 74.5005 78.3611 74.7137 77.8238 74.7128ZM76.9123 71.7606L77.8302 72.6943L80.6892 69.8242L80.6865 69.8205L79.6448 68.7691C78.8641 69.8775 77.9457 70.8826 76.9119 71.7602L76.9123 71.7606Z" fill="#36405B"/>
<path d="M53.5565 68.5348H39.0645C37.9463 68.5334 37.0405 67.6276 37.0391 66.5094V64.4839C37.0405 63.3662 37.9463 62.4599 39.0645 62.4585H51.7633C52.2186 62.4585 52.6182 62.7622 52.7392 63.2012C53.1082 64.5363 53.6719 65.8103 54.4118 66.9813C54.6088 67.2933 54.6209 67.6874 54.4429 68.0105C54.2649 68.3336 53.9255 68.5348 53.5565 68.5348ZM39.0645 64.4839V66.5094H51.8333C51.5139 65.8539 51.2394 65.177 51.0114 64.4839H39.0645Z" fill="#36405B"/>
<path d="M52.4809 54.3567H39.0645C37.9463 54.3553 37.0405 53.449 37.0391 52.3313V50.3058C37.0405 49.1877 37.9463 48.2818 39.0645 48.2804H55.0822C55.4818 48.2804 55.8443 48.5154 56.0071 48.8803C56.1698 49.2456 56.103 49.6721 55.836 49.9697C54.83 51.0916 54.0108 52.3679 53.4091 53.749C53.2477 54.118 52.8838 54.3567 52.4809 54.3567ZM39.0645 50.3058V52.3313H51.8333C52.175 51.6285 52.5672 50.9516 53.0062 50.3058H39.0645Z" fill="#36405B"/>
<path d="M55.0816 50.3058H42.1018C41.5428 50.3058 41.0894 49.8524 41.0894 49.2928C41.0861 43.6045 45.0313 38.6756 50.5824 37.4336C56.1335 36.1912 61.8032 38.9681 64.2251 44.1154C64.3572 44.3963 64.3535 44.7218 64.2149 44.9995C64.0767 45.2772 63.8185 45.4765 63.5148 45.5396C60.5501 46.1645 57.8604 47.7157 55.8354 49.9697C55.643 50.1834 55.369 50.3058 55.0816 50.3058ZM43.1653 48.2803H54.6384C56.6003 46.2187 59.0662 44.7046 61.7921 43.8868C59.4876 40.2323 55.1163 38.4442 50.9111 39.4359C46.7053 40.428 43.5942 43.9809 43.1653 48.2803Z" fill="#36405B"/>
<path d="M92.7397 44.2295H76.5357C75.418 44.2276 74.5121 43.3218 74.5103 42.204V28.0254C74.5121 26.9073 75.418 26.0014 76.5357 26H92.7397C93.8579 26.0014 94.7638 26.9073 94.7652 28.0254V42.204C94.7638 43.3218 93.8579 44.2276 92.7397 44.2295ZM76.5357 28.0254V42.204H92.7416L92.7397 28.0254H76.5357Z" fill="#36405B"/>
<path d="M81.0775 55.2548C80.6412 55.2552 80.2541 54.9761 80.116 54.5626C79.9783 54.1491 80.1201 53.6934 80.4692 53.4319L82.0899 52.2173C82.3788 51.9906 82.7677 51.9382 83.1061 52.0801C83.445 52.2219 83.6801 52.5358 83.7213 52.9006C83.7626 53.2655 83.6031 53.6238 83.3046 53.8376L81.6834 55.0522C81.5086 55.1834 81.2963 55.2548 81.0775 55.2548ZM85.9383 51.6091C85.5025 51.6091 85.1154 51.3304 84.9772 50.9169C84.8391 50.5029 84.9814 50.0477 85.33 49.7857L86.2591 49.0899C86.3754 49.0027 86.4714 48.8919 86.5409 48.7644C86.7129 48.4436 87.0439 48.2396 87.4074 48.2308C87.7713 48.2216 88.112 48.4084 88.3003 48.7199C88.4885 49.0315 88.4945 49.42 88.317 49.7375C88.1083 50.12 87.8195 50.4524 87.4704 50.7125L86.5446 51.406C86.3699 51.5377 86.1571 51.6091 85.9383 51.6095V51.6091ZM87.6758 46.255C87.1167 46.255 86.6633 45.8016 86.6633 45.242V43.2166C86.6633 42.6575 87.1167 42.2041 87.6758 42.2041C88.2354 42.2041 88.6888 42.6575 88.6888 43.2166V45.242C88.6888 45.8016 88.2354 46.255 87.6758 46.255Z" fill="#36405B"/>
<path d="M86.6628 32.0763H79.5735C79.0144 32.0763 78.5605 31.623 78.5605 31.0639C78.5605 30.5043 79.0144 30.0509 79.5735 30.0509H86.6628C87.2219 30.0509 87.6753 30.5043 87.6753 31.0639C87.6753 31.623 87.2219 32.0763 86.6628 32.0763Z" fill="#36405B"/>
<path d="M89.7007 36.1273H79.5735C79.0144 36.1273 78.5605 35.6739 78.5605 35.1148C78.5605 34.5552 79.0144 34.1018 79.5735 34.1018H89.7007C90.2603 34.1018 90.7137 34.5552 90.7137 35.1148C90.7137 35.6739 90.2603 36.1273 89.7007 36.1273Z" fill="#36405B"/>
<path d="M83.6244 40.178H79.5735C79.0144 40.178 78.5605 39.7246 78.5605 39.1655C78.5605 38.606 79.0144 38.1526 79.5735 38.1526H83.6244C84.184 38.1526 84.6373 38.606 84.6373 39.1655C84.6373 39.7246 84.184 40.178 83.6244 40.178Z" fill="#36405B"/>
<path d="M66.4084 63.4714C63.0524 63.4714 60.332 60.7505 60.332 57.395C60.332 54.0391 63.0524 51.3182 66.4084 51.3182C69.7643 51.3182 72.4847 54.0391 72.4847 57.395C72.481 60.7491 69.7629 63.4677 66.4084 63.4714ZM66.4084 53.3437C64.1711 53.3437 62.3575 55.1577 62.3575 57.395C62.3575 59.6319 64.1711 61.4459 66.4084 61.4459C68.6457 61.4459 70.4593 59.6319 70.4593 57.395C70.4574 55.1587 68.6448 53.346 66.4084 53.3437Z" fill="#36405B"/>
<path d="M66.408 67.5224C65.8489 67.5224 65.3955 67.069 65.3955 66.5094V62.4585C65.3955 61.8994 65.8489 61.446 66.408 61.446C66.9676 61.446 67.421 61.8994 67.421 62.4585V66.5094C67.421 67.069 66.9676 67.5224 66.408 67.5224Z" fill="#36405B"/>
<path d="M66.4084 71.5732C63.0576 71.5658 59.8565 70.182 57.5561 67.7448C57.3772 67.5557 57.2784 67.3049 57.2798 67.0448L57.2937 64.4779C57.2997 61.6847 59.5644 59.4229 62.3576 59.4205C62.6751 59.4205 62.9741 59.5693 63.1656 59.8229C63.9305 60.8447 65.1322 61.446 66.4084 61.446C67.6847 61.446 68.8864 60.8447 69.6513 59.8229C69.8428 59.5693 70.1418 59.4205 70.4593 59.4205C73.2539 59.4233 75.5186 61.687 75.5232 64.4811L75.538 67.0444C75.5399 67.3049 75.4411 67.5557 75.2622 67.7448C72.9609 70.181 69.7598 71.5653 66.4084 71.5732ZM59.3076 66.6392C63.2477 70.5171 69.5702 70.5171 73.5107 66.6392L73.4977 64.4899V64.4839C73.4959 62.9786 72.3935 61.701 70.9049 61.4784C69.7542 62.7473 68.121 63.4714 66.408 63.4714C64.695 63.4714 63.0618 62.7473 61.9111 61.4784C60.423 61.7014 59.321 62.9791 59.3192 64.4839L59.3076 66.6392Z" fill="#36405B"/>
<path d="M63.5148 79.675H61.4894C60.9298 79.675 60.4764 79.2216 60.4764 78.6625C60.4764 78.1029 60.9298 77.6495 61.4894 77.6495H63.5148C64.0739 77.6495 64.5278 78.1029 64.5278 78.6625C64.5278 79.2216 64.0739 79.675 63.5148 79.675ZM57.4385 79.675H55.413C54.8535 79.675 54.4001 79.2216 54.4001 78.6625C54.4001 78.1029 54.8535 77.6495 55.413 77.6495H57.4385C57.9976 77.6495 58.451 78.1029 58.451 78.6625C58.451 79.2216 57.9976 79.675 57.4385 79.675ZM51.3621 79.675H49.3367C48.7771 79.675 48.3237 79.2216 48.3237 78.6625C48.3237 78.1029 48.7771 77.6495 49.3367 77.6495H51.3621C51.9212 77.6495 52.3746 78.1029 52.3746 78.6625C52.3746 79.2216 51.9212 79.675 51.3621 79.675ZM66.4086 77.6495C65.8495 77.6495 65.3961 77.1961 65.3961 76.637V74.6116C65.3961 74.052 65.8495 73.5986 66.4086 73.5986C66.9681 73.5986 67.4215 74.052 67.4215 74.6116V76.637C67.4215 77.1961 66.9681 77.6495 66.4086 77.6495Z" fill="#36405B"/>
<path d="M42.1018 86.7642C37.6272 86.7642 34 83.137 34 78.6624C34 74.1878 37.6272 70.5602 42.1018 70.5602V72.5861C38.7458 72.5861 36.0254 75.3065 36.0254 78.6624C36.0254 82.0184 38.7458 84.7388 42.1018 84.7388V86.7642Z" fill="white"/>
<path d="M37.4615 84.0132C37.2779 84.2325 37.2004 84.5218 37.251 84.8032C37.301 85.0846 37.473 85.3293 37.7211 85.4717C39.0293 86.3098 40.5485 86.7581 42.102 86.7642V84.7387C40.9379 84.7332 39.7989 84.3971 38.8184 83.7693C38.3655 83.5185 37.7989 83.6205 37.4615 84.0132Z" fill="#36405B"/>
<path d="M42.1018 72.5861V70.5602C38.5136 70.5699 35.3561 72.9315 34.3334 76.3713C34.2249 76.7418 34.1438 77.1196 34.0914 77.5025C34.0357 77.7816 34.1062 78.0709 34.2838 78.2929C34.4613 78.5155 34.7284 78.6476 35.013 78.655C35.5336 78.661 35.9865 78.2994 36.0964 77.7909C36.1349 77.5039 36.1952 77.2206 36.2768 76.9434C37.0496 74.3681 39.4134 72.6 42.1018 72.5861Z" fill="#36405B"/>
<path d="M34.7347 82.0206C34.8566 82.2928 35.0852 82.5028 35.367 82.6006L35.5664 82.6363C35.6355 82.6423 35.705 82.6381 35.7727 82.6238C35.8367 82.6196 35.8997 82.6048 35.9591 82.5797C36.0216 82.5538 36.0824 82.5232 36.1403 82.4889C36.3587 82.34 36.5232 82.1245 36.6081 81.8741C36.6387 81.7568 36.6521 81.6358 36.6489 81.5148C36.6299 81.1556 36.405 80.8389 36.0722 80.7026C35.9493 80.6567 35.8209 80.6289 35.6902 80.6196C35.5594 80.6071 35.4278 80.6187 35.3012 80.6535C35.0393 80.729 34.8232 80.9154 34.7097 81.163C34.6012 81.4402 34.61 81.7499 34.7347 82.0206Z" fill="#36405B"/>
<path d="M42.1023 86.7642C41.5432 86.7642 41.0898 86.3108 41.0898 85.7513C41.0898 85.1922 41.5432 84.7388 42.1023 84.7388C45.4583 84.7388 48.1787 82.0184 48.1787 78.6624C48.1787 75.3065 45.4583 72.5861 42.1023 72.5861C41.5432 72.5861 41.0898 72.1322 41.0898 71.5731C41.0898 71.014 41.5432 70.5602 42.1023 70.5602C46.577 70.5602 50.2046 74.1878 50.2046 78.6624C50.2046 83.137 46.577 86.7642 42.1023 86.7642Z" fill="#36405B"/>
<path d="M47.1147 84.6873C46.8458 84.6878 46.5885 84.5807 46.3989 84.3906L41.3865 79.3782C41.1965 79.1886 41.0898 78.9309 41.0898 78.6624V71.5731C41.0898 71.014 41.5432 70.5602 42.1023 70.5602C42.6619 70.5602 43.1153 71.014 43.1153 71.5731V78.2429L47.8305 82.9586C48.1203 83.2483 48.207 83.6836 48.0503 84.0619C47.8936 84.4407 47.5241 84.6873 47.1147 84.6873Z" fill="#36405B"/>
</svg>
