<svg width="120" height="112" viewBox="0 0 120 112" fill="none" xmlns="http://www.w3.org/2000/svg">
<circle cx="64" cy="56" r="56" fill="#DADCE3"/>
<circle cx="16" cy="16" r="16" fill="#445072"/>
<path d="M15.4787 22.1591C14.6302 22.1591 13.8745 22.0133 13.2116 21.7216C12.5526 21.4261 12.0317 21.0208 11.6491 20.5057C11.2704 19.9867 11.0753 19.3883 11.0639 18.7102H13.5412C13.5563 18.9943 13.6491 19.2443 13.8196 19.4602C13.9938 19.6723 14.2249 19.8371 14.5128 19.9545C14.8007 20.072 15.1245 20.1307 15.4844 20.1307C15.8594 20.1307 16.1908 20.0644 16.4787 19.9318C16.7666 19.7992 16.992 19.6155 17.1548 19.3807C17.3177 19.1458 17.3991 18.875 17.3991 18.5682C17.3991 18.2576 17.312 17.983 17.1378 17.7443C16.9673 17.5019 16.7211 17.3125 16.3991 17.1761C16.081 17.0398 15.7022 16.9716 15.2628 16.9716H14.1776V15.1648H15.2628C15.634 15.1648 15.9616 15.1004 16.2457 14.9716C16.5336 14.8428 16.7571 14.6648 16.9162 14.4375C17.0753 14.2064 17.1548 13.9375 17.1548 13.6307C17.1548 13.339 17.0848 13.0833 16.9446 12.8636C16.8082 12.6402 16.6151 12.4659 16.3651 12.3409C16.1188 12.2159 15.831 12.1534 15.5014 12.1534C15.1681 12.1534 14.8632 12.214 14.5866 12.3352C14.3101 12.4527 14.0885 12.6212 13.9219 12.8409C13.7552 13.0606 13.6662 13.3182 13.6548 13.6136H11.2969C11.3082 12.9432 11.4995 12.3523 11.8707 11.8409C12.242 11.3295 12.742 10.9299 13.3707 10.642C14.0033 10.3504 14.7173 10.2045 15.5128 10.2045C16.3158 10.2045 17.0185 10.3504 17.6207 10.642C18.223 10.9337 18.6908 11.3277 19.0241 11.8239C19.3613 12.3163 19.5279 12.8693 19.5241 13.483C19.5279 14.1345 19.3253 14.678 18.9162 15.1136C18.5109 15.5492 17.9825 15.8258 17.331 15.9432V16.0341C18.187 16.1439 18.8385 16.4413 19.2855 16.9261C19.7363 17.4072 19.9598 18.0095 19.956 18.733C19.9598 19.3958 19.7685 19.9848 19.3821 20.5C18.9995 21.0152 18.4711 21.4205 17.7969 21.7159C17.1226 22.0114 16.3499 22.1591 15.4787 22.1591Z" fill="white"/>
<path d="M78.5608 83.726C78.5574 84.8433 77.6526 85.7482 76.5353 85.7515H52.2296C51.1144 85.7432 50.2124 84.8412 50.2041 83.726C50.2074 82.6088 51.1123 81.7039 52.2296 81.7006H76.5353C77.6505 81.7088 78.5525 82.6108 78.5608 83.726Z" fill="#A2A8B9"/>
<path d="M77.9628 82.2981C77.5876 81.9134 77.0721 81.6977 76.5348 81.7006L73.4966 81.7006C74.6118 81.7089 75.5138 82.6109 75.5221 83.7261C75.5187 84.8433 74.6138 85.7482 73.4966 85.7515H76.5348C77.6521 85.7482 78.5569 84.8433 78.5603 83.7261C78.5631 83.1887 78.3475 82.6733 77.9628 82.2981Z" fill="#A2A8B9"/>
<path d="M93.7515 70.5603V73.5985C93.7482 74.7158 92.8433 75.6207 91.7261 75.624H37.0382C35.9209 75.6207 35.016 74.7158 35.0127 73.5985V70.5603H93.7515Z" fill="#A2A8B9"/>
<path d="M90.7135 70.5603V73.5985C90.7101 74.7158 89.8052 75.6207 88.688 75.624H91.7262C92.8435 75.6207 93.7483 74.7158 93.7517 73.5985V70.5603H90.7135Z" fill="#A2A8B9"/>
<path d="M75.5219 81.7005H53.2417C56.2799 79.675 56.2799 75.624 56.2799 75.624H72.4837C72.4837 75.624 72.4837 79.675 75.5219 81.7005Z" fill="#A2A8B9"/>
<path d="M93.7515 36.1272V70.5603H35.0127V36.1272C35.016 35.0099 35.9209 34.105 37.0382 34.1017H91.7261C92.8433 34.105 93.7482 35.0099 93.7515 36.1272Z" fill="#F5F6F8"/>
<path d="M91.7262 34.1017H88.688C89.8052 34.105 90.7101 35.0099 90.7135 36.1272V70.5603H93.7517V36.1272C93.7483 35.0099 92.8435 34.105 91.7262 34.1017Z" fill="#DADCE3"/>
<path d="M81.5986 37.9805V63.4712C81.5953 64.5884 80.6904 65.4933 79.5732 65.4967H49.191C48.0737 65.4933 47.1689 64.5884 47.1655 63.4712V29.0381C47.1689 27.9208 48.0737 27.0159 49.191 27.0126H70.6307C70.9208 27.0114 71.2077 27.0737 71.4713 27.1949V35.1145C71.4746 36.2318 72.3795 37.1366 73.4967 37.14H81.4164C81.5376 37.4036 81.5998 37.6904 81.5986 37.9805Z" fill="#F5F6F8"/>
<path d="M68.4329 35.1145C68.4362 36.2318 69.3411 37.1367 70.4583 37.14H73.4966C72.3793 37.1367 71.4744 36.2318 71.4711 35.1145V27.1949C71.2075 27.0737 70.9206 27.0115 70.6305 27.0126L67.5923 27.0126C67.8824 27.0115 68.1693 27.0737 68.4329 27.1949V35.1145Z" fill="#F5F6F8"/>
<path d="M81.4166 37.14H78.3783C78.4996 37.4036 78.5618 37.6905 78.5606 37.9806V63.4712C78.5573 64.5885 77.6524 65.4934 76.5352 65.4967H79.5734C80.6906 65.4934 81.5955 64.5885 81.5988 63.4712V37.9806C81.6 37.6905 81.5378 37.4036 81.4166 37.14Z" fill="#DADCE3"/>
<path d="M81.4163 37.14H73.4967C72.3794 37.1367 71.4745 36.2318 71.4712 35.1146V27.1949C71.6936 27.2965 71.896 27.4371 72.0687 27.6102L81.0011 36.5425C81.1741 36.7152 81.3148 36.9176 81.4163 37.14Z" fill="#A2A8B9"/>
<path d="M67.4201 42.2037V46.2547C67.4201 46.814 66.9667 47.2674 66.4074 47.2674H52.229C51.6697 47.2674 51.2163 46.814 51.2163 46.2547L57.2927 39.1655L59.2068 41.0796L62.3564 37.14L67.4201 42.2037Z" fill="white"/>
<path d="M62.3568 37.14L61.0068 38.8282L64.3823 42.2037V46.2547C64.3823 46.814 63.9289 47.2674 63.3696 47.2674H66.4078C66.9671 47.2674 67.4205 46.814 67.4205 46.2547V42.2037L62.3568 37.14Z" fill="#DADCE3"/>
<path d="M67.4201 32.0763V42.2037L62.3564 37.14L59.2068 41.0796L57.2927 39.1655L51.2163 46.2547V32.0763C51.2163 31.517 51.6697 31.0636 52.229 31.0636H66.4074C66.9667 31.0636 67.4201 31.517 67.4201 32.0763Z" fill="white"/>
<path d="M66.4074 31.0636H63.3691C63.9285 31.0636 64.3819 31.517 64.3819 32.0763V39.1655L67.4201 42.2037V32.0763C67.4201 31.517 66.9667 31.0636 66.4074 31.0636Z" fill="#DADCE3"/>
<path d="M60.3317 42.2036L59.2075 41.0795L60.3317 42.2036Z" fill="white"/>
<path d="M53.2423 81.7005H52.2296C51.1123 81.7038 50.2074 82.6087 50.2041 83.7259C50.2124 84.8411 51.1144 85.7431 52.2296 85.7514H55.2678C54.1526 85.7431 53.2506 84.8411 53.2423 83.7259C53.2457 82.6087 54.1505 81.7038 55.2678 81.7005H56.2805C59.3188 79.675 59.3188 75.624 59.3188 75.624H56.2805C56.2805 75.624 56.2805 79.675 53.2423 81.7005Z" fill="white"/>
<path d="M37.0382 75.624H40.0764C38.9591 75.6206 38.0542 74.7157 38.0509 73.5985V36.1272C38.0542 35.0099 38.9591 34.105 40.0764 34.1017H37.0382C35.9209 34.105 35.016 35.0099 35.0127 36.1272V73.5985C35.016 74.7157 35.9209 75.6206 37.0382 75.624Z" fill="white"/>
<path d="M34 36.1273H36.0255V44.2292H34V36.1273Z" fill="white"/>
<path d="M55.2676 36.1274C55.8269 36.1274 56.2804 35.674 56.2804 35.1147C56.2804 34.5553 55.8269 34.1019 55.2676 34.1019C54.7083 34.1019 54.2549 34.5553 54.2549 35.1147C54.2549 35.674 54.7083 36.1274 55.2676 36.1274Z" fill="#36405B"/>
<path d="M35.0334 41.1911C34.4741 41.1939 34.0184 40.7428 34.0156 40.1835C34.0128 39.6241 34.464 39.1684 35.0233 39.1656H35.0334C35.5928 39.1656 36.0462 39.6191 36.0462 40.1784C36.0462 40.7377 35.5928 41.1911 35.0334 41.1911Z" fill="#36405B"/>
<path d="M91.7261 33.0892H78.9798L72.7808 26.8902C72.2074 26.326 71.4372 26.0068 70.6328 26H49.1911C47.5131 26 46.1529 27.3603 46.1529 29.0382V33.0892H37.0382C35.3603 33.0892 34 34.4494 34 36.1274C34 36.6867 34.4534 37.1401 35.0127 37.1401C35.5721 37.1401 36.0255 36.6867 36.0255 36.1274C36.0255 35.5681 36.4789 35.1146 37.0382 35.1146H46.1529V63.4713C46.1529 65.1493 47.5131 66.5095 49.1911 66.5095H79.5732C81.2512 66.5095 82.6115 65.1493 82.6115 63.4713V37.9797C82.5196 36.8361 81.933 35.7896 81.0053 35.1146H91.7261C92.2854 35.1146 92.7388 35.5681 92.7388 36.1274V69.5478H44.1274C43.5681 69.5478 43.1146 70.0012 43.1146 70.5605C43.1146 71.1198 43.5681 71.5732 44.1274 71.5732H92.7388V73.5987C92.7388 74.158 92.2854 74.6115 91.7261 74.6115H37.0382C36.4789 74.6115 36.0255 74.158 36.0255 73.5987V71.5732H40.0764C40.6358 71.5732 41.0892 71.1198 41.0892 70.5605C41.0892 70.0012 40.6358 69.5478 40.0764 69.5478H36.0255V44.2293C36.0255 43.67 35.5721 43.2166 35.0127 43.2166C34.4534 43.2166 34 43.67 34 44.2293V73.5987C34 75.2767 35.3603 76.6369 37.0382 76.6369H55.2543C55.0289 78.2597 54.2023 79.7387 52.9382 80.7811H52.2293C50.6028 80.7811 49.2843 82.0996 49.2843 83.7261C49.2843 85.3526 50.6028 86.6712 52.2293 86.6712H76.535C78.1615 86.6712 79.4801 85.3526 79.4801 83.7261C79.4801 82.0996 78.1615 80.7811 76.535 80.7811H75.8261C74.562 79.7387 73.7354 78.2597 73.51 76.6369H91.7261C93.4041 76.6369 94.7643 75.2767 94.7643 73.5987V36.1274C94.7643 34.4494 93.4041 33.0892 91.7261 33.0892ZM77.8435 34.8169L79.154 36.1274H73.4968C72.9375 36.1274 72.4841 35.674 72.4841 35.1146V29.4575L77.8435 34.8169ZM79.5732 64.4841H49.1911C48.6318 64.4841 48.1783 64.0307 48.1783 63.4713V29.0382C48.1783 28.4789 48.6318 28.0255 49.1911 28.0255H70.4586V35.1146C70.4586 36.7926 71.8188 38.1529 73.4968 38.1529H80.586V63.4713C80.586 64.0307 80.1326 64.4841 79.5732 64.4841ZM77.6419 83.7261C77.6414 84.337 77.146 84.832 76.535 84.832H52.2293C51.8342 84.832 51.4691 84.6212 51.2715 84.2791C51.074 83.9369 51.074 83.5153 51.2715 83.1731C51.4691 82.831 51.8342 82.6202 52.2293 82.6202H76.535C77.146 82.6202 77.6414 83.1152 77.6419 83.7261ZM73.27 80.7811H55.4944C56.3623 79.5518 56.9171 78.1292 57.1107 76.6369H71.6536C71.8472 78.1292 72.4021 79.5518 73.27 80.7811Z" fill="#36405B"/>
<path d="M50.2148 46.3611C50.2711 47.4337 51.155 48.2758 52.2291 48.2802H66.4074C67.5261 48.2802 68.4329 47.3734 68.4329 46.2547V32.0764C68.4329 30.9577 67.5261 30.0509 66.4074 30.0509H52.2291C51.1105 30.0509 50.2036 30.9577 50.2036 32.0764V46.2547V46.3094C50.2036 46.3276 50.2127 46.3438 50.2148 46.3611ZM52.5501 46.2547L57.3505 40.6553L59.615 42.9198C60.0124 43.3036 60.644 43.2981 61.0347 42.9074C61.4253 42.5168 61.4308 41.8851 61.047 41.4878L60.5639 41.0047L62.4405 38.6592L66.4074 42.6241V46.2547H52.5501ZM66.4074 32.0764V39.759L63.0725 36.4241C62.8675 36.2218 62.5874 36.1142 62.2998 36.1273C62.0123 36.1435 61.7453 36.2812 61.5655 36.5061L59.1228 39.5615L58.0088 38.4475C57.8086 38.2496 57.5356 38.143 57.2543 38.1528C56.9724 38.1635 56.7078 38.2912 56.5241 38.5052L52.2291 43.5203V32.0764H66.4074Z" fill="#36405B"/>
<path d="M51.2164 53.344H56.28C56.8394 53.344 57.2928 52.8905 57.2928 52.3312C57.2928 51.7719 56.8394 51.3185 56.28 51.3185H51.2164C50.657 51.3185 50.2036 51.7719 50.2036 52.3312C50.2036 52.8905 50.657 53.344 51.2164 53.344Z" fill="#36405B"/>
<path d="M77.5472 51.3185H60.3306C59.7713 51.3185 59.3179 51.7719 59.3179 52.3312C59.3179 52.8905 59.7713 53.344 60.3306 53.344H77.5472C78.1065 53.344 78.5599 52.8905 78.5599 52.3312C78.5599 51.7719 78.1065 51.3185 77.5472 51.3185Z" fill="#36405B"/>
<path d="M68.4329 55.3694H51.2164C50.657 55.3694 50.2036 55.8228 50.2036 56.3821C50.2036 56.9414 50.657 57.3949 51.2164 57.3949H68.4329C68.9922 57.3949 69.4457 56.9414 69.4457 56.3821C69.4457 55.8228 68.9922 55.3694 68.4329 55.3694Z" fill="#36405B"/>
<path d="M77.5476 55.3694H72.4839C71.9246 55.3694 71.4712 55.8228 71.4712 56.3821C71.4712 56.9414 71.9246 57.3949 72.4839 57.3949H77.5476C78.1069 57.3949 78.5604 56.9414 78.5604 56.3821C78.5604 55.8228 78.1069 55.3694 77.5476 55.3694Z" fill="#36405B"/>
</svg>
