<svg width="120" height="112" viewBox="0 0 120 112" fill="none" xmlns="http://www.w3.org/2000/svg">
<circle cx="64" cy="56" r="56" fill="#DADCE3"/>
<circle cx="16" cy="16" r="16" fill="#445072"/>
<path d="M10.8295 19.9545V18.017L15.6875 10.3636H17.358V13.0455H16.3693L13.3068 17.892V17.983H20.2102V19.9545H10.8295ZM16.4148 22V19.3636L16.4602 18.5057V10.3636H18.767V22H16.4148Z" fill="white"/>
<path d="M93.7527 69.5477V73.4164C93.7747 73.9772 93.5741 74.5239 93.1947 74.9375C92.8153 75.351 92.2878 75.5979 91.7272 75.6242H37.0393C36.4787 75.5979 35.9512 75.351 35.5718 74.9375C35.1924 74.5239 34.9918 73.9772 35.0138 73.4164V69.5477H93.7527Z" fill="#A2A8B9"/>
<path d="M90.7144 69.5477V73.4164C90.7364 73.9772 90.5359 74.5239 90.1565 74.9375C89.7771 75.351 89.2496 75.5979 88.689 75.6242H91.7272C92.2878 75.5979 92.8153 75.351 93.1947 74.9375C93.5741 74.5239 93.7747 73.9772 93.7527 73.4164V69.5477H90.7144Z" fill="#F5F6F8"/>
<path d="M93.7527 35.2969V69.5477H35.0138V35.2969C34.9918 34.7361 35.1924 34.1893 35.5718 33.7758C35.9512 33.3622 36.4787 33.1154 37.0393 33.0891H91.7272C92.2878 33.1154 92.8153 33.3622 93.1947 33.7758C93.5741 34.1893 93.7747 34.7361 93.7527 35.2969Z" fill="#F5F6F8"/>
<path d="M91.7272 33.0891H88.689C89.2496 33.1154 89.7771 33.3622 90.1565 33.7758C90.5359 34.1893 90.7364 34.7361 90.7144 35.2969V69.5477H93.7527V35.2969C93.7747 34.7361 93.5741 34.1893 93.1947 33.7758C92.8153 33.3622 92.2878 33.1154 91.7272 33.0891Z" fill="#DADCE3"/>
<path d="M86.6635 69.5478V39.2366L85.114 29.0383C84.5449 28.4006 83.8474 27.8904 83.0672 27.5414C82.287 27.1923 81.4418 27.0122 80.5871 27.0128H55.2686L42.103 40.1784V69.5478H86.6635Z" fill="#DADCE3"/>
<path d="M86.6637 39.2365V69.5477H83.6255V42.2747L86.6637 39.2365Z" fill="#A2A8B9"/>
<path d="M72.4852 75.6241L75.5234 81.7006H64.3833H53.2432L56.2814 75.6241H72.4852Z" fill="white"/>
<path d="M72.485 75.6241H69.4468L72.485 81.7006H75.5232L72.485 75.6241Z" fill="#F5F6F8"/>
<path d="M79.5741 81.7006H49.192C48.0733 81.7006 47.1665 82.6074 47.1665 83.726C47.1665 84.8447 48.0733 85.7515 49.192 85.7515H79.5741C80.6928 85.7515 81.5996 84.8447 81.5996 83.726C81.5996 82.6074 80.6928 81.7006 79.5741 81.7006Z" fill="white"/>
<path d="M79.5739 81.7006H76.5356C77.0728 81.7006 77.588 81.914 77.9679 82.2938C78.3477 82.6737 78.5611 83.1888 78.5611 83.726C78.5611 84.2632 78.3477 84.7784 77.9679 85.1583C77.588 85.5381 77.0728 85.7515 76.5356 85.7515H79.5739C80.1111 85.7515 80.6262 85.5381 81.0061 85.1583C81.3859 84.7784 81.5993 84.2632 81.5993 83.726C81.5993 83.1888 81.3859 82.6737 81.0061 82.2938C80.6262 81.914 80.1111 81.7006 79.5739 81.7006Z" fill="#F5F6F8"/>
<path d="M42.1025 40.1783H49.1917C50.8033 40.1783 52.3488 39.5381 53.4884 38.3986C54.6279 37.259 55.2681 35.7134 55.2681 34.1019V27.0127L42.1025 40.1783Z" fill="white"/>
<path d="M63.932 60.5273C63.284 61.2649 62.4326 61.7948 61.4845 62.0505C60.5365 62.3061 59.5341 62.2762 58.603 61.9643L56.7801 60.1414C56.4682 59.2103 56.4383 58.2079 56.6939 57.2599C56.9496 56.3119 57.4795 55.4604 58.2172 54.8124L63.932 60.5273Z" fill="white"/>
<path d="M78.0702 46.3986L75.0117 49.4561L69.2837 43.728L78.7862 34.2245L82.3662 37.8055L78.0702 46.3986Z" fill="white"/>
<path d="M82.3663 37.8055L78.7863 34.2244C78.5964 34.0345 78.4897 33.777 78.4897 33.5084C78.4897 33.2399 78.5964 32.9824 78.7863 32.7924L80.9343 30.6444C81.1242 30.4546 81.3817 30.3479 81.6503 30.3479C81.9188 30.3479 82.1764 30.4546 82.3663 30.6444L85.9473 34.2244L88.0954 36.3735C88.2852 36.5634 88.3919 36.8209 88.3919 37.0895C88.3919 37.358 88.2852 37.6156 88.0954 37.8055L85.9473 39.9535L82.3663 37.8055Z" fill="white"/>
<path d="M87.3741 29.9223L88.8061 31.3543C89.3758 31.924 89.6958 32.6967 89.6958 33.5023C89.6958 34.308 89.3758 35.0807 88.8061 35.6504L88.0901 36.3664L82.362 30.6383L83.0781 29.9223C83.6477 29.3526 84.4204 29.0326 85.2261 29.0326C86.0317 29.0326 86.8044 29.3526 87.3741 29.9223Z" fill="white"/>
<path d="M56.587 64.1782C57.7056 64.1782 58.6125 63.2713 58.6125 62.1527C58.6125 61.034 57.7056 60.1272 56.587 60.1272C55.4684 60.1272 54.5615 61.034 54.5615 62.1527C54.5615 63.2713 55.4684 64.1782 56.587 64.1782Z" fill="white"/>
<path d="M85.9424 34.2185L88.0904 36.3665C88.2803 36.5564 88.387 36.814 88.387 37.0825C88.387 37.3511 88.2803 37.6086 88.0904 37.7985L79.4983 46.3906C79.3084 46.5805 79.0509 46.6872 78.7823 46.6872C78.5138 46.6872 78.2562 46.5805 78.0663 46.3906L76.6343 44.9586C76.4444 44.7687 76.3377 44.5111 76.3377 44.2426C76.3377 43.974 76.4444 43.7165 76.6343 43.5266L85.9424 34.2185Z" fill="white"/>
<path d="M74.4873 48.5415L70.1913 44.2455C69.4004 43.4546 68.1181 43.4546 67.3273 44.2455L58.7352 52.8376C57.9443 53.6284 57.9443 54.9107 58.7352 55.7016L63.0312 59.9976C63.8221 60.7885 65.1044 60.7885 65.8953 59.9976L74.4873 51.4056C75.2782 50.6147 75.2782 49.3324 74.4873 48.5415Z" fill="white"/>
<path d="M37.0393 75.6241H40.0775C39.5169 75.5978 38.9894 75.351 38.61 74.9375C38.2306 74.5239 38.0301 73.9772 38.0521 73.4164V35.2969C38.0301 34.7361 38.2306 34.1893 38.61 33.7758C38.9894 33.3622 39.5169 33.1154 40.0775 33.0891H37.0393C36.4787 33.1154 35.9512 33.3622 35.5718 33.7758C35.1924 34.1893 34.9918 34.7361 35.0138 35.2969V73.4164C34.9918 73.9772 35.1924 74.5239 35.5718 74.9375C35.9512 75.351 36.4787 75.5978 37.0393 75.6241Z" fill="white"/>
<path d="M52.2302 81.7006H49.192C48.6548 81.7006 48.1396 81.914 47.7598 82.2938C47.3799 82.6737 47.1665 83.1888 47.1665 83.726C47.1665 84.2632 47.3799 84.7784 47.7598 85.1583C48.1396 85.5381 48.6548 85.7515 49.192 85.7515H52.2302C51.693 85.7515 51.1778 85.5381 50.798 85.1583C50.4181 84.7784 50.2047 84.2632 50.2047 83.726C50.2047 83.1888 50.4181 82.6737 50.798 82.2938C51.1778 81.914 51.693 81.7006 52.2302 81.7006Z" fill="white"/>
<path d="M34.0005 61.4458H36.026V69.5477H34.0005V61.4458Z" fill="white"/>
<path d="M35.0132 66.5096C35.5725 66.5096 36.026 66.0562 36.026 65.4969C36.026 64.9375 35.5725 64.4841 35.0132 64.4841C34.4539 64.4841 34.0005 64.9375 34.0005 65.4969C34.0005 66.0562 34.4539 66.5096 35.0132 66.5096Z" fill="#36405B"/>
<path d="M91.7272 32.0764H90.4441C90.2456 31.5397 89.9349 31.0514 89.5326 30.6444L88.0955 29.2124C87.4227 28.5591 86.5407 28.1646 85.6052 28.0984C84.9481 27.4355 84.1665 26.9089 83.3054 26.5488C82.4442 26.1887 81.5205 26.0022 80.5871 26L55.2686 26V26.0091C55.0013 26.0067 54.744 26.1101 54.5526 26.2967L48.7729 32.0764H37.0393C36.2101 32.1029 35.4251 32.4565 34.8558 33.0599C34.2866 33.6634 33.9793 34.4676 34.0011 35.2969V61.4459C34.0011 61.7145 34.1078 61.972 34.2977 62.162C34.4876 62.3519 34.7452 62.4586 35.0138 62.4586C35.2824 62.4586 35.54 62.3519 35.7299 62.162C35.9199 61.972 36.0266 61.7145 36.0266 61.4459V35.2969C36.0086 35.0056 36.1039 34.7185 36.2926 34.4958C36.4814 34.2731 36.7489 34.1319 37.0393 34.1019H46.7474L41.387 39.4623C41.2942 39.5568 41.221 39.6687 41.1716 39.7916C41.1223 39.9145 41.0977 40.0459 41.0994 40.1783H41.0903V68.535H35.0138C34.7452 68.535 34.4876 68.6417 34.2977 68.8316C34.1078 69.0216 34.0011 69.2792 34.0011 69.5478V73.4164C33.9793 74.2457 34.2866 75.05 34.8558 75.6534C35.4251 76.2569 36.2101 76.6105 37.0393 76.6369H54.6427L52.6173 80.6879H49.1922C48.3864 80.6879 47.6136 81.008 47.0438 81.5778C46.474 82.1475 46.154 82.9203 46.154 83.7261C46.154 84.5319 46.474 85.3047 47.0438 85.8744C47.6136 86.4442 48.3864 86.7643 49.1922 86.7643H79.5743C80.3801 86.7643 81.1529 86.4442 81.7227 85.8744C82.2924 85.3047 82.6125 84.5319 82.6125 83.7261C82.6125 82.9203 82.2924 82.1475 81.7227 81.5778C81.1529 81.008 80.3801 80.6879 79.5743 80.6879H76.1493L74.1238 76.6369H91.7272C92.5564 76.6105 93.3414 76.2569 93.9107 75.6534C94.4799 75.05 94.7872 74.2457 94.7654 73.4164V35.2969C94.7872 34.4676 94.4799 33.6634 93.9107 33.0599C93.3414 32.4565 92.5564 32.1029 91.7272 32.0764ZM92.7399 35.2969V68.535H87.6762V39.6568L88.8115 38.5215C88.9072 38.4257 88.993 38.3205 89.0677 38.2076C89.092 38.1711 89.1072 38.1306 89.1285 38.0931C89.1759 38.0172 89.2179 37.938 89.2541 37.8561C89.2743 37.8045 89.2855 37.7498 89.3017 37.6971C89.419 37.3771 89.4412 37.0299 89.3655 36.6976C89.3574 36.654 89.3402 36.6135 89.329 36.572L89.5316 36.3694C90.1416 35.7549 90.5363 34.9594 90.6567 34.1019H91.7272C92.0176 34.1319 92.2851 34.2731 92.4739 34.4958C92.6626 34.7185 92.7579 35.0056 92.7399 35.2969ZM59.435 61.1218C59.2868 60.7034 59.0478 60.3229 58.7352 60.0078C58.4205 59.6993 58.0395 59.4669 57.6212 59.3282C57.4129 58.3617 57.5836 57.352 58.0982 56.5077L62.2342 60.6448C61.3957 61.1539 60.3947 61.3241 59.435 61.1208V61.1218ZM55.8712 61.4378C56.0611 61.2479 56.3186 61.1412 56.5872 61.1412C56.8557 61.1412 57.1133 61.2479 57.3032 61.4378C57.3974 61.5318 57.4721 61.6435 57.523 61.7664C57.574 61.8894 57.6002 62.0212 57.6002 62.1543C57.6002 62.2874 57.574 62.4191 57.523 62.5421C57.4721 62.665 57.3974 62.7767 57.3032 62.8708C57.1103 63.0549 56.8539 63.1576 56.5872 63.1576C56.3205 63.1576 56.0641 63.0549 55.8712 62.8708C55.7772 62.7764 55.7028 62.6644 55.6521 62.5411C55.6015 62.4179 55.5757 62.2859 55.5762 62.1527C55.5767 62.0195 55.6034 61.8877 55.6549 61.7648C55.7064 61.642 55.7816 61.5305 55.8762 61.4367L55.8712 61.4378ZM63.7472 59.2897L59.4512 54.9917C59.2614 54.8018 59.1547 54.5442 59.1547 54.2757C59.1547 54.0071 59.2614 53.7496 59.4512 53.5597L68.0443 44.9666C68.2342 44.7767 68.4918 44.6701 68.7603 44.6701C69.0288 44.6701 69.2864 44.7767 69.4763 44.9666L73.7734 49.2636C73.9632 49.4535 74.0699 49.7111 74.0699 49.9796C74.0699 50.2482 73.9632 50.5057 73.7734 50.6956L65.1803 59.2887C65.0862 59.3829 64.9745 59.4576 64.8516 59.5085C64.7286 59.5595 64.5969 59.5857 64.4638 59.5857C64.3307 59.5857 64.1989 59.5595 64.0759 59.5085C63.953 59.4576 63.8413 59.3829 63.7472 59.2887V59.2897ZM75.2054 47.8306L70.9083 43.5346L78.7864 35.6565L80.9355 37.8055L75.9224 42.8175C75.7342 43.0056 75.585 43.229 75.4831 43.4748C75.3813 43.7205 75.3289 43.984 75.3289 44.2501C75.3289 44.5161 75.3813 44.7796 75.4831 45.0254C75.585 45.2712 75.7342 45.4945 75.9224 45.6826L76.6384 46.3986L75.2054 47.8306ZM81.6515 31.3604L84.5155 34.2245L82.3675 36.3725L79.5024 33.5084L81.6515 31.3604ZM78.7874 45.6836L77.3544 44.2506L83.0814 38.5225L85.9445 35.6595L87.3765 37.0925L85.9546 38.5164L85.9455 38.5256L85.2366 39.2345L78.7874 45.6836ZM88.0955 32.0764C88.2837 32.2645 88.433 32.4878 88.5348 32.7336C88.6366 32.9794 88.6891 33.2429 88.6891 33.509C88.6891 33.775 88.6366 34.0385 88.5348 34.2843C88.433 34.5301 88.2837 34.7534 88.0955 34.9415L86.6635 33.5084L83.7995 30.6444C84.1852 30.276 84.6981 30.0703 85.2315 30.0703C85.7649 30.0703 86.2778 30.276 86.6635 30.6444L88.0955 32.0764ZM49.9072 33.8062L54.2559 29.4575V34.1019C54.2543 35.4444 53.7202 36.7314 52.771 37.6807C51.8217 38.63 50.5347 39.164 49.1922 39.1656H44.5477L49.9072 33.8062ZM43.1157 41.1911H49.1922C51.0717 41.1889 52.8736 40.4414 54.2026 39.1123C55.5316 37.7833 56.2792 35.9814 56.2813 34.1019V28.0255H80.5871C81.4528 28.0266 82.3037 28.2502 83.0582 28.6746C82.8078 28.8265 82.576 29.007 82.3675 29.2124L82.1649 29.415C81.8232 29.3223 81.4632 29.3213 81.1209 29.412C80.7787 29.5026 80.4664 29.6818 80.2154 29.9315L78.0694 32.0764C77.82 32.3274 77.6407 32.6394 77.5494 32.9813C77.458 33.3232 77.4579 33.683 77.5489 34.0249L68.9142 42.6606C68.49 42.6358 68.0653 42.7008 67.668 42.8515C67.2706 43.0021 66.9095 43.2348 66.6082 43.5346L58.0192 52.1287C57.7361 52.41 57.5116 52.7447 57.3588 53.1134C57.206 53.4822 57.1279 53.8775 57.129 54.2767C57.129 54.3385 57.1432 54.3962 57.1462 54.4569C56.5307 55.0939 56.0689 55.863 55.7961 56.7057C55.5234 57.5484 55.4469 58.4423 55.5724 59.3191C55.1455 59.4562 54.7565 59.691 54.4361 60.0047C53.874 60.576 53.5603 61.3463 53.5635 62.1478C53.5666 62.9493 53.8864 63.717 54.4531 64.2839C55.0197 64.8507 55.7874 65.1706 56.5889 65.174C57.3904 65.1773 58.1608 64.8638 58.7322 64.3018C59.051 63.9816 59.2933 63.5935 59.4411 63.1665C59.7127 63.2034 59.9863 63.2226 60.2604 63.2242C61.7656 63.2268 63.2123 62.6414 64.2921 61.5927C64.3508 61.5927 64.4076 61.6099 64.4653 61.6099C64.8642 61.6105 65.2594 61.5322 65.628 61.3796C65.9966 61.227 66.3315 61.0031 66.6133 60.7207L75.2064 52.1287C75.5059 51.8273 75.7383 51.4661 75.8886 51.0688C76.0388 50.6714 76.1035 50.2467 76.0784 49.8227L78.2689 47.6331C78.4375 47.6802 78.6114 47.7054 78.7864 47.7081C79.3234 47.7082 79.8385 47.4951 80.2184 47.1156L85.6508 41.6823V68.535H43.1157V41.1911ZM80.5871 83.7261C80.5871 83.9947 80.4804 84.2523 80.2904 84.4422C80.1005 84.6321 79.8429 84.7388 79.5743 84.7388H49.1922C48.9236 84.7388 48.666 84.6321 48.4761 84.4422C48.2861 84.2523 48.1794 83.9947 48.1794 83.7261C48.1794 83.4575 48.2861 83.1999 48.4761 83.01C48.666 82.8201 48.9236 82.7134 49.1922 82.7134H79.5743C79.8429 82.7134 80.1005 82.8201 80.2904 83.01C80.4804 83.1999 80.5871 83.4575 80.5871 83.7261ZM73.8848 80.6879H54.8817L56.9072 76.6369H71.8593L73.8848 80.6879ZM91.7272 74.6115H37.0393C36.7489 74.5814 36.4814 74.4403 36.2926 74.2176C36.1039 73.9949 36.0086 73.7078 36.0266 73.4164V70.5605H92.7399V73.4164C92.7579 73.7078 92.6626 73.9949 92.4739 74.2176C92.2851 74.4403 92.0176 74.5814 91.7272 74.6115Z" fill="#36405B"/>
<path d="M51.2175 63.4713H46.1539C45.8853 63.4713 45.6277 63.578 45.4377 63.7679C45.2478 63.9579 45.1411 64.2155 45.1411 64.4841C45.1411 64.7526 45.2478 65.0102 45.4377 65.2002C45.6277 65.3901 45.8853 65.4968 46.1539 65.4968H51.2175C51.4861 65.4968 51.7437 65.3901 51.9337 65.2002C52.1236 65.0102 52.2303 64.7526 52.2303 64.4841C52.2303 64.2155 52.1236 63.9579 51.9337 63.7679C51.7437 63.578 51.4861 63.4713 51.2175 63.4713Z" fill="#36405B"/>
<path d="M82.6126 63.4713H64.3833C64.1147 63.4713 63.8572 63.578 63.6672 63.7679C63.4773 63.9579 63.3706 64.2155 63.3706 64.4841C63.3706 64.7526 63.4773 65.0102 63.6672 65.2002C63.8572 65.3901 64.1147 65.4968 64.3833 65.4968H82.6126C82.8812 65.4968 83.1388 65.3901 83.3288 65.2002C83.5187 65.0102 83.6254 64.7526 83.6254 64.4841C83.6254 64.2155 83.5187 63.9579 83.3288 63.7679C83.1388 63.578 82.8812 63.4713 82.6126 63.4713Z" fill="#36405B"/>
</svg>
