<svg width="120" height="112" viewBox="0 0 120 112" fill="none" xmlns="http://www.w3.org/2000/svg">
<circle cx="64" cy="56" r="56" fill="#DADCE3"/>
<circle cx="16" cy="16" r="16" fill="#445072"/>
<path d="M17.7116 10.3636V22H15.2514V12.6989H15.1832L12.5185 14.3693V12.1875L15.3991 10.3636H17.7116Z" fill="white"/>
<path d="M87.6496 67.5201V72.5838C87.6496 74.2618 86.2894 75.6221 84.6114 75.6221H40.0509C38.373 75.6221 37.0127 74.2618 37.0127 72.5838V67.5201H87.6496Z" fill="#F5F6F8"/>
<path d="M84.6119 67.5201V72.5838C84.6119 74.2618 83.2517 75.6221 81.5737 75.6221H84.6119C86.2899 75.6221 87.6502 74.2618 87.6502 72.5838V67.5201H84.6119Z" fill="#A2A8B9"/>
<path d="M87.6496 43.2145V67.5202H37.0127V43.2145C37.0127 41.5365 38.373 40.1763 40.0509 40.1763H84.6114C86.2894 40.1763 87.6496 41.5365 87.6496 43.2145Z" fill="#F5F6F8"/>
<path d="M84.6119 40.1763H81.5737C83.2517 40.1763 84.6119 41.5365 84.6119 43.2145V67.5202H87.6502V43.2145C87.6502 41.5365 86.2899 40.1763 84.6119 40.1763Z" fill="#F5F6F8"/>
<path d="M42.0762 63.4691V31.0615C42.0795 29.9442 42.9844 29.0393 44.1016 29.036H82.4743L82.5857 41.28V63.4691H42.0762Z" fill="#F5F6F8"/>
<path d="M82.4747 29.036H79.4365L79.5479 41.28V63.4691H82.5861V41.28L82.4747 29.036Z" fill="#F5F6F8"/>
<path d="M54.229 75.6221H70.4328V80.6858H54.229V75.6221Z" fill="#A2A8B9"/>
<path d="M67.395 75.6221H70.4332V80.6858H67.395V75.6221Z" fill="#A2A8B9"/>
<path d="M53.217 80.6858H71.4463C73.6835 80.6858 75.4972 82.4995 75.4972 84.7367C75.4972 85.2961 75.0438 85.7495 74.4845 85.7495H50.1788C49.6194 85.7495 49.166 85.2961 49.166 84.7367C49.166 82.4995 50.9797 80.6858 53.217 80.6858Z" fill="#F5F6F8"/>
<path d="M71.4459 80.6858H68.4077C70.645 80.6858 72.4587 82.4995 72.4587 84.7367C72.4587 85.2961 72.0053 85.7495 71.4459 85.7495H74.4841C75.0435 85.7495 75.4969 85.2961 75.4969 84.7367C75.4969 82.4995 73.6832 80.6858 71.4459 80.6858Z" fill="#A2A8B9"/>
<path d="M90.5456 35.8832L84.7122 39.9139L78.9497 31.5791L84.7831 27.5484C86.1622 26.5964 88.0516 26.9408 89.0062 28.3181L91.3152 31.65C92.2682 33.0323 91.9241 34.9249 90.5456 35.8832Z" fill="white"/>
<path d="M91.3149 31.65L89.0059 28.318C88.1043 27.0233 86.36 26.6373 84.9964 27.4309C85.3819 27.6511 85.7136 27.9541 85.9676 28.318L88.2767 31.65C89.2297 33.0322 88.8856 34.9249 87.507 35.8832L83.7295 38.494L84.7118 39.9119L90.5452 35.8812C91.9225 34.9229 92.2665 33.0318 91.3149 31.65Z" fill="#F5F6F8"/>
<path d="M84.7119 39.9138L80.5496 42.79L74.7871 34.4653L78.9495 31.579L84.7119 39.9138Z" fill="white"/>
<path d="M78.9498 31.579L76.896 33.0039L81.6741 39.9138L79.5676 41.3701L80.55 42.79L84.7123 39.9138L78.9498 31.579Z" fill="#F5F6F8"/>
<path d="M80.5494 42.79L60.7109 56.5127C60.6407 56.5637 60.5617 56.6015 60.4779 56.6241L60.3868 56.3709L54.9686 48.5323L54.6851 48.4411C54.757 48.3388 54.8461 48.2497 54.9484 48.1778L74.7879 34.4653L80.5494 42.79Z" fill="#F5F6F8"/>
<path d="M74.7876 34.4653L72.7327 35.8832L77.5119 42.787L59.5742 55.1971L60.3844 56.3709L60.4756 56.6241C60.5594 56.6015 60.6383 56.5637 60.7085 56.5127L80.548 42.79L74.7876 34.4653Z" fill="#A2A8B9"/>
<path d="M54.1577 58.1736L49.408 59.318C49.0028 59.4134 48.5804 59.2512 48.3434 58.909C48.1063 58.5668 48.1028 58.1143 48.3345 57.7685L51.079 53.7378L51.2512 53.8492L54.1071 57.971L54.1577 58.1736Z" fill="#F5F6F8"/>
<path d="M60.4768 56.6241C60.4458 56.6436 60.4115 56.6573 60.3756 56.6646L54.1573 58.1736L54.1067 57.971L51.2508 53.8492L51.0786 53.7378L54.684 48.4412L54.9675 48.5323L60.3857 56.3709L60.4768 56.6241Z" fill="white"/>
<path d="M60.3854 56.3709L54.9673 48.5323L54.6837 48.4412L53.2861 50.495L57.3472 56.3689L57.4384 56.6221C57.4073 56.6416 57.373 56.6553 57.3371 56.6626L53.7925 57.5224L54.1024 57.969L54.153 58.1716L60.3713 56.6626C60.4072 56.6553 60.4415 56.6416 60.4725 56.6221L60.3854 56.3709Z" fill="#F5F6F8"/>
<path d="M40.0509 75.622H43.0891C41.4112 75.622 40.0509 74.2617 40.0509 72.5838V43.2144C40.0509 41.5364 41.4112 40.1761 43.0891 40.1761H45.1146V31.0615C45.1179 29.9442 46.0228 29.0393 47.1401 29.036H44.1019C42.9846 29.0393 42.0797 29.9442 42.0764 31.0615V40.1761H40.0509C38.373 40.1761 37.0127 41.5364 37.0127 43.2144V72.5838C37.0127 74.2617 38.373 75.622 40.0509 75.622Z" fill="white"/>
<path d="M50.1788 85.7495H53.217C52.6577 85.7495 52.2042 85.296 52.2042 84.7367C52.2042 82.4994 54.0179 80.6858 56.2552 80.6858H57.2679V75.6221H54.2297V80.6858H53.217C50.9797 80.6858 49.166 82.4994 49.166 84.7367C49.166 85.296 49.6194 85.7495 50.1788 85.7495Z" fill="white"/>
<path d="M36 43.2145H38.0255V51.3164H36V43.2145Z" fill="white"/>
<path d="M37.0334 48.2782C36.4741 48.281 36.0184 47.8298 36.0156 47.2705C36.0128 46.7112 36.464 46.2555 37.0233 46.2527H37.0334C37.5928 46.2527 38.0462 46.7061 38.0462 47.2654C38.0462 47.8247 37.5928 48.2782 37.0334 48.2782Z" fill="#36405B"/>
<path d="M37.0127 44.2272C37.5721 44.2272 38.0255 43.7738 38.0255 43.2145C38.0255 42.0959 38.9323 41.189 40.051 41.189H41.0637V63.4693C41.0637 64.0286 41.5171 64.482 42.0764 64.482C42.6358 64.482 43.0892 64.0286 43.0892 63.4693V31.0616C43.0892 30.5023 43.5426 30.0489 44.1019 30.0489H79.2379L54.0936 47.4376C53.9766 47.5059 53.8781 47.6019 53.807 47.7171L47.3427 57.1954C46.8703 57.8877 46.8731 58.7994 47.3497 59.4887C47.8263 60.1781 48.6782 60.5028 49.4927 60.3055L60.643 57.6025C60.7752 57.5722 60.8994 57.5142 61.0076 57.4323L81.5732 43.2084V63.4693C81.5732 64.0286 82.0267 64.482 82.586 64.482C83.1453 64.482 83.5987 64.0286 83.5987 63.4693V41.8078L90.9654 36.7127C92.8055 35.4403 93.2657 32.917 91.9933 31.0768L89.6903 27.7449C88.4159 25.9078 85.8954 25.4481 84.0545 26.717L82.1667 28.0234H44.1019C42.4239 28.0234 41.0637 29.3837 41.0637 31.0616V39.1635H40.051C37.8137 39.1635 36 40.9772 36 43.2145C36 43.7738 36.4534 44.2272 37.0127 44.2272ZM80.6516 41.3835L76.0437 34.7197L78.5421 32.9919L83.1511 39.6557L80.6516 41.3835ZM74.3828 35.8721L78.9918 42.536L60.6622 55.2094L56.0522 48.5445L74.3828 35.8721ZM54.5149 57.004L52.2038 53.6629L54.6496 50.0768L58.7329 55.9811L54.5149 57.004ZM49.0167 58.3367L50.9814 55.4555L52.4064 57.5154L49.0167 58.3367ZM85.207 28.3829C86.1271 27.7472 87.3883 27.9775 88.0244 28.8974L90.3284 32.2283C90.9622 33.1493 90.7327 34.4093 89.8149 35.0478L84.814 38.5032L80.205 31.8394L85.207 28.3829Z" fill="#36405B"/>
<path d="M40.051 76.6349H53.2166V79.6731C50.4213 79.6765 48.1562 81.9416 48.1529 84.7368C48.1529 85.8554 49.0597 86.7623 50.1783 86.7623H74.4841C75.6027 86.7623 76.5095 85.8554 76.5095 84.7368C76.5062 81.9416 74.2411 79.6765 71.4459 79.6731V76.6349H84.6115C86.8487 76.6349 88.6624 74.8212 88.6624 72.5839V43.2145C88.6624 42.6552 88.209 42.2018 87.6497 42.2018C87.0904 42.2018 86.6369 42.6552 86.6369 43.2145V66.5075H38.0255V51.3164C38.0255 50.7571 37.5721 50.3037 37.0127 50.3037C36.4534 50.3037 36 50.7571 36 51.3164V72.5839C36 74.8212 37.8137 76.6349 40.051 76.6349ZM74.4841 84.7368H50.1783C50.1783 83.0588 51.5386 81.6986 53.2166 81.6986H71.4459C73.1238 81.6986 74.4841 83.0588 74.4841 84.7368ZM69.4204 79.6731H55.242V76.6349H69.4204V79.6731ZM38.0255 68.533H86.6369V72.5839C86.6369 73.7026 85.7301 74.6094 84.6115 74.6094H40.051C38.9323 74.6094 38.0255 73.7026 38.0255 72.5839V68.533Z" fill="#36405B"/>
<path d="M61.3189 72.5839H64.3571C64.9164 72.5839 65.3698 72.1305 65.3698 71.5712C65.3698 71.0119 64.9164 70.5585 64.3571 70.5585H61.3189C60.7596 70.5585 60.3062 71.0119 60.3062 71.5712C60.3062 72.1305 60.7596 72.5839 61.3189 72.5839Z" fill="#36405B"/>
<path d="M47.1402 35.1126H68.0431C68.6024 35.1126 69.0558 34.6592 69.0558 34.0999C69.0558 33.5406 68.6024 33.0872 68.0431 33.0872H47.1402C46.5809 33.0872 46.1274 33.5406 46.1274 34.0999C46.1274 34.6592 46.5809 35.1126 47.1402 35.1126Z" fill="#36405B"/>
<path d="M47.1402 40.1764H60.721C61.2803 40.1764 61.7337 39.7229 61.7337 39.1636C61.7337 38.6043 61.2803 38.1509 60.721 38.1509H47.1402C46.5809 38.1509 46.1274 38.6043 46.1274 39.1636C46.1274 39.7229 46.5809 40.1764 47.1402 40.1764Z" fill="#36405B"/>
<path d="M47.1402 45.2401H53.3989C53.9582 45.2401 54.4116 44.7867 54.4116 44.2273C54.4116 43.668 53.9582 43.2146 53.3989 43.2146H47.1402C46.5809 43.2146 46.1274 43.668 46.1274 44.2273C46.1274 44.7867 46.5809 45.2401 47.1402 45.2401Z" fill="#36405B"/>
<path d="M77.5223 58.4056H63.4756C62.9163 58.4056 62.4629 58.8591 62.4629 59.4184C62.4629 59.9777 62.9163 60.4311 63.4756 60.4311H77.5223C78.0816 60.4311 78.5351 59.9777 78.5351 59.4184C78.5351 58.8591 78.0816 58.4056 77.5223 58.4056Z" fill="#36405B"/>
<path d="M77.5225 53.3419H70.7979C70.2386 53.3419 69.7852 53.7953 69.7852 54.3547C69.7852 54.914 70.2386 55.3674 70.7979 55.3674H77.5225C78.0818 55.3674 78.5352 54.914 78.5352 54.3547C78.5352 53.7953 78.0818 53.3419 77.5225 53.3419Z" fill="#36405B"/>
</svg>
