<svg width="120" height="112" viewBox="0 0 120 112" fill="none" xmlns="http://www.w3.org/2000/svg">
<circle cx="64" cy="56" r="56" fill="#DADCE3"/>
<circle cx="16" cy="16" r="16" fill="#445072"/>
<path d="M11.4048 22V20.2273L15.5469 16.392C15.8991 16.0511 16.1946 15.7443 16.4332 15.4716C16.6757 15.1989 16.8594 14.9318 16.9844 14.6705C17.1094 14.4053 17.1719 14.1193 17.1719 13.8125C17.1719 13.4716 17.0942 13.178 16.9389 12.9318C16.7836 12.6818 16.5715 12.4905 16.3026 12.358C16.0336 12.2216 15.7287 12.1534 15.3878 12.1534C15.0317 12.1534 14.7211 12.2254 14.456 12.3693C14.1908 12.5133 13.9863 12.7197 13.8423 12.9886C13.6984 13.2576 13.6264 13.5777 13.6264 13.9489H11.2912C11.2912 13.1875 11.4635 12.5265 11.8082 11.9659C12.1529 11.4053 12.6359 10.9716 13.2571 10.6648C13.8783 10.358 14.5942 10.2045 15.4048 10.2045C16.2382 10.2045 16.9635 10.3523 17.581 10.6477C18.2022 10.9394 18.6851 11.3447 19.0298 11.8636C19.3745 12.3826 19.5469 12.9773 19.5469 13.6477C19.5469 14.0871 19.4598 14.5208 19.2855 14.9489C19.1151 15.3769 18.8101 15.8523 18.3707 16.375C17.9313 16.8939 17.312 17.517 16.5128 18.2443L14.8139 19.9091V19.9886H19.7003V22H11.4048Z" fill="white"/>
<path d="M64.23 51.3459C70.9419 51.3459 76.3829 45.9049 76.3829 39.193C76.3829 32.4812 70.9419 27.0402 64.23 27.0402C57.5182 27.0402 52.0771 32.4812 52.0771 39.193C52.0771 45.9049 57.5182 51.3459 64.23 51.3459Z" fill="#F5F6F8"/>
<path fill-rule="evenodd" clip-rule="evenodd" d="M64.2296 27.0401C63.7216 27.042 63.2142 27.0758 62.7104 27.1414C68.785 27.9025 73.3428 33.0669 73.3428 39.1889C73.3428 45.311 68.785 50.4754 62.7104 51.2365C67.2185 51.8441 71.6885 49.8834 74.2946 46.1551C76.9007 42.4269 77.2065 37.5554 75.0872 33.5304C72.9678 29.5055 68.7782 27.0011 64.2296 27.0401Z" fill="#F5F6F8"/>
<path d="M88.5352 51.3459C95.247 51.3459 100.688 45.9049 100.688 39.193C100.688 32.4812 95.247 27.0402 88.5352 27.0402C81.8233 27.0402 76.3823 32.4812 76.3823 39.193C76.3823 45.9049 81.8233 51.3459 88.5352 51.3459Z" fill="#F5F6F8"/>
<path fill-rule="evenodd" clip-rule="evenodd" d="M88.5357 27.0401C88.0277 27.042 87.5203 27.0758 87.0166 27.1414C93.0912 27.9025 97.6489 33.0669 97.6489 39.1889C97.6489 45.311 93.0912 50.4754 87.0166 51.2365C91.5246 51.8441 95.9946 49.8834 98.6007 46.1551C101.207 42.4269 101.513 37.5554 99.3933 33.5304C97.274 29.5055 93.0844 27.0011 88.5357 27.0401Z" fill="#F5F6F8"/>
<path fill-rule="evenodd" clip-rule="evenodd" d="M81.4463 64.5114V81.728C81.4477 82.8028 81.0213 83.834 80.2613 84.5939C79.5013 85.3539 78.4702 85.7803 77.3954 85.779H51.0642C48.8269 85.779 47.0132 83.9653 47.0132 81.728V64.5114C47.0062 61.9261 47.7715 59.3977 49.2109 57.2501L51.4085 59.4477C52.4325 60.4717 53.9249 60.8716 55.3236 60.4968C56.7223 60.122 57.8149 59.0295 58.1897 57.6307C58.5645 56.232 58.1646 54.7396 57.1406 53.7156L55.6013 52.1763C57.063 51.6201 58.6149 51.3386 60.1788 51.3458H68.2807C75.5519 51.3458 81.4463 57.2403 81.4463 64.5114Z" fill="#F5F6F8"/>
<path fill-rule="evenodd" clip-rule="evenodd" d="M48.3707 59.4479C49.5234 60.596 51.2498 60.9462 52.7589 60.3381C52.2539 60.1345 51.7949 59.8318 51.4089 59.4479L49.2112 57.2502C48.7974 57.8728 48.4379 58.5298 48.1367 59.2139L48.3707 59.4479Z" fill="#F5F6F8"/>
<path fill-rule="evenodd" clip-rule="evenodd" d="M68.2804 51.3458H65.2422C72.5133 51.3458 78.4078 57.2403 78.4078 64.5114V81.728C78.4091 82.8028 77.9828 83.8339 77.2228 84.5939C76.4628 85.3539 75.4316 85.7803 74.3568 85.7789H77.3951C78.4698 85.7803 79.501 85.3539 80.261 84.5939C81.021 83.8339 81.4474 82.8028 81.446 81.728V64.5114C81.446 57.2403 75.5516 51.3458 68.2804 51.3458Z" fill="#DADCE3"/>
<path fill-rule="evenodd" clip-rule="evenodd" d="M105.752 64.5114V81.728C105.753 82.8028 105.327 83.8339 104.567 84.5939C103.807 85.3539 102.776 85.7803 101.701 85.7789H77.3954C78.4702 85.7803 79.5014 85.3539 80.2614 84.5939C81.0213 83.8339 81.4477 82.8028 81.4464 81.728V64.5114C81.4464 57.2403 75.5519 51.3458 68.2808 51.3458H92.5865C99.8577 51.3458 105.752 57.2403 105.752 64.5114Z" fill="#F5F6F8"/>
<path fill-rule="evenodd" clip-rule="evenodd" d="M92.5866 51.3458H89.5483C93.0401 51.3458 96.3888 52.7329 98.8578 55.2019C101.327 57.671 102.714 61.0197 102.714 64.5114V81.728C102.715 82.8028 102.289 83.8339 101.529 84.5939C100.769 85.3539 99.7378 85.7803 98.663 85.7789H101.701C102.776 85.7803 103.807 85.3539 104.567 84.5939C105.327 83.8339 105.754 82.8028 105.752 81.728V64.5114C105.752 61.0197 104.365 57.671 101.896 55.2019C99.427 52.7329 96.0783 51.3458 92.5866 51.3458Z" fill="#DADCE3"/>
<path fill-rule="evenodd" clip-rule="evenodd" d="M56.8477 59.9524C55.3068 61.3492 52.8133 61.3492 51.2724 59.9524L47.8643 56.8541C46.7119 55.8018 46.7119 54.1006 47.8643 53.0483L49.2531 51.7857C50.4107 50.7381 52.2819 50.7381 53.4395 51.7857L55.3504 53.5229L56.8477 54.884C58.3841 56.2848 58.3841 58.5517 56.8477 59.9524Z" fill="#F5F6F8"/>
<path fill-rule="evenodd" clip-rule="evenodd" d="M56.8624 54.8796L55.3906 53.518L53.5121 51.7801C52.5772 50.9236 51.1378 50.7532 50 51.3644C50.221 51.4781 50.425 51.6178 50.6071 51.7801L52.4856 53.518L53.9575 54.8796C54.8774 55.7294 55.2752 56.9494 55.0166 58.128C54.7581 59.3067 53.8777 60.2867 52.6725 60.7375C54.3807 61.3776 56.3398 60.8156 57.3568 59.3937C58.3738 57.9718 58.167 56.0839 56.8624 54.8796Z" fill="#F5F6F8"/>
<path fill-rule="evenodd" clip-rule="evenodd" d="M62.7109 51.2442C62.8973 51.2675 63.0836 51.2868 63.273 51.301C63.589 51.3293 63.907 51.3496 64.2301 51.3496C64.738 51.3477 65.2454 51.3139 65.7492 51.2483C59.6527 50.5098 55.0675 45.3357 55.0675 39.1947C55.0675 33.0537 59.6527 27.8795 65.7492 27.1411C65.2454 27.0755 64.738 27.0417 64.2301 27.0398C63.907 27.0398 63.589 27.06 63.273 27.0884C63.0836 27.1026 62.8973 27.1218 62.7109 27.1451C56.6364 27.9062 52.0786 33.0706 52.0786 39.1927C52.0786 45.3147 56.6364 50.4791 62.7109 51.2402V51.2442Z" fill="white"/>
<path fill-rule="evenodd" clip-rule="evenodd" d="M57.9956 51.5319L58.6397 52.176C60.1015 51.6199 61.6533 51.3384 63.2173 51.3456H60.1791C59.4473 51.3469 58.717 51.4092 57.9956 51.5319Z" fill="white"/>
<path fill-rule="evenodd" clip-rule="evenodd" d="M51 86H54C51.7909 86 50 84.2583 50 82.1099V65.5769C50 63.6386 50.4603 61.7265 51.345 59.9897C51.7978 59.1421 51.641 58.1077 50.956 57.4232L50.88 57.3492C49.7101 56.2064 49.7101 54.3589 50.88 53.216L52.29 51.8447C52.4765 51.6684 52.6859 51.5167 52.913 51.3935C52.8209 51.3397 52.7257 51.291 52.628 51.2476C52.551 51.2155 52.474 51.1892 52.396 51.163C52.3111 51.1336 52.2246 51.1086 52.137 51.0881C52.043 51.0657 51.948 51.0463 51.852 51.0327C51.788 51.0239 51.724 51.019 51.66 51.0142C51.5427 51.0028 51.4248 50.9983 51.307 51.0006H51.286C50.5371 51.039 49.8273 51.3379 49.286 51.8428L47.88 53.216C46.7102 54.3589 46.7102 56.2064 47.88 57.3492L49.17 58.6038C48.97 58.8956 48.784 59.199 48.608 59.5083C48.598 59.5258 48.588 59.5452 48.578 59.5637C47.5394 61.4067 46.9966 63.4752 47 65.5769V82.1099C47 83.1416 47.4214 84.1311 48.1716 84.8606C48.9217 85.5901 49.9391 86 51 86Z" fill="white"/>
<path fill-rule="evenodd" clip-rule="evenodd" d="M46.0005 73.6261H48.026V81.728H46.0005V73.6261Z" fill="white"/>
<path d="M47.0127 78.6899C47.5721 78.6899 48.0255 78.2365 48.0255 77.6772C48.0255 77.1178 47.5721 76.6644 47.0127 76.6644C46.4534 76.6644 46 77.1178 46 77.6772C46 78.2365 46.4534 78.6899 47.0127 78.6899Z" fill="#36405B"/>
<path d="M95.1239 50.5732C100.091 47.6983 102.621 41.9356 101.377 36.3331C100.133 30.7306 95.4011 26.5808 89.6841 26.0786C83.9671 25.5765 78.5841 28.8377 76.3822 34.1375C74.1876 28.8271 68.8025 25.5534 63.078 26.0495C57.3535 26.5456 52.6119 30.6969 51.3635 36.3056C50.1152 41.9144 52.6485 47.6848 57.6222 50.5621C57.0295 50.6751 56.4451 50.8284 55.8732 51.0208L53.5 52C51.8977 50.4686 51.0213 50.4686 49.419 52L47.1869 50.9267C45.6055 52.5086 45.6055 55.0728 47.1869 56.6547L47.9293 57.3981C46.6632 59.5547 45.997 62.0107 46 64.5115V73.6262C46 74.1855 46.4534 74.6389 47.0127 74.6389C47.5721 74.6389 48.0255 74.1855 48.0255 73.6262V64.5115C48.0239 62.5513 48.5023 60.6205 49.419 58.8878L50.6951 60.1638C52.6751 62.1266 55.8691 62.1196 57.8405 60.1482C59.8119 58.1768 59.8189 54.9828 57.8561 53.0028L57.5169 52.6635C58.3899 52.4628 59.2826 52.3605 60.1784 52.3587H68.2803C74.9891 52.3659 80.4259 57.8027 80.4331 64.5115V81.7281C80.4331 83.4061 79.0729 84.7663 77.3949 84.7663C75.7169 84.7663 74.3567 83.4061 74.3567 81.7281V65.5243C74.3567 64.965 73.9033 64.5115 73.344 64.5115C72.7846 64.5115 72.3312 64.965 72.3312 65.5243V81.7281C72.3349 82.8274 72.7 83.895 73.3703 84.7663H55.0893C55.7575 83.8939 56.122 82.8269 56.1274 81.7281V65.5243C56.1274 64.965 55.674 64.5115 55.1147 64.5115C54.5553 64.5115 54.1019 64.965 54.1019 65.5243V81.7281C54.1019 83.4061 52.7417 84.7663 51.0637 84.7663C49.3857 84.7663 48.0255 83.4061 48.0255 81.7281C48.0255 81.1688 47.5721 80.7154 47.0127 80.7154C46.4534 80.7154 46 81.1688 46 81.7281C46.0034 84.5233 48.2685 86.7884 51.0637 86.7918H101.701C104.496 86.7884 106.761 84.5233 106.764 81.7281V64.5115C106.753 57.6662 101.858 51.8041 95.1239 50.5732ZM56.4241 58.7318C55.8543 59.3017 55.0815 59.6219 54.2756 59.6219C53.4697 59.6219 52.6969 59.3017 52.1271 58.7318L48.619 55.2227C47.8282 54.4317 47.8282 53.1496 48.619 52.3587L50.051 50.9267C50.8419 50.1359 52.124 50.1359 52.915 50.9267L56.4241 54.4348C56.994 55.0046 57.3142 55.7774 57.3142 56.5833C57.3142 57.3892 56.994 58.162 56.4241 58.7318ZM88.535 28.0529C94.6876 28.0529 99.6752 33.0405 99.6752 39.1931C99.6752 45.3456 94.6876 50.3332 88.535 50.3332C82.3825 50.3332 77.3949 45.3456 77.3949 39.1931C77.4022 33.0435 82.3855 28.0602 88.535 28.0529ZM81.5471 50.3332H71.2172C73.5239 48.8847 75.3275 46.7599 76.3822 44.2487C77.4368 46.7599 79.2405 48.8847 81.5471 50.3332ZM53.0892 39.1931C53.0892 33.0405 58.0768 28.0529 64.2293 28.0529C70.3818 28.0529 75.3694 33.0405 75.3694 39.1931C75.3694 45.3456 70.3818 50.3332 64.2293 50.3332C58.0798 50.3259 53.0964 45.3426 53.0892 39.1931ZM104.739 81.7281C104.739 83.4061 103.379 84.7663 101.701 84.7663C100.023 84.7663 98.6624 83.4061 98.6624 81.7281V65.5243C98.6624 64.965 98.209 64.5115 97.6497 64.5115C97.0904 64.5115 96.6369 64.965 96.6369 65.5243V81.7281C96.6407 82.8274 97.0058 83.895 97.676 84.7663H81.4205C82.0887 83.8939 82.4532 82.8269 82.4586 81.7281V64.5115C82.4525 59.5266 79.8273 54.9115 75.5456 52.3587H92.586C99.2948 52.3659 104.732 57.8027 104.739 64.5115V81.7281Z" fill="#36405B"/>
<path d="M40.23 51.3459C46.9419 51.3459 52.3829 45.9049 52.3829 39.193C52.3829 32.4812 46.9419 27.0402 40.23 27.0402C33.5182 27.0402 28.0771 32.4812 28.0771 39.193C28.0771 45.9049 33.5182 51.3459 40.23 51.3459Z" fill="#F5F6F8"/>
<path fill-rule="evenodd" clip-rule="evenodd" d="M40.2296 27.0401C39.7216 27.042 39.2142 27.0758 38.7104 27.1414C44.785 27.9025 49.3428 33.0669 49.3428 39.1889C49.3428 45.311 44.785 50.4754 38.7104 51.2365C43.2185 51.8441 47.6885 49.8834 50.2946 46.1551C52.9007 42.4269 53.2065 37.5554 51.0872 33.5304C48.9678 29.5055 44.7782 27.0011 40.2296 27.0401Z" fill="#F5F6F8"/>
<path d="M64.5352 51.3459C71.247 51.3459 76.6881 45.9049 76.6881 39.193C76.6881 32.4812 71.247 27.0402 64.5352 27.0402C57.8233 27.0402 52.3823 32.4812 52.3823 39.193C52.3823 45.9049 57.8233 51.3459 64.5352 51.3459Z" fill="#F5F6F8"/>
<path fill-rule="evenodd" clip-rule="evenodd" d="M64.5357 27.0401C64.0277 27.042 63.5203 27.0758 63.0166 27.1414C69.0912 27.9025 73.6489 33.0669 73.6489 39.1889C73.6489 45.311 69.0912 50.4754 63.0166 51.2365C67.5246 51.8441 71.9946 49.8834 74.6007 46.1551C77.2068 42.4269 77.5127 37.5554 75.3933 33.5304C73.274 29.5055 69.0844 27.0011 64.5357 27.0401Z" fill="#F5F6F8"/>
<path fill-rule="evenodd" clip-rule="evenodd" d="M57.4463 64.5114V81.728C57.4477 82.8028 57.0213 83.834 56.2613 84.5939C55.5013 85.3539 54.4702 85.7803 53.3954 85.779H27.0642C24.8269 85.779 23.0132 83.9653 23.0132 81.728V64.5114C23.0062 61.9261 23.7715 59.3977 25.2109 57.2501L27.4085 59.4477C28.4325 60.4717 29.9249 60.8716 31.3236 60.4968C32.7223 60.122 33.8149 59.0295 34.1897 57.6307C34.5645 56.232 34.1646 54.7396 33.1406 53.7156L31.6013 52.1763C33.063 51.6201 34.6149 51.3386 36.1788 51.3458H44.2807C51.5519 51.3458 57.4463 57.2403 57.4463 64.5114Z" fill="#F5F6F8"/>
<path fill-rule="evenodd" clip-rule="evenodd" d="M24.3707 59.4479C25.5234 60.596 27.2498 60.9462 28.7589 60.3381C28.2539 60.1345 27.7949 59.8318 27.4089 59.4479L25.2112 57.2502C24.7974 57.8728 24.4379 58.5298 24.1367 59.2139L24.3707 59.4479Z" fill="#F5F6F8"/>
<path fill-rule="evenodd" clip-rule="evenodd" d="M44.2804 51.3458H41.2422C48.5133 51.3458 54.4078 57.2403 54.4078 64.5114V81.728C54.4091 82.8028 53.9828 83.8339 53.2228 84.5939C52.4628 85.3539 51.4316 85.7803 50.3568 85.7789H53.3951C54.4698 85.7803 55.501 85.3539 56.261 84.5939C57.021 83.8339 57.4474 82.8028 57.446 81.728V64.5114C57.446 57.2403 51.5516 51.3458 44.2804 51.3458Z" fill="#DADCE3"/>
<path fill-rule="evenodd" clip-rule="evenodd" d="M81.7521 64.5114V81.728C81.7534 82.8028 81.3271 83.8339 80.5671 84.5939C79.8071 85.3539 78.7759 85.7803 77.7011 85.7789H53.3954C54.4702 85.7803 55.5014 85.3539 56.2614 84.5939C57.0213 83.8339 57.4477 82.8028 57.4464 81.728V64.5114C57.4464 57.2403 51.5519 51.3458 44.2808 51.3458H68.5865C75.8577 51.3458 81.7521 57.2403 81.7521 64.5114Z" fill="#F5F6F8"/>
<path fill-rule="evenodd" clip-rule="evenodd" d="M68.5866 51.3458H65.5483C69.0401 51.3458 72.3888 52.7329 74.8578 55.2019C77.3269 57.671 78.7139 61.0197 78.7139 64.5114V81.728C78.7153 82.8028 78.2889 83.8339 77.5289 84.5939C76.7689 85.3539 75.7378 85.7803 74.663 85.7789H77.7012C78.776 85.7803 79.8072 85.3539 80.5671 84.5939C81.3271 83.8339 81.7535 82.8028 81.7522 81.728V64.5114C81.7522 61.0197 80.3651 57.671 77.896 55.2019C75.427 52.7329 72.0783 51.3458 68.5866 51.3458Z" fill="#DADCE3"/>
<path fill-rule="evenodd" clip-rule="evenodd" d="M33.1409 59.4478C31.5567 61.0274 28.993 61.0274 27.4088 59.4478L23.9047 55.9437C22.7199 54.7536 22.7199 52.8297 23.9047 51.6395L25.3327 50.2116C26.5228 49.0268 28.4467 49.0268 29.6368 50.2116L31.6015 52.1763L33.1409 53.7157C34.7205 55.2999 34.7205 57.8635 33.1409 59.4478Z" fill="#F5F6F8"/>
<path fill-rule="evenodd" clip-rule="evenodd" d="M33.1407 53.7156L31.6013 52.1763L29.6366 50.2116C28.6588 49.2433 27.1534 49.0507 25.9634 49.7417C26.1945 49.8702 26.4079 50.0281 26.5984 50.2116L28.5631 52.1763L30.1024 53.7156C31.0646 54.6763 31.4806 56.0555 31.2102 57.388C30.9398 58.7204 30.019 59.8283 28.7585 60.3379C30.545 61.0616 32.594 60.4263 33.6577 58.8188C34.7214 57.2114 34.5051 55.0771 33.1407 53.7156Z" fill="#F5F6F8"/>
<path fill-rule="evenodd" clip-rule="evenodd" d="M38.7109 51.2442C38.8973 51.2675 39.0836 51.2868 39.273 51.301C39.589 51.3293 39.907 51.3496 40.2301 51.3496C40.738 51.3477 41.2454 51.3139 41.7492 51.2483C35.6527 50.5098 31.0675 45.3357 31.0675 39.1947C31.0675 33.0537 35.6527 27.8795 41.7492 27.1411C41.2454 27.0755 40.738 27.0417 40.2301 27.0398C39.907 27.0398 39.589 27.06 39.273 27.0884C39.0836 27.1026 38.8973 27.1218 38.7109 27.1451C32.6364 27.9062 28.0786 33.0706 28.0786 39.1927C28.0786 45.3147 32.6364 50.4791 38.7109 51.2402V51.2442Z" fill="white"/>
<path fill-rule="evenodd" clip-rule="evenodd" d="M33.9956 51.5319L34.6397 52.176C36.1015 51.6199 37.6533 51.3384 39.2173 51.3456H36.1791C35.4473 51.3469 34.717 51.4092 33.9956 51.5319Z" fill="white"/>
<path fill-rule="evenodd" clip-rule="evenodd" d="M27.0642 85.7787H30.1024C27.8651 85.7787 26.0514 83.965 26.0514 81.7277V64.5112C26.0514 62.4928 26.5176 60.5016 27.4135 58.693C27.8721 57.8103 27.7133 56.7332 27.0196 56.0204L26.9426 55.9434C25.7579 54.7533 25.7579 52.8294 26.9426 51.6393L28.3706 50.2113C28.5594 50.0277 28.7715 49.8697 29.0015 49.7414C28.9082 49.6854 28.8119 49.6347 28.7129 49.5895C28.6349 49.5561 28.5569 49.5287 28.4779 49.5014C28.3919 49.4708 28.3044 49.4448 28.2156 49.4234C28.1204 49.4001 28.0242 49.3799 27.927 49.3657C27.8622 49.3566 27.7974 49.3515 27.7326 49.3464C27.6138 49.3346 27.4944 49.3299 27.3751 49.3323H27.3538C26.5953 49.3722 25.8765 49.6835 25.3283 50.2093L23.9044 51.6393C22.7196 52.8294 22.7196 54.7533 23.9044 55.9434L25.2108 57.2498C25.0083 57.5537 24.8199 57.8696 24.6417 58.1917C24.6316 58.2099 24.6214 58.2302 24.6113 58.2494C23.5595 60.1687 23.0097 62.3226 23.0132 64.5112V81.7277C23.0132 82.8021 23.44 83.8325 24.1997 84.5922C24.9594 85.3519 25.9898 85.7787 27.0642 85.7787Z" fill="white"/>
<path fill-rule="evenodd" clip-rule="evenodd" d="M22.0005 73.6261H24.026V81.728H22.0005V73.6261Z" fill="white"/>
<path d="M23.0127 78.6899C23.5721 78.6899 24.0255 78.2365 24.0255 77.6772C24.0255 77.1178 23.5721 76.6644 23.0127 76.6644C22.4534 76.6644 22 77.1178 22 77.6772C22 78.2365 22.4534 78.6899 23.0127 78.6899Z" fill="#36405B"/>
<path d="M71.1239 50.5732C76.0909 47.6983 78.6215 41.9356 77.3773 36.3331C76.133 30.7306 71.4011 26.5808 65.6841 26.0786C59.9671 25.5765 54.5841 28.8377 52.3822 34.1375C50.1876 28.8271 44.8025 25.5534 39.078 26.0495C33.3535 26.5456 28.6119 30.6969 27.3635 36.3056C26.1152 41.9144 28.6485 47.6848 33.6222 50.5621C33.0295 50.6751 32.4451 50.8284 31.8732 51.0208L30.347 49.4946C28.7447 47.9632 26.2212 47.9632 24.619 49.4946L23.1869 50.9267C21.6055 52.5086 21.6055 55.0728 23.1869 56.6547L23.9293 57.3981C22.6632 59.5547 21.997 62.0107 22 64.5115V73.6262C22 74.1855 22.4534 74.6389 23.0127 74.6389C23.5721 74.6389 24.0255 74.1855 24.0255 73.6262V64.5115C24.0239 62.5513 24.5023 60.6205 25.419 58.8878L26.6951 60.1638C28.6751 62.1266 31.8691 62.1196 33.8405 60.1482C35.8119 58.1768 35.8189 54.9828 33.8561 53.0028L33.5169 52.6635C34.3899 52.4628 35.2826 52.3605 36.1784 52.3587H44.2803C50.9891 52.3659 56.4259 57.8027 56.4331 64.5115V81.7281C56.4331 83.4061 55.0729 84.7663 53.3949 84.7663C51.7169 84.7663 50.3567 83.4061 50.3567 81.7281V65.5243C50.3567 64.965 49.9033 64.5115 49.344 64.5115C48.7846 64.5115 48.3312 64.965 48.3312 65.5243V81.7281C48.3349 82.8274 48.7 83.895 49.3703 84.7663H31.0893C31.7575 83.8939 32.122 82.8269 32.1274 81.7281V65.5243C32.1274 64.965 31.674 64.5115 31.1147 64.5115C30.5553 64.5115 30.1019 64.965 30.1019 65.5243V81.7281C30.1019 83.4061 28.7417 84.7663 27.0637 84.7663C25.3857 84.7663 24.0255 83.4061 24.0255 81.7281C24.0255 81.1688 23.5721 80.7154 23.0127 80.7154C22.4534 80.7154 22 81.1688 22 81.7281C22.0034 84.5233 24.2685 86.7884 27.0637 86.7918H77.7006C80.4959 86.7884 82.761 84.5233 82.7643 81.7281V64.5115C82.7533 57.6662 77.8577 51.8041 71.1239 50.5732ZM32.4241 58.7318C31.8543 59.3017 31.0815 59.6219 30.2756 59.6219C29.4697 59.6219 28.6969 59.3017 28.1271 58.7318L24.619 55.2227C23.8282 54.4317 23.8282 53.1496 24.619 52.3587L26.051 50.9267C26.8419 50.1359 28.124 50.1359 28.915 50.9267L32.4241 54.4348C32.994 55.0046 33.3142 55.7774 33.3142 56.5833C33.3142 57.3892 32.994 58.162 32.4241 58.7318ZM64.535 28.0529C70.6876 28.0529 75.6752 33.0405 75.6752 39.1931C75.6752 45.3456 70.6876 50.3332 64.535 50.3332C58.3825 50.3332 53.3949 45.3456 53.3949 39.1931C53.4022 33.0435 58.3855 28.0602 64.535 28.0529ZM57.5471 50.3332H47.2172C49.5239 48.8847 51.3275 46.7599 52.3822 44.2487C53.4368 46.7599 55.2405 48.8847 57.5471 50.3332ZM29.0892 39.1931C29.0892 33.0405 34.0768 28.0529 40.2293 28.0529C46.3818 28.0529 51.3694 33.0405 51.3694 39.1931C51.3694 45.3456 46.3818 50.3332 40.2293 50.3332C34.0798 50.3259 29.0964 45.3426 29.0892 39.1931ZM80.7389 81.7281C80.7389 83.4061 79.3786 84.7663 77.7006 84.7663C76.0227 84.7663 74.6624 83.4061 74.6624 81.7281V65.5243C74.6624 64.965 74.209 64.5115 73.6497 64.5115C73.0904 64.5115 72.6369 64.965 72.6369 65.5243V81.7281C72.6407 82.8274 73.0058 83.895 73.676 84.7663H57.4205C58.0887 83.8939 58.4532 82.8269 58.4586 81.7281V64.5115C58.4525 59.5266 55.8273 54.9115 51.5456 52.3587H68.586C75.2948 52.3659 80.7316 57.8027 80.7389 64.5115V81.7281Z" fill="#36405B"/>
</svg>
