<svg width="183" height="48" viewBox="0 0 183 48" fill="none" xmlns="http://www.w3.org/2000/svg">
<g clip-path="url(#clip0_514_13721)">
<path fill-rule="evenodd" clip-rule="evenodd" d="M79.116 6.79538C79.116 4.91714 77.7028 3.46802 75.8723 3.46802C74.0474 3.46802 72.6286 4.91714 72.6286 6.79538C72.6286 8.67362 74.0474 10.1223 75.8723 10.1223C77.7033 10.1223 79.116 8.67362 79.116 6.79538ZM70.7344 6.79538C70.7344 3.87698 72.951 1.67426 75.8723 1.67426C78.7922 1.67426 81.0102 3.87746 81.0102 6.79538C81.0102 9.71378 78.7922 11.916 75.8723 11.916C72.951 11.916 70.7344 9.71378 70.7344 6.79538ZM89.7199 4.98866C89.7199 4.07282 89.1494 3.43538 88.0596 3.43538H86.3872C86.3032 3.43538 86.2226 3.46961 86.1632 3.53055C86.1038 3.5915 86.0704 3.67415 86.0704 3.76034V6.19826C86.0704 6.3773 86.2127 6.52226 86.3872 6.52226H88.0596C89.1499 6.52226 89.7199 5.94434 89.7199 4.98866ZM91.5509 5.00786C91.5509 6.8021 90.2959 8.16002 88.3451 8.16002H86.3872C86.3032 8.16002 86.2226 8.19425 86.1632 8.25519C86.1038 8.31614 86.0704 8.39879 86.0704 8.48498V11.4619C86.0705 11.5045 86.0624 11.5467 86.0465 11.5861C86.0307 11.6254 86.0074 11.6612 85.9781 11.6913C85.9488 11.7215 85.9139 11.7454 85.8756 11.7617C85.8372 11.778 85.7961 11.7864 85.7546 11.7864H84.4991C84.4575 11.7865 84.4164 11.7781 84.3779 11.7619C84.3395 11.7456 84.3046 11.7217 84.2751 11.6915C84.2457 11.6614 84.2224 11.6256 84.2064 11.5862C84.1905 11.5468 84.1823 11.5046 84.1823 11.4619V2.12882C84.1823 1.94978 84.3241 1.80434 84.4991 1.80434H88.3451C90.2964 1.80434 91.5504 3.2405 91.5504 5.00834L91.5509 5.00786ZM96.4974 3.85154V5.62562C96.4974 5.80466 96.6383 5.95058 96.8137 5.95058H99.633C99.808 5.95058 99.9498 6.09554 99.9498 6.27554V7.32866C99.9498 7.41484 99.9164 7.4975 99.857 7.55844C99.7976 7.61938 99.7171 7.65362 99.633 7.65362H96.8137C96.7722 7.65355 96.731 7.66188 96.6926 7.67813C96.6542 7.69438 96.6193 7.71823 96.5899 7.74831C96.5605 7.7784 96.5372 7.81414 96.5212 7.85348C96.5052 7.89282 96.497 7.93501 96.4969 7.97762V9.73922C96.4969 9.91874 96.6383 10.0642 96.8137 10.0642H100.102C100.277 10.0642 100.419 10.2096 100.419 10.3882V11.4615C100.419 11.5476 100.385 11.6301 100.326 11.6911C100.267 11.752 100.186 11.7863 100.102 11.7864H94.9251C94.8836 11.7864 94.8424 11.778 94.804 11.7617C94.7656 11.7453 94.7307 11.7214 94.7013 11.6912C94.6719 11.661 94.6486 11.6252 94.6328 11.5858C94.6169 11.5464 94.6088 11.5041 94.6088 11.4615V2.12882C94.6088 1.94978 94.7506 1.80482 94.9251 1.80482H100.102C100.276 1.80482 100.418 1.94978 100.418 2.12882V3.20162C100.418 3.28772 100.385 3.3703 100.326 3.43123C100.266 3.49216 100.186 3.52645 100.102 3.52658H96.8133C96.7292 3.52658 96.6487 3.56081 96.5893 3.62175C96.5298 3.6827 96.4965 3.76535 96.4965 3.85154H96.4974ZM113.018 2.12882V11.4615C113.018 11.5476 112.985 11.6303 112.925 11.6912C112.866 11.7522 112.785 11.7864 112.701 11.7864H111.384C111.336 11.7865 111.289 11.7754 111.246 11.7542C111.203 11.7329 111.165 11.7019 111.136 11.6635L106.246 5.36402C106.059 5.12402 105.682 5.2589 105.682 5.56658V11.4615C105.682 11.5476 105.649 11.6303 105.589 11.6912C105.53 11.7522 105.449 11.7864 105.365 11.7864H104.136C104.052 11.7863 103.972 11.752 103.912 11.6911C103.853 11.6301 103.82 11.5476 103.82 11.4615V2.12882C103.82 1.94978 103.961 1.80434 104.136 1.80434H105.441C105.537 1.80434 105.628 1.84946 105.688 1.92626L110.579 8.20322C110.766 8.44322 111.143 8.30786 111.143 8.00162V2.12834C111.143 1.9493 111.284 1.80386 111.459 1.80386H112.701C112.876 1.80386 113.018 1.9493 113.018 2.12834V2.12882ZM81.0097 23.9871C81.0097 26.9179 78.7992 29.1207 75.8723 29.1207C72.951 29.1207 70.7344 26.9175 70.7344 24C70.7344 21.0816 72.951 18.8794 75.8723 18.8794C77.5522 18.8794 79.0009 19.6119 79.9218 20.7826C79.9513 20.8196 79.9725 20.8629 79.984 20.9093C79.9954 20.9556 79.9968 21.004 79.9881 21.051C79.9793 21.098 79.9607 21.1425 79.9334 21.1813C79.9061 21.2201 79.8708 21.2522 79.8301 21.2755L78.7445 21.8904C78.6821 21.9269 78.6093 21.9404 78.5384 21.9286C78.4675 21.9168 78.4027 21.8805 78.3547 21.8256C77.7651 21.12 76.8821 20.6727 75.8653 20.6727C74.0474 20.6727 72.6286 22.0959 72.6286 24.0451C72.6286 25.872 73.8892 27.3274 75.8976 27.3274C77.3262 27.3274 78.3879 26.5939 78.853 25.4309C78.9368 25.2197 78.7782 24.9879 78.5559 24.9879H76.7777C76.7362 24.9879 76.695 24.9795 76.6566 24.9631C76.6182 24.9468 76.5833 24.9228 76.5539 24.8927C76.5245 24.8625 76.5012 24.8266 76.4854 24.7872C76.4695 24.7478 76.4614 24.7055 76.4614 24.6629V23.7139C76.4614 23.5344 76.6032 23.389 76.7777 23.389H80.6827C80.8506 23.389 80.9868 23.5219 80.999 23.6933C81.006 23.7874 81.0097 23.8853 81.0097 23.9871ZM91.7788 24C91.7788 22.1218 90.3656 20.6731 88.535 20.6731C86.7106 20.6731 85.2913 22.1218 85.2913 24C85.2913 25.8783 86.7106 27.3269 88.535 27.3269C90.3656 27.3269 91.7788 25.8783 91.7788 24ZM83.3971 24C83.3971 21.0816 85.6142 18.8789 88.535 18.8789C91.4549 18.8789 93.673 21.0821 93.673 24C93.673 26.9184 91.4549 29.1211 88.535 29.1211C85.6142 29.1211 83.3971 26.9179 83.3971 24ZM104.482 19.4487L101.034 28.7813C101.012 28.8428 100.971 28.8959 100.919 28.9333C100.866 28.9708 100.803 28.9909 100.739 28.9911H99.2245C99.1603 28.991 99.0976 28.9709 99.0448 28.9335C98.992 28.896 98.9515 28.8429 98.9288 28.7813L95.4871 19.4487C95.4691 19.3995 95.4629 19.3466 95.4691 19.2944C95.4753 19.2423 95.4938 19.1924 95.5229 19.1492C95.552 19.106 95.5909 19.0706 95.6363 19.0462C95.6817 19.0218 95.7321 19.009 95.7833 19.009H97.0982C97.2316 19.009 97.3509 19.0954 97.3958 19.2245L99.684 25.8019C99.7842 26.0899 100.18 26.0899 100.28 25.8024L102.574 19.2245C102.595 19.1614 102.636 19.1068 102.689 19.0682C102.743 19.0297 102.806 19.009 102.872 19.009H104.186C104.407 19.009 104.561 19.236 104.482 19.4487ZM109.376 21.0557V22.8307C109.376 23.0098 109.518 23.1552 109.692 23.1552H112.512C112.687 23.1552 112.829 23.3002 112.829 23.4797V24.5333C112.829 24.6194 112.795 24.7019 112.736 24.7628C112.676 24.8236 112.596 24.8578 112.512 24.8578H109.692C109.608 24.8579 109.528 24.8922 109.469 24.9531C109.409 25.0141 109.376 25.0966 109.376 25.1827V26.9443C109.376 27.1234 109.518 27.2683 109.692 27.2683H112.981C113.156 27.2683 113.297 27.4143 113.297 27.5933V28.6661C113.297 28.7087 113.289 28.751 113.273 28.7904C113.257 28.8298 113.234 28.8657 113.205 28.8959C113.175 28.926 113.14 28.95 113.102 28.9663C113.064 28.9827 113.022 28.9911 112.981 28.9911H107.804C107.762 28.991 107.721 28.9825 107.683 28.9662C107.644 28.9498 107.609 28.9259 107.58 28.8957C107.551 28.8655 107.528 28.8297 107.512 28.7903C107.496 28.7509 107.488 28.7087 107.488 28.6661V19.3339C107.488 19.1544 107.629 19.009 107.804 19.009H112.981C113.156 19.009 113.297 19.1544 113.297 19.3339V20.4067C113.297 20.4494 113.289 20.4916 113.273 20.531C113.257 20.5704 113.234 20.6062 113.205 20.6363C113.175 20.6665 113.14 20.6904 113.102 20.7066C113.064 20.7229 113.022 20.7313 112.981 20.7312H109.692C109.608 20.7313 109.528 20.7656 109.469 20.8264C109.409 20.8872 109.376 20.9697 109.376 21.0557ZM118.586 22.8955C118.586 23.0746 118.728 23.2205 118.903 23.2205H120.373C121.279 23.2205 121.767 22.7453 121.767 21.9466C121.767 21.1603 121.279 20.6467 120.372 20.6467H118.903C118.819 20.6467 118.738 20.681 118.679 20.7419C118.619 20.8029 118.586 20.8855 118.586 20.9717V22.8955ZM119.983 24.7728H118.902C118.818 24.7728 118.737 24.8071 118.678 24.868C118.619 24.9289 118.585 25.0116 118.585 25.0978V28.6661C118.585 28.7087 118.577 28.751 118.561 28.7904C118.545 28.8298 118.522 28.8657 118.493 28.8959C118.463 28.926 118.429 28.95 118.39 28.9663C118.352 28.9827 118.311 28.9911 118.269 28.9911H117.014C116.972 28.9911 116.931 28.9827 116.893 28.9663C116.854 28.95 116.819 28.926 116.79 28.8959C116.761 28.8657 116.737 28.8298 116.722 28.7904C116.706 28.751 116.698 28.7087 116.698 28.6661V19.3339C116.698 19.1544 116.839 19.009 117.014 19.009H120.499C122.5 19.009 123.596 20.3347 123.596 21.9658C123.596 23.0578 123.05 23.9338 122.208 24.4032C122.171 24.4238 122.139 24.4519 122.112 24.4858C122.086 24.5197 122.066 24.5587 122.055 24.6005C122.044 24.6423 122.041 24.686 122.047 24.729C122.052 24.7719 122.066 24.8133 122.088 24.8506L124.195 28.501C124.223 28.5503 124.238 28.6064 124.239 28.6635C124.239 28.7207 124.225 28.777 124.197 28.8267C124.169 28.8763 124.129 28.9176 124.081 28.9464C124.033 28.9752 123.978 28.9904 123.923 28.9906H122.612C122.556 28.9907 122.5 28.9752 122.451 28.9457C122.402 28.9161 122.362 28.8736 122.335 28.8226L120.26 24.9418C120.232 24.8907 120.192 24.8481 120.143 24.8183C120.095 24.7886 120.039 24.7729 119.982 24.7728H119.983ZM136.52 19.3339V28.6666C136.52 28.7526 136.486 28.8351 136.427 28.8959C136.368 28.9567 136.287 28.9909 136.203 28.9911H134.886C134.838 28.9912 134.791 28.9802 134.748 28.959C134.705 28.9378 134.667 28.9069 134.638 28.8687L129.748 22.5687C129.561 22.3287 129.184 22.464 129.184 22.7712V28.6666C129.184 28.7527 129.15 28.8352 129.091 28.896C129.032 28.9569 128.951 28.9911 128.867 28.9911H127.637C127.554 28.9909 127.473 28.9567 127.414 28.8959C127.355 28.835 127.322 28.7526 127.322 28.6666V19.3339C127.322 19.1544 127.463 19.009 127.637 19.009H128.943C129.039 19.009 129.13 19.0541 129.19 19.1314L134.081 25.4079C134.268 25.6479 134.645 25.5125 134.645 25.2053V19.3344C134.645 19.1549 134.786 19.0095 134.961 19.0095H136.203C136.378 19.0095 136.52 19.1549 136.52 19.3344L136.52 19.3339ZM150.994 19.3339V28.6666C150.994 28.7526 150.961 28.8352 150.902 28.896C150.842 28.9569 150.762 28.9911 150.678 28.9911H149.423C149.339 28.9911 149.259 28.9569 149.199 28.896C149.14 28.8352 149.106 28.7527 149.106 28.6666V23.2531C149.106 22.8975 148.629 22.801 148.497 23.1303L146.241 28.7895C146.217 28.849 146.177 28.8999 146.125 28.9357C146.073 28.9716 146.011 28.9909 145.949 28.9911H145.392C145.329 28.991 145.267 28.9717 145.215 28.9356C145.163 28.8995 145.122 28.8483 145.098 28.7885L142.855 23.1274C142.724 22.7976 142.245 22.8931 142.245 23.2498V28.6666C142.245 28.7527 142.212 28.8352 142.152 28.896C142.093 28.9569 142.013 28.9911 141.929 28.9911H140.674C140.59 28.9911 140.51 28.9569 140.45 28.896C140.391 28.8352 140.357 28.7527 140.357 28.6666V19.3339C140.357 19.1544 140.5 19.009 140.674 19.009H142.706C142.834 19.009 142.949 19.0882 142.998 19.2096L145.375 25.1155C145.399 25.175 145.439 25.2259 145.491 25.2617C145.543 25.2976 145.604 25.3168 145.667 25.3169C145.73 25.317 145.791 25.298 145.843 25.2623C145.895 25.2266 145.936 25.1759 145.96 25.1165L148.36 19.2087C148.384 19.1496 148.425 19.0991 148.477 19.0636C148.529 19.028 148.59 19.009 148.652 19.009H150.679C150.853 19.009 150.994 19.1544 150.994 19.3339ZM156.727 21.0557V22.8307C156.727 23.0098 156.868 23.1552 157.043 23.1552H159.863C160.038 23.1552 160.179 23.3002 160.179 23.4797V24.5333C160.179 24.6194 160.146 24.7019 160.087 24.7627C160.027 24.8236 159.947 24.8578 159.863 24.8578H157.043C156.959 24.8578 156.879 24.892 156.819 24.953C156.76 25.0139 156.727 25.0966 156.727 25.1827V26.9443C156.727 27.1234 156.868 27.2683 157.043 27.2683H160.332C160.507 27.2683 160.648 27.4143 160.648 27.5933V28.6661C160.648 28.7087 160.64 28.7509 160.624 28.7903C160.608 28.8297 160.585 28.8655 160.556 28.8957C160.526 28.9259 160.491 28.9498 160.453 28.9662C160.415 28.9825 160.374 28.991 160.332 28.9911H155.155C155.113 28.9911 155.072 28.9827 155.034 28.9663C154.995 28.95 154.96 28.926 154.931 28.8959C154.902 28.8657 154.878 28.8298 154.862 28.7904C154.847 28.751 154.838 28.7087 154.838 28.6661V19.3339C154.838 19.1544 154.981 19.009 155.155 19.009H160.332C160.507 19.009 160.648 19.1544 160.648 19.3339V20.4067C160.648 20.4493 160.64 20.4915 160.624 20.5309C160.608 20.5702 160.585 20.606 160.556 20.6362C160.526 20.6663 160.491 20.6902 160.453 20.7065C160.415 20.7228 160.374 20.7312 160.332 20.7312H157.043C156.959 20.7312 156.879 20.7654 156.82 20.8262C156.76 20.8871 156.727 20.9696 156.727 21.0557ZM173.248 19.3339V28.6666C173.248 28.7093 173.24 28.7515 173.224 28.7909C173.208 28.8303 173.184 28.8661 173.155 28.8962C173.125 28.9264 173.09 28.9502 173.052 28.9665C173.013 28.9828 172.972 28.9911 172.931 28.9911H171.613C171.566 28.9911 171.519 28.9801 171.476 28.9589C171.433 28.9377 171.395 28.9069 171.366 28.8687L166.475 22.5687C166.289 22.3287 165.912 22.464 165.912 22.7712V28.6666C165.912 28.7526 165.878 28.8351 165.819 28.8959C165.76 28.9567 165.679 28.9909 165.595 28.9911H164.365C164.281 28.9909 164.201 28.9567 164.141 28.8959C164.082 28.835 164.049 28.7526 164.049 28.6666V19.3339C164.049 19.1544 164.19 19.009 164.365 19.009H165.67C165.767 19.009 165.857 19.0541 165.917 19.1314L170.809 25.4079C170.995 25.6479 171.372 25.5125 171.372 25.2053V19.3344C171.372 19.1549 171.513 19.0095 171.689 19.0095H172.931C173.106 19.0095 173.247 19.1549 173.247 19.3344" fill="white"/>
<mask id="mask0_514_13721" style="mask-type:alpha" maskUnits="userSpaceOnUse" x="176" y="19" width="8" height="10">
<path d="M176.172 19.0089H183.065V28.991H176.172V19.0089Z" fill="white"/>
</mask>
<g mask="url(#mask0_514_13721)">
<path fill-rule="evenodd" clip-rule="evenodd" d="M182.749 20.7311H180.879C180.837 20.7311 180.796 20.7395 180.758 20.7559C180.719 20.7722 180.684 20.7962 180.655 20.8263C180.626 20.8565 180.602 20.8923 180.586 20.9318C180.571 20.9712 180.562 21.0134 180.563 21.0561V28.6665C180.562 28.7525 180.529 28.835 180.47 28.8958C180.41 28.9566 180.33 28.9908 180.246 28.991H178.997C178.913 28.9908 178.833 28.9566 178.774 28.8958C178.714 28.835 178.681 28.7525 178.681 28.6665V21.0561C178.681 21.0134 178.673 20.9712 178.657 20.9318C178.641 20.8923 178.618 20.8565 178.588 20.8263C178.559 20.7962 178.524 20.7722 178.486 20.7559C178.447 20.7395 178.406 20.7311 178.365 20.7311H176.489C176.405 20.7311 176.325 20.697 176.265 20.6363C176.206 20.5756 176.173 20.4931 176.172 20.4071V19.3338C176.172 19.1543 176.314 19.0089 176.489 19.0089H182.749C182.924 19.0089 183.065 19.1543 183.065 19.3338V20.4066C183.065 20.4927 183.032 20.5753 182.973 20.6361C182.913 20.697 182.833 20.7311 182.749 20.7311Z" fill="white"/>
</g>
<path fill-rule="evenodd" clip-rule="evenodd" d="M76.9423 39.3982C76.9423 38.4823 76.3724 37.8449 75.2826 37.8449H73.6102C73.5262 37.8449 73.4456 37.8791 73.3862 37.9401C73.3268 38.001 73.2934 38.0837 73.2934 38.1698V40.6078C73.2934 40.7868 73.4352 40.9318 73.6102 40.9318H75.2826C76.3729 40.9318 76.9428 40.3538 76.9428 39.3982H76.9423ZM78.7738 39.4183C78.7738 41.2116 77.5198 42.5695 75.5675 42.5695H73.6102C73.5262 42.5695 73.4456 42.6038 73.3862 42.6647C73.3268 42.7256 73.2934 42.8083 73.2934 42.8945V45.8714C73.2934 45.9141 73.2853 45.9563 73.2694 45.9957C73.2536 46.0351 73.2303 46.0709 73.2009 46.101C73.1715 46.1312 73.1366 46.1551 73.0982 46.1713C73.0598 46.1876 73.0186 46.196 72.9771 46.1959H71.7221C71.6805 46.196 71.6393 46.1876 71.6009 46.1714C71.5624 46.1551 71.5275 46.1312 71.4981 46.101C71.4687 46.0709 71.4453 46.0351 71.4294 45.9957C71.4135 45.9563 71.4053 45.9141 71.4053 45.8714V36.5383C71.4053 36.3593 71.5466 36.2138 71.7221 36.2138H75.5675C77.5193 36.2138 78.7738 37.6505 78.7738 39.4183ZM83.7199 40.1004C83.7199 40.2794 83.8617 40.4254 84.0367 40.4254H85.506C86.4119 40.4254 86.9004 39.9502 86.9004 39.151C86.9004 38.3647 86.4119 37.8516 85.506 37.8516H84.0367C83.9951 37.8515 83.9539 37.8599 83.9155 37.8762C83.877 37.8924 83.8421 37.9163 83.8127 37.9465C83.7833 37.9766 83.7599 38.0124 83.744 38.0518C83.7281 38.0912 83.7199 38.1334 83.7199 38.1761V40.1009V40.1004ZM85.1162 41.9782H84.0367C83.9527 41.9782 83.8722 42.0123 83.8128 42.0732C83.7534 42.134 83.72 42.2165 83.7199 42.3026V45.871C83.7199 45.9136 83.7118 45.9559 83.6959 45.9954C83.68 46.0348 83.6567 46.0707 83.6272 46.1009C83.5978 46.1311 83.5629 46.155 83.5244 46.1713C83.4859 46.1876 83.4447 46.196 83.4031 46.1959H82.1481C82.1065 46.1959 82.0653 46.1875 82.0269 46.1712C81.9885 46.1548 81.9536 46.1309 81.9243 46.1007C81.8949 46.0705 81.8716 46.0347 81.8557 45.9953C81.8398 45.9559 81.8317 45.9136 81.8318 45.871V36.5383C81.8318 36.3593 81.9731 36.2143 82.1481 36.2143H85.6328C87.6346 36.2143 88.731 37.5396 88.731 39.1706C88.731 40.2622 88.1844 41.1391 87.3426 41.6076C87.3055 41.6283 87.2728 41.6564 87.2466 41.6903C87.2203 41.7242 87.2009 41.7632 87.1897 41.805C87.1784 41.8467 87.1754 41.8904 87.181 41.9333C87.1865 41.9763 87.2004 42.0176 87.2219 42.055L89.3285 45.7058C89.3569 45.7551 89.3721 45.8111 89.3725 45.8683C89.373 45.9255 89.3587 45.9819 89.3311 46.0316C89.3035 46.0813 89.2636 46.1226 89.2154 46.1514C89.1672 46.1802 89.1124 46.1954 89.0567 46.1954H87.7465C87.6898 46.1955 87.6341 46.1799 87.5853 46.1504C87.5365 46.1208 87.4963 46.0784 87.469 46.0274L85.3937 42.1466C85.3664 42.0956 85.3262 42.0531 85.2774 42.0235C85.2286 41.9938 85.1729 41.9782 85.1162 41.9782ZM99.9057 41.2049C99.9057 39.3266 98.4925 37.878 96.662 37.878C94.8375 37.878 93.4183 39.3266 93.4183 41.2049C93.4183 43.0831 94.8375 44.5322 96.662 44.5322C98.4925 44.5322 99.9057 43.0831 99.9057 41.2049ZM91.5241 41.2049C91.5241 38.2865 93.7412 36.0842 96.662 36.0842C99.5819 36.0842 101.8 38.2865 101.8 41.2049C101.8 44.1233 99.5819 46.326 96.662 46.326C93.7412 46.326 91.5241 44.1228 91.5241 41.2049ZM108.223 44.4737C110.288 44.4737 111.289 43.3169 111.289 41.2049C111.289 39.0929 110.288 37.9366 108.223 37.9366H107.17C107.086 37.9366 107.006 37.9707 106.946 38.0316C106.887 38.0924 106.854 38.175 106.854 38.261V44.1487C106.854 44.3282 106.995 44.4737 107.17 44.4737H108.223ZM104.972 36.5383C104.972 36.3593 105.114 36.2143 105.289 36.2143H108.304C111.536 36.2143 113.246 38.1823 113.246 41.2049C113.246 44.227 111.536 46.1959 108.304 46.1959H105.289C105.247 46.1959 105.206 46.1875 105.168 46.1712C105.129 46.1548 105.094 46.1309 105.065 46.1007C105.036 46.0705 105.012 46.0347 104.996 45.9953C104.981 45.9559 104.972 45.9136 104.972 45.871V36.5383ZM116.28 42.7385V36.5388C116.28 36.3588 116.421 36.2138 116.596 36.2138H117.851C118.026 36.2138 118.168 36.3588 118.168 36.5388V42.4394C118.168 44.0316 119.061 44.6105 120.234 44.6105C121.411 44.6105 122.304 44.0316 122.304 42.4394V36.5388C122.304 36.3588 122.447 36.2138 122.621 36.2138H123.883C124.058 36.2138 124.199 36.3588 124.199 36.5388V42.7385C124.199 45.1236 122.488 46.3255 120.234 46.3255C117.991 46.3255 116.28 45.1236 116.28 42.7385H116.28ZM127.175 41.2049C127.175 38.2865 129.386 36.0842 132.313 36.0842C133.628 36.0842 134.881 36.5854 135.784 37.4018C135.817 37.4318 135.844 37.4687 135.863 37.5101C135.882 37.5514 135.892 37.5964 135.893 37.6421C135.894 37.6878 135.886 37.7332 135.868 37.7753C135.851 37.8174 135.825 37.8553 135.793 37.8866L134.924 38.7228C134.866 38.7783 134.791 38.8096 134.712 38.8105C134.633 38.8114 134.557 38.7818 134.498 38.7276C133.924 38.1914 133.142 37.878 132.313 37.878C130.481 37.878 129.069 39.3204 129.069 41.2049C129.069 43.0894 130.481 44.5322 132.312 44.5322C133.142 44.5322 133.924 44.2183 134.498 43.6822C134.557 43.6278 134.633 43.5981 134.712 43.599C134.791 43.5999 134.867 43.6313 134.924 43.687L135.793 44.5236C135.825 44.5549 135.851 44.5928 135.868 44.635C135.886 44.6771 135.894 44.7224 135.893 44.7681C135.892 44.8138 135.882 44.8588 135.863 44.9002C135.844 44.9416 135.817 44.9784 135.784 45.0084C134.881 45.8244 133.628 46.326 132.312 46.326C129.386 46.326 127.175 44.1228 127.175 41.2049ZM144.634 37.9361H142.764C142.723 37.9361 142.681 37.9445 142.643 37.9608C142.605 37.9772 142.57 38.0011 142.54 38.0313C142.511 38.0615 142.488 38.0973 142.472 38.1367C142.456 38.1761 142.448 38.2184 142.448 38.261V45.8714C142.448 45.9574 142.414 46.0398 142.355 46.1006C142.296 46.1613 142.215 46.1954 142.132 46.1954H140.883C140.841 46.1955 140.8 46.1872 140.762 46.1709C140.723 46.1547 140.688 46.1308 140.659 46.1007C140.629 46.0707 140.606 46.0349 140.59 45.9956C140.574 45.9562 140.566 45.914 140.566 45.8714V38.261C140.566 38.2184 140.558 38.1762 140.542 38.1368C140.526 38.0973 140.503 38.0615 140.474 38.0313C140.444 38.0011 140.409 37.9772 140.371 37.9608C140.333 37.9445 140.292 37.9361 140.25 37.9361H138.374C138.29 37.9359 138.209 37.9017 138.15 37.8409C138.091 37.78 138.058 37.6976 138.058 37.6116V36.5388C138.058 36.3588 138.199 36.2138 138.374 36.2138H144.634C144.809 36.2138 144.95 36.3588 144.95 36.5388V37.6116C144.95 37.6977 144.917 37.7802 144.857 37.8411C144.798 37.9019 144.718 37.9361 144.634 37.9361ZM147.239 44.5034L147.924 43.626C147.951 43.5909 147.985 43.562 148.024 43.5412C148.062 43.5204 148.105 43.5081 148.149 43.5052C148.192 43.5023 148.236 43.5087 148.277 43.5241C148.318 43.5396 148.355 43.5636 148.387 43.5948C149.041 44.2423 149.942 44.6815 150.734 44.6815C151.494 44.6815 152.045 44.2793 152.045 43.5703C152.045 42.6799 151.177 42.3482 150.068 41.8486C148.795 41.2764 147.452 40.6265 147.452 38.8649C147.452 37.0975 148.795 36.0838 150.455 36.0838C151.553 36.0838 152.587 36.5047 153.435 37.2007C153.565 37.3073 153.584 37.5031 153.485 37.6409L152.872 38.4943C152.847 38.5295 152.815 38.5591 152.779 38.5814C152.742 38.6036 152.702 38.6181 152.66 38.6238C152.617 38.6296 152.575 38.6265 152.534 38.6148C152.493 38.6031 152.455 38.583 152.421 38.5558C151.768 37.9994 151.029 37.7282 150.411 37.7282C149.796 37.7282 149.309 38.047 149.309 38.6705C149.309 39.4826 150.144 39.8009 151.266 40.2953C152.546 40.8737 153.933 41.5884 153.933 43.447C153.933 45.3574 152.464 46.3193 150.728 46.3193C149.475 46.3193 148.191 45.8038 147.279 44.9522C147.218 44.8968 147.179 44.8195 147.172 44.736C147.164 44.6526 147.188 44.5694 147.239 44.5034Z" fill="white"/>
<mask id="mask1_514_13721" style="mask-type:alpha" maskUnits="userSpaceOnUse" x="0" y="0" width="17" height="48">
<path d="M0 0.313721H16.7221V47.6878H0V0.313721Z" fill="white"/>
</mask>
<g mask="url(#mask1_514_13721)">
<path fill-rule="evenodd" clip-rule="evenodd" d="M16.5616 42.9117C16.7143 42.6422 16.7607 42.3229 16.6911 42.0194C16.6216 41.716 16.4415 41.4513 16.1877 41.2797C10.7002 37.5914 7.07329 31.2324 7.07329 23.9997C7.07329 16.7681 10.7002 10.409 16.1877 6.72069C16.4414 6.54907 16.6214 6.2844 16.691 5.98095C16.7605 5.67749 16.7142 5.35825 16.5616 5.08869L14.2191 0.927092C14.1373 0.782569 14.0277 0.656595 13.897 0.556809C13.7664 0.457023 13.6173 0.385505 13.4588 0.346591C13.3004 0.307677 13.1359 0.302178 12.9753 0.330427C12.8148 0.358677 12.6615 0.420087 12.5247 0.510932C4.99332 5.47317 0 14.1362 0 24.0002C0 33.8642 4.99285 42.5268 12.5247 47.4895C12.6614 47.5803 12.8147 47.6417 12.9753 47.6699C13.1358 47.6982 13.3003 47.6927 13.4587 47.6538C13.6171 47.615 13.7662 47.5435 13.8969 47.4438C14.0276 47.3441 14.1372 47.2183 14.2191 47.0738L16.5616 42.9117Z" fill="#276EF1"/>
</g>
<path fill-rule="evenodd" clip-rule="evenodd" d="M40.1913 0.926484L37.8493 5.08904C37.6968 5.35843 37.6506 5.67744 37.72 5.9807C37.7894 6.28395 37.9693 6.54849 38.2227 6.72008C43.7102 10.4084 47.3367 16.7679 47.3367 24.0001C47.3367 31.2322 43.7102 37.5913 38.2227 41.2801C37.9693 41.4517 37.7894 41.7162 37.72 42.0195C37.6506 42.3227 37.6968 42.6417 37.8493 42.9111L40.1913 47.0732C40.2732 47.2177 40.3828 47.3436 40.5135 47.4433C40.6441 47.5431 40.7932 47.6146 40.9516 47.6535C41.1101 47.6924 41.2745 47.6979 41.4351 47.6697C41.5956 47.6415 41.749 47.5801 41.8857 47.4894C49.418 42.5266 54.41 33.8641 54.41 24.0001C54.41 14.1361 49.4171 5.47352 41.8857 0.510324C41.749 0.419576 41.5957 0.358258 41.4351 0.330086C41.2746 0.301915 41.1101 0.307476 40.9517 0.346432C40.7934 0.385389 40.6443 0.45693 40.5137 0.556719C40.3831 0.656509 40.2736 0.782468 40.1918 0.926964" fill="#276EF1"/>
</g>
<defs>
<clipPath id="clip0_514_13721">
<rect width="183" height="48" fill="white"/>
</clipPath>
</defs>
</svg>
