<svg width="126" height="22" viewBox="0 0 126 22" fill="none" xmlns="http://www.w3.org/2000/svg">
<path d="M0.248755 21.326V5.22603H3.12535L3.21455 6.94306C3.61593 6.30382 4.15111 5.8058 4.82009 5.44902C5.48907 5.07736 6.22494 4.89154 7.02771 4.89154C7.80075 4.89154 8.51432 5.04763 9.16843 5.35982C9.82254 5.67201 10.3949 6.11056 10.8855 6.67547C11.3761 7.22552 11.7551 7.8722 12.0227 8.6155C12.3052 9.35881 12.4464 10.169 12.4464 11.0461C12.4464 11.9381 12.3052 12.7632 12.0227 13.5213C11.7403 14.2795 11.3463 14.9485 10.8409 15.5283C10.3354 16.0932 9.74078 16.5391 9.05694 16.8662C8.3731 17.1784 7.63722 17.3345 6.84932 17.3345C6.12088 17.3345 5.45933 17.1933 4.86469 16.9108C4.27004 16.6135 3.77203 16.2047 3.37064 15.6843V21.326H0.248755ZM6.29184 14.5248C6.85675 14.5248 7.3622 14.3761 7.80818 14.0788C8.25417 13.7815 8.60352 13.3801 8.85624 12.8746C9.12383 12.3543 9.25763 11.7671 9.25763 11.113C9.25763 10.4589 9.12383 9.87912 8.85624 9.37368C8.60352 8.85336 8.25417 8.44454 7.80818 8.14722C7.3622 7.8499 6.85675 7.70124 6.29184 7.70124C5.72692 7.70124 5.22148 7.8499 4.77549 8.14722C4.32951 8.44454 3.97272 8.85336 3.70513 9.37368C3.45241 9.87912 3.32604 10.4589 3.32604 11.113C3.32604 11.7671 3.45241 12.3543 3.70513 12.8746C3.97272 13.3801 4.32951 13.7815 4.77549 14.0788C5.22148 14.3761 5.72692 14.5248 6.29184 14.5248ZM20.1743 17.3345C19.2972 17.3345 18.487 17.1858 17.7437 16.8885C17.0153 16.5763 16.3834 16.1452 15.8483 15.5952C15.3131 15.0302 14.8968 14.3687 14.5995 13.6105C14.3022 12.8375 14.1535 11.9975 14.1535 11.0907C14.1535 10.2136 14.3022 9.39597 14.5995 8.6378C14.8968 7.87963 15.3056 7.22552 15.826 6.67547C16.3611 6.11056 16.9855 5.67201 17.6991 5.35982C18.4127 5.04763 19.1857 4.89154 20.0182 4.89154C20.8804 4.89154 21.6609 5.0402 22.3596 5.33752C23.0732 5.63484 23.6827 6.05853 24.1882 6.60857C24.6936 7.15862 25.0801 7.81273 25.3477 8.5709C25.6302 9.32908 25.7714 10.1764 25.7714 11.113V11.8935H17.32C17.4538 12.7706 17.7734 13.4619 18.2789 13.9673C18.7843 14.4579 19.4236 14.7032 20.1966 14.7032C20.7318 14.7032 21.2149 14.5768 21.6461 14.3241C22.092 14.0714 22.4563 13.7072 22.7387 13.2314L25.5261 14.1234C25.2585 14.7924 24.8571 15.3647 24.322 15.8404C23.7868 16.3162 23.1624 16.6878 22.4488 16.9554C21.7352 17.2081 20.9771 17.3345 20.1743 17.3345ZM20.0182 7.29985C19.3344 7.29985 18.7546 7.52284 18.2789 7.96883C17.818 8.41481 17.5133 9.02432 17.3646 9.79736H22.5603C22.4414 9.02432 22.1515 8.41481 21.6906 7.96883C21.2447 7.52284 20.6872 7.29985 20.0182 7.29985ZM32.6848 17.3345C31.8672 17.3345 31.1611 17.1784 30.5664 16.8662C29.9866 16.5391 29.5332 16.0709 29.2062 15.4614C28.894 14.8518 28.7379 14.1085 28.7379 13.2314V7.74583H26.731V5.22603H28.7379V1.21217H31.8598V5.22603H35.0709V7.74583H31.8598V12.8523C31.8598 13.4173 31.9787 13.8558 32.2166 14.168C32.4544 14.4653 32.8186 14.614 33.3092 14.614C33.562 14.614 33.8295 14.5768 34.112 14.5025C34.4093 14.4282 34.6918 14.3315 34.9594 14.2126L35.5168 16.554C35.1303 16.7919 34.6992 16.9777 34.2235 17.1115C33.7478 17.2602 33.2349 17.3345 32.6848 17.3345ZM40.7009 2.03724C40.7009 2.37916 40.6191 2.68392 40.4556 2.95151C40.3069 3.2191 40.0914 3.43466 39.8089 3.59818C39.5413 3.74685 39.244 3.82118 38.917 3.82118C38.5899 3.82118 38.2851 3.74685 38.0027 3.59818C37.7351 3.43466 37.5195 3.2191 37.356 2.95151C37.2073 2.68392 37.133 2.37916 37.133 2.03724C37.133 1.69532 37.2073 1.39056 37.356 1.12297C37.5195 0.855383 37.7351 0.647257 38.0027 0.498596C38.2851 0.335068 38.5899 0.253304 38.917 0.253304C39.244 0.253304 39.5413 0.335068 39.8089 0.498596C40.0914 0.647257 40.3069 0.855383 40.4556 1.12297C40.6191 1.39056 40.7009 1.69532 40.7009 2.03724ZM37.356 17V5.22603H40.4779V17H37.356ZM48.0809 17.3345C47.2632 17.3345 46.5571 17.1784 45.9625 16.8662C45.3827 16.5391 44.9293 16.0709 44.6022 15.4614C44.29 14.8518 44.1339 14.1085 44.1339 13.2314V7.74583H42.127V5.22603H44.1339V1.21217H47.2558V5.22603H50.4669V7.74583H47.2558V12.8523C47.2558 13.4173 47.3747 13.8558 47.6126 14.168C47.8505 14.4653 48.2147 14.614 48.7053 14.614C48.958 14.614 49.2256 14.5768 49.508 14.5025C49.8053 14.4282 50.0878 14.3315 50.3554 14.2126L50.9129 16.554C50.5264 16.7919 50.0952 16.9777 49.6195 17.1115C49.1438 17.2602 48.6309 17.3345 48.0809 17.3345ZM56.0969 2.03724C56.0969 2.37916 56.0152 2.68392 55.8516 2.95151C55.703 3.2191 55.4874 3.43466 55.2049 3.59818C54.9374 3.74685 54.64 3.82118 54.313 3.82118C53.9859 3.82118 53.6812 3.74685 53.3987 3.59818C53.1311 3.43466 52.9156 3.2191 52.752 2.95151C52.6034 2.68392 52.529 2.37916 52.529 2.03724C52.529 1.69532 52.6034 1.39056 52.752 1.12297C52.9156 0.855383 53.1311 0.647257 53.3987 0.498596C53.6812 0.335068 53.9859 0.253304 54.313 0.253304C54.64 0.253304 54.9374 0.335068 55.2049 0.498596C55.4874 0.647257 55.703 0.855383 55.8516 1.12297C56.0152 1.39056 56.0969 1.69532 56.0969 2.03724ZM52.752 17V5.22603H55.8739V17H52.752ZM64.0344 17.3345C63.1573 17.3345 62.3471 17.1784 61.6038 16.8662C60.8605 16.554 60.2138 16.1229 59.6637 15.5729C59.1137 15.0079 58.6826 14.3464 58.3704 13.5882C58.0731 12.8301 57.9244 12.005 57.9244 11.113C57.9244 10.221 58.0805 9.40341 58.3927 8.6601C58.7049 7.90193 59.136 7.24039 59.686 6.67547C60.251 6.11056 60.9051 5.67201 61.6484 5.35982C62.4065 5.04763 63.2316 4.89154 64.1236 4.89154C65.0007 4.89154 65.8109 5.04763 66.5542 5.35982C67.2975 5.67201 67.9442 6.11056 68.4942 6.67547C69.0443 7.22552 69.468 7.87963 69.7653 8.6378C70.0775 9.38111 70.2336 10.1987 70.2336 11.0907C70.2336 11.9827 70.0775 12.8078 69.7653 13.5659C69.4531 14.3241 69.0145 14.9856 68.4496 15.5506C67.8996 16.1155 67.2455 16.554 66.4873 16.8662C65.744 17.1784 64.9263 17.3345 64.0344 17.3345ZM64.079 14.5248C64.6439 14.5248 65.1493 14.3761 65.5953 14.0788C66.0413 13.7815 66.3907 13.3801 66.6434 12.8746C66.911 12.3543 67.0448 11.7671 67.0448 11.113C67.0448 10.4589 66.911 9.87912 66.6434 9.37368C66.3907 8.85336 66.0413 8.44454 65.5953 8.14722C65.1493 7.8499 64.6439 7.70124 64.079 7.70124C63.5141 7.70124 63.0086 7.8499 62.5626 8.14722C62.1167 8.44454 61.7599 8.85336 61.4923 9.37368C61.2395 9.87912 61.1132 10.4589 61.1132 11.113C61.1132 11.7671 61.2395 12.3543 61.4923 12.8746C61.7599 13.3801 62.1167 13.7815 62.5626 14.0788C63.0086 14.3761 63.5141 14.5248 64.079 14.5248ZM72.2856 17V5.22603H75.1622L75.2514 6.74237C75.5933 6.17746 76.0616 5.73147 76.6562 5.40442C77.2658 5.0625 77.957 4.89154 78.7301 4.89154C79.5923 4.89154 80.343 5.09966 80.9823 5.51591C81.6364 5.9173 82.1418 6.49708 82.4986 7.25525C82.8554 8.01342 83.0338 8.90539 83.0338 9.93116V17H79.9119V10.3325C79.9119 9.5149 79.7261 8.87566 79.3545 8.41481C78.9828 7.93909 78.4699 7.70124 77.8158 7.70124C77.3401 7.70124 76.9238 7.81273 76.5671 8.03572C76.2103 8.24385 75.9278 8.54117 75.7197 8.92769C75.5116 9.31421 75.4075 9.75276 75.4075 10.2433V17H72.2856ZM89.7626 17.3345C88.9301 17.3345 88.1719 17.2007 87.4881 16.9331C86.8191 16.6655 86.2468 16.2864 85.771 15.7958C85.3102 15.3053 84.9906 14.7255 84.8122 14.0565L87.6219 13.4544C87.7705 13.9153 88.0381 14.2795 88.4247 14.5471C88.8112 14.8147 89.272 14.9485 89.8072 14.9485C90.3126 14.9485 90.7289 14.837 91.056 14.614C91.383 14.391 91.5465 14.0862 91.5465 13.6997C91.5465 13.3727 91.3979 13.1051 91.1006 12.8969C90.8181 12.674 90.3424 12.503 89.6734 12.3841L89.049 12.2726C87.7705 12.0496 86.7968 11.6333 86.1278 11.0238C85.4737 10.4143 85.1467 9.64127 85.1467 8.7047C85.1467 7.96139 85.3399 7.30728 85.7264 6.74237C86.113 6.16259 86.6481 5.70917 87.332 5.38212C88.0158 5.05506 88.8037 4.89154 89.6957 4.89154C90.4836 4.89154 91.1972 5.02533 91.8364 5.29292C92.4905 5.54565 93.0332 5.90987 93.4643 6.38558C93.8954 6.8613 94.1927 7.43364 94.3562 8.10262L91.5688 8.6824C91.4202 8.23642 91.1749 7.88706 90.833 7.63434C90.5059 7.38161 90.1194 7.25525 89.6734 7.25525C89.2126 7.25525 88.8335 7.36675 88.5361 7.58974C88.2388 7.81273 88.0902 8.09519 88.0902 8.43711C88.0902 8.73443 88.2314 8.98716 88.5138 9.19528C88.8112 9.38854 89.3092 9.54464 90.0079 9.66356L90.6323 9.77506C91.8959 9.99805 92.8622 10.4217 93.5312 11.0461C94.2001 11.6556 94.5346 12.4361 94.5346 13.3875C94.5346 13.9673 94.4157 14.4951 94.1778 14.9708C93.9549 15.4465 93.6278 15.8627 93.1967 16.2195C92.7656 16.5763 92.2601 16.8513 91.6803 17.0446C91.1006 17.2379 90.4613 17.3345 89.7626 17.3345ZM101.564 17.3345C100.612 17.3345 99.735 17.171 98.9323 16.8439C98.1444 16.502 97.468 16.0263 96.903 15.4168C96.353 14.7924 95.9739 14.0491 95.7658 13.1868L98.8654 12.5179C99.0586 13.1274 99.3931 13.6031 99.8688 13.945C100.359 14.2869 100.939 14.4579 101.608 14.4579C102.084 14.4579 102.5 14.3761 102.857 14.2126C103.229 14.0342 103.511 13.7963 103.704 13.499C103.912 13.2017 104.016 12.8598 104.016 12.4733C104.016 11.9827 103.831 11.5887 103.459 11.2914C103.087 10.9792 102.485 10.7265 101.653 10.5332L100.939 10.3771C99.3039 10.0204 98.0998 9.44801 97.3267 8.6601C96.5537 7.85733 96.1672 6.8836 96.1672 5.73891C96.1672 5.02533 96.3084 4.37122 96.5909 3.77658C96.8733 3.18193 97.2598 2.66905 97.7504 2.23793C98.2559 1.79195 98.8431 1.45003 99.5121 1.21217C100.181 0.959446 100.902 0.833084 101.675 0.833084C102.552 0.833084 103.37 0.996611 104.128 1.32367C104.886 1.65072 105.525 2.119 106.046 2.72851C106.566 3.33803 106.915 4.05903 107.094 4.89154L104.039 5.56051C103.86 4.96587 103.548 4.51245 103.102 4.20026C102.671 3.87321 102.166 3.70968 101.586 3.70968C101.184 3.70968 100.82 3.79144 100.493 3.95497C100.181 4.10363 99.9283 4.31919 99.735 4.60165C99.5567 4.86924 99.4675 5.17399 99.4675 5.51591C99.4675 6.03623 99.6681 6.43761 100.07 6.72007C100.471 6.98766 101.066 7.21065 101.853 7.38905L102.567 7.54514C104.187 7.90193 105.384 8.46684 106.157 9.23988C106.945 10.0129 107.339 11.0015 107.339 12.2057C107.339 12.9638 107.19 13.6551 106.893 14.2795C106.611 14.9039 106.209 15.4465 105.689 15.9073C105.169 16.3682 104.559 16.725 103.86 16.9777C103.162 17.2156 102.396 17.3345 101.564 17.3345ZM117.308 17.446C116.371 17.446 115.486 17.3122 114.654 17.0446C113.836 16.777 113.086 16.3979 112.402 15.9073C111.733 15.4019 111.153 14.8072 110.662 14.1234C110.187 13.4396 109.815 12.6814 109.547 11.8489C109.28 11.0015 109.146 10.0947 109.146 9.12838C109.146 8.16209 109.28 7.25525 109.547 6.40788C109.815 5.56051 110.194 4.78747 110.685 4.08877C111.175 3.39006 111.762 2.79541 112.446 2.30483C113.13 1.79938 113.881 1.41286 114.699 1.14527C115.531 0.862816 116.416 0.721588 117.352 0.721588C118.408 0.721588 119.389 0.892548 120.296 1.23447C121.202 1.57639 121.998 2.06697 122.682 2.70622C123.38 3.34546 123.923 4.1185 124.309 5.02533L121.098 6.0065C120.697 5.29292 120.177 4.74288 119.537 4.35636C118.913 3.96984 118.185 3.77658 117.352 3.77658C116.668 3.77658 116.036 3.91037 115.457 4.17796C114.877 4.43069 114.371 4.80234 113.94 5.29292C113.509 5.76864 113.175 6.32612 112.937 6.96536C112.699 7.60461 112.58 8.30331 112.58 9.06149C112.58 9.83453 112.699 10.5481 112.937 11.2022C113.175 11.8563 113.509 12.4212 113.94 12.8969C114.386 13.3727 114.907 13.7443 115.501 14.0119C116.096 14.2646 116.75 14.391 117.464 14.391C118.222 14.391 118.898 14.2498 119.493 13.9673C120.087 13.6849 120.571 13.2909 120.942 12.7855C121.314 12.28 121.544 11.6854 121.634 11.0015H117.687V8.25872H125.045V9.93116C125.045 11.0312 124.852 12.0421 124.466 12.9638C124.094 13.8855 123.566 14.6809 122.882 15.3499C122.198 16.0188 121.381 16.5391 120.429 16.9108C119.478 17.2676 118.437 17.446 117.308 17.446Z" fill="#293044"/>
</svg>
