<svg width="127" height="34" viewBox="0 0 127 34" fill="none" xmlns="http://www.w3.org/2000/svg">
<path d="M1.24875 31.326V15.226H4.12535L4.21455 16.9431C4.61593 16.3038 5.15111 15.8058 5.82009 15.449C6.48907 15.0774 7.22494 14.8915 8.02771 14.8915C8.80075 14.8915 9.51432 15.0476 10.1684 15.3598C10.8225 15.672 11.3949 16.1106 11.8855 16.6755C12.3761 17.2255 12.7551 17.8722 13.0227 18.6155C13.3052 19.3588 13.4464 20.169 13.4464 21.0461C13.4464 21.9381 13.3052 22.7632 13.0227 23.5213C12.7403 24.2795 12.3463 24.9485 11.8409 25.5283C11.3354 26.0932 10.7408 26.5391 10.0569 26.8662C9.3731 27.1784 8.63722 27.3345 7.84932 27.3345C7.12088 27.3345 6.45933 27.1933 5.86469 26.9108C5.27004 26.6135 4.77203 26.2047 4.37064 25.6843V31.326H1.24875ZM7.29184 24.5248C7.85675 24.5248 8.3622 24.3761 8.80818 24.0788C9.25417 23.7815 9.60352 23.3801 9.85624 22.8746C10.1238 22.3543 10.2576 21.7671 10.2576 21.113C10.2576 20.4589 10.1238 19.8791 9.85624 19.3737C9.60352 18.8534 9.25417 18.4445 8.80818 18.1472C8.3622 17.8499 7.85675 17.7012 7.29184 17.7012C6.72692 17.7012 6.22148 17.8499 5.77549 18.1472C5.32951 18.4445 4.97272 18.8534 4.70513 19.3737C4.45241 19.8791 4.32604 20.4589 4.32604 21.113C4.32604 21.7671 4.45241 22.3543 4.70513 22.8746C4.97272 23.3801 5.32951 23.7815 5.77549 24.0788C6.22148 24.3761 6.72692 24.5248 7.29184 24.5248ZM21.1743 27.3345C20.2972 27.3345 19.487 27.1858 18.7437 26.8885C18.0153 26.5763 17.3834 26.1452 16.8483 25.5952C16.3131 25.0302 15.8968 24.3687 15.5995 23.6105C15.3022 22.8375 15.1535 21.9975 15.1535 21.0907C15.1535 20.2136 15.3022 19.396 15.5995 18.6378C15.8968 17.8796 16.3056 17.2255 16.826 16.6755C17.3611 16.1106 17.9855 15.672 18.6991 15.3598C19.4127 15.0476 20.1857 14.8915 21.0182 14.8915C21.8804 14.8915 22.6609 15.0402 23.3596 15.3375C24.0732 15.6348 24.6827 16.0585 25.1882 16.6086C25.6936 17.1586 26.0801 17.8127 26.3477 18.5709C26.6302 19.3291 26.7714 20.1764 26.7714 21.113V21.8935H18.32C18.4538 22.7706 18.7734 23.4619 19.2789 23.9673C19.7843 24.4579 20.4236 24.7032 21.1966 24.7032C21.7318 24.7032 22.2149 24.5768 22.6461 24.3241C23.092 24.0714 23.4563 23.7072 23.7387 23.2314L26.5261 24.1234C26.2585 24.7924 25.8571 25.3647 25.322 25.8404C24.7868 26.3162 24.1624 26.6878 23.4488 26.9554C22.7352 27.2081 21.9771 27.3345 21.1743 27.3345ZM21.0182 17.2998C20.3344 17.2998 19.7546 17.5228 19.2789 17.9688C18.818 18.4148 18.5133 19.0243 18.3646 19.7974H23.5603C23.4414 19.0243 23.1515 18.4148 22.6906 17.9688C22.2447 17.5228 21.6872 17.2998 21.0182 17.2998ZM33.6848 27.3345C32.8672 27.3345 32.1611 27.1784 31.5664 26.8662C30.9866 26.5391 30.5332 26.0709 30.2062 25.4614C29.894 24.8518 29.7379 24.1085 29.7379 23.2314V17.7458H27.731V15.226H29.7379V11.2122H32.8598V15.226H36.0709V17.7458H32.8598V22.8523C32.8598 23.4173 32.9787 23.8558 33.2166 24.168C33.4544 24.4653 33.8186 24.614 34.3092 24.614C34.562 24.614 34.8295 24.5768 35.112 24.5025C35.4093 24.4282 35.6918 24.3315 35.9594 24.2126L36.5168 26.554C36.1303 26.7919 35.6992 26.9777 35.2235 27.1115C34.7478 27.2602 34.2349 27.3345 33.6848 27.3345ZM41.7009 12.0372C41.7009 12.3792 41.6191 12.6839 41.4556 12.9515C41.3069 13.2191 41.0914 13.4347 40.8089 13.5982C40.5413 13.7468 40.244 13.8212 39.917 13.8212C39.5899 13.8212 39.2851 13.7468 39.0027 13.5982C38.7351 13.4347 38.5195 13.2191 38.356 12.9515C38.2073 12.6839 38.133 12.3792 38.133 12.0372C38.133 11.6953 38.2073 11.3906 38.356 11.123C38.5195 10.8554 38.7351 10.6473 39.0027 10.4986C39.2851 10.3351 39.5899 10.2533 39.917 10.2533C40.244 10.2533 40.5413 10.3351 40.8089 10.4986C41.0914 10.6473 41.3069 10.8554 41.4556 11.123C41.6191 11.3906 41.7009 11.6953 41.7009 12.0372ZM38.356 27V15.226H41.4779V27H38.356ZM49.0809 27.3345C48.2632 27.3345 47.5571 27.1784 46.9625 26.8662C46.3827 26.5391 45.9293 26.0709 45.6022 25.4614C45.29 24.8518 45.1339 24.1085 45.1339 23.2314V17.7458H43.127V15.226H45.1339V11.2122H48.2558V15.226H51.4669V17.7458H48.2558V22.8523C48.2558 23.4173 48.3747 23.8558 48.6126 24.168C48.8505 24.4653 49.2147 24.614 49.7053 24.614C49.958 24.614 50.2256 24.5768 50.508 24.5025C50.8053 24.4282 51.0878 24.3315 51.3554 24.2126L51.9129 26.554C51.5264 26.7919 51.0952 26.9777 50.6195 27.1115C50.1438 27.2602 49.6309 27.3345 49.0809 27.3345ZM57.0969 12.0372C57.0969 12.3792 57.0152 12.6839 56.8516 12.9515C56.703 13.2191 56.4874 13.4347 56.2049 13.5982C55.9374 13.7468 55.64 13.8212 55.313 13.8212C54.9859 13.8212 54.6812 13.7468 54.3987 13.5982C54.1311 13.4347 53.9156 13.2191 53.752 12.9515C53.6034 12.6839 53.529 12.3792 53.529 12.0372C53.529 11.6953 53.6034 11.3906 53.752 11.123C53.9156 10.8554 54.1311 10.6473 54.3987 10.4986C54.6812 10.3351 54.9859 10.2533 55.313 10.2533C55.64 10.2533 55.9374 10.3351 56.2049 10.4986C56.4874 10.6473 56.703 10.8554 56.8516 11.123C57.0152 11.3906 57.0969 11.6953 57.0969 12.0372ZM53.752 27V15.226H56.8739V27H53.752ZM65.0344 27.3345C64.1573 27.3345 63.3471 27.1784 62.6038 26.8662C61.8605 26.554 61.2138 26.1229 60.6637 25.5729C60.1137 25.0079 59.6826 24.3464 59.3704 23.5882C59.0731 22.8301 58.9244 22.005 58.9244 21.113C58.9244 20.221 59.0805 19.4034 59.3927 18.6601C59.7049 17.9019 60.136 17.2404 60.686 16.6755C61.251 16.1106 61.9051 15.672 62.6484 15.3598C63.4065 15.0476 64.2316 14.8915 65.1236 14.8915C66.0007 14.8915 66.8109 15.0476 67.5542 15.3598C68.2975 15.672 68.9442 16.1106 69.4942 16.6755C70.0443 17.2255 70.468 17.8796 70.7653 18.6378C71.0775 19.3811 71.2336 20.1987 71.2336 21.0907C71.2336 21.9827 71.0775 22.8078 70.7653 23.5659C70.4531 24.3241 70.0145 24.9856 69.4496 25.5506C68.8996 26.1155 68.2455 26.554 67.4873 26.8662C66.744 27.1784 65.9263 27.3345 65.0344 27.3345ZM65.079 24.5248C65.6439 24.5248 66.1493 24.3761 66.5953 24.0788C67.0413 23.7815 67.3907 23.3801 67.6434 22.8746C67.911 22.3543 68.0448 21.7671 68.0448 21.113C68.0448 20.4589 67.911 19.8791 67.6434 19.3737C67.3907 18.8534 67.0413 18.4445 66.5953 18.1472C66.1493 17.8499 65.6439 17.7012 65.079 17.7012C64.5141 17.7012 64.0086 17.8499 63.5626 18.1472C63.1167 18.4445 62.7599 18.8534 62.4923 19.3737C62.2395 19.8791 62.1132 20.4589 62.1132 21.113C62.1132 21.7671 62.2395 22.3543 62.4923 22.8746C62.7599 23.3801 63.1167 23.7815 63.5626 24.0788C64.0086 24.3761 64.5141 24.5248 65.079 24.5248ZM73.2856 27V15.226H76.1622L76.2514 16.7424C76.5933 16.1775 77.0616 15.7315 77.6562 15.4044C78.2658 15.0625 78.957 14.8915 79.7301 14.8915C80.5923 14.8915 81.343 15.0997 81.9823 15.5159C82.6364 15.9173 83.1418 16.4971 83.4986 17.2553C83.8554 18.0134 84.0338 18.9054 84.0338 19.9312V27H80.9119V20.3325C80.9119 19.5149 80.7261 18.8757 80.3545 18.4148C79.9828 17.9391 79.4699 17.7012 78.8158 17.7012C78.3401 17.7012 77.9238 17.8127 77.5671 18.0357C77.2103 18.2438 76.9278 18.5412 76.7197 18.9277C76.5116 19.3142 76.4075 19.7528 76.4075 20.2433V27H73.2856ZM90.7626 27.3345C89.9301 27.3345 89.1719 27.2007 88.4881 26.9331C87.8191 26.6655 87.2468 26.2864 86.771 25.7958C86.3102 25.3053 85.9906 24.7255 85.8122 24.0565L88.6219 23.4544C88.7705 23.9153 89.0381 24.2795 89.4247 24.5471C89.8112 24.8147 90.272 24.9485 90.8072 24.9485C91.3126 24.9485 91.7289 24.837 92.056 24.614C92.383 24.391 92.5465 24.0862 92.5465 23.6997C92.5465 23.3727 92.3979 23.1051 92.1006 22.8969C91.8181 22.674 91.3424 22.503 90.6734 22.3841L90.049 22.2726C88.7705 22.0496 87.7968 21.6333 87.1278 21.0238C86.4737 20.4143 86.1467 19.6413 86.1467 18.7047C86.1467 17.9614 86.3399 17.3073 86.7264 16.7424C87.113 16.1626 87.6481 15.7092 88.332 15.3821C89.0158 15.0551 89.8037 14.8915 90.6957 14.8915C91.4836 14.8915 92.1972 15.0253 92.8364 15.2929C93.4905 15.5456 94.0332 15.9099 94.4643 16.3856C94.8954 16.8613 95.1927 17.4336 95.3562 18.1026L92.5688 18.6824C92.4202 18.2364 92.1749 17.8871 91.833 17.6343C91.5059 17.3816 91.1194 17.2553 90.6734 17.2553C90.2126 17.2553 89.8335 17.3667 89.5361 17.5897C89.2388 17.8127 89.0902 18.0952 89.0902 18.4371C89.0902 18.7344 89.2314 18.9872 89.5138 19.1953C89.8112 19.3885 90.3092 19.5446 91.0079 19.6636L91.6323 19.7751C92.8959 19.9981 93.8622 20.4217 94.5312 21.0461C95.2001 21.6556 95.5346 22.4361 95.5346 23.3875C95.5346 23.9673 95.4157 24.4951 95.1778 24.9708C94.9549 25.4465 94.6278 25.8627 94.1967 26.2195C93.7656 26.5763 93.2601 26.8513 92.6803 27.0446C92.1006 27.2379 91.4613 27.3345 90.7626 27.3345ZM102.564 27.3345C101.612 27.3345 100.735 27.171 99.9323 26.8439C99.1444 26.502 98.468 26.0263 97.903 25.4168C97.353 24.7924 96.9739 24.0491 96.7658 23.1868L99.8654 22.5179C100.059 23.1274 100.393 23.6031 100.869 23.945C101.359 24.2869 101.939 24.4579 102.608 24.4579C103.084 24.4579 103.5 24.3761 103.857 24.2126C104.229 24.0342 104.511 23.7963 104.704 23.499C104.912 23.2017 105.016 22.8598 105.016 22.4733C105.016 21.9827 104.831 21.5887 104.459 21.2914C104.087 20.9792 103.485 20.7265 102.653 20.5332L101.939 20.3771C100.304 20.0204 99.0998 19.448 98.3267 18.6601C97.5537 17.8573 97.1672 16.8836 97.1672 15.7389C97.1672 15.0253 97.3084 14.3712 97.5909 13.7766C97.8733 13.1819 98.2598 12.6691 98.7504 12.2379C99.2559 11.7919 99.8431 11.45 100.512 11.2122C101.181 10.9594 101.902 10.8331 102.675 10.8331C103.552 10.8331 104.37 10.9966 105.128 11.3237C105.886 11.6507 106.525 12.119 107.046 12.7285C107.566 13.338 107.915 14.059 108.094 14.8915L105.039 15.5605C104.86 14.9659 104.548 14.5125 104.102 14.2003C103.671 13.8732 103.166 13.7097 102.586 13.7097C102.184 13.7097 101.82 13.7914 101.493 13.955C101.181 14.1036 100.928 14.3192 100.735 14.6016C100.557 14.8692 100.467 15.174 100.467 15.5159C100.467 16.0362 100.668 16.4376 101.07 16.7201C101.471 16.9877 102.066 17.2107 102.853 17.389L103.567 17.5451C105.187 17.9019 106.384 18.4668 107.157 19.2399C107.945 20.0129 108.339 21.0015 108.339 22.2057C108.339 22.9638 108.19 23.6551 107.893 24.2795C107.611 24.9039 107.209 25.4465 106.689 25.9073C106.169 26.3682 105.559 26.725 104.86 26.9777C104.162 27.2156 103.396 27.3345 102.564 27.3345ZM118.308 27.446C117.371 27.446 116.486 27.3122 115.654 27.0446C114.836 26.777 114.086 26.3979 113.402 25.9073C112.733 25.4019 112.153 24.8072 111.662 24.1234C111.187 23.4396 110.815 22.6814 110.547 21.8489C110.28 21.0015 110.146 20.0947 110.146 19.1284C110.146 18.1621 110.28 17.2553 110.547 16.4079C110.815 15.5605 111.194 14.7875 111.685 14.0888C112.175 13.3901 112.762 12.7954 113.446 12.3048C114.13 11.7994 114.881 11.4129 115.699 11.1453C116.531 10.8628 117.416 10.7216 118.352 10.7216C119.408 10.7216 120.389 10.8925 121.296 11.2345C122.202 11.5764 122.998 12.067 123.682 12.7062C124.38 13.3455 124.923 14.1185 125.309 15.0253L122.098 16.0065C121.697 15.2929 121.177 14.7429 120.537 14.3564C119.913 13.9698 119.185 13.7766 118.352 13.7766C117.668 13.7766 117.036 13.9104 116.457 14.178C115.877 14.4307 115.371 14.8023 114.94 15.2929C114.509 15.7686 114.175 16.3261 113.937 16.9654C113.699 17.6046 113.58 18.3033 113.58 19.0615C113.58 19.8345 113.699 20.5481 113.937 21.2022C114.175 21.8563 114.509 22.4212 114.94 22.8969C115.386 23.3727 115.907 23.7443 116.501 24.0119C117.096 24.2646 117.75 24.391 118.464 24.391C119.222 24.391 119.898 24.2498 120.493 23.9673C121.087 23.6849 121.571 23.2909 121.942 22.7855C122.314 22.28 122.544 21.6854 122.634 21.0015H118.687V18.2587H126.045V19.9312C126.045 21.0312 125.852 22.0421 125.466 22.9638C125.094 23.8855 124.566 24.6809 123.882 25.3499C123.198 26.0188 122.381 26.5391 121.429 26.9108C120.478 27.2676 119.437 27.446 118.308 27.446Z" fill="#293044"/>
<path fill-rule="evenodd" clip-rule="evenodd" d="M1.42105 0.0703125H25.5789C26.3638 0.0703125 27 0.686579 27 1.44678V8.32913C27 9.08934 26.3638 9.7056 25.5789 9.7056H1.42105C0.636227 9.7056 0 9.08934 0 8.32913V1.44678C0 0.686579 0.636227 0.0703125 1.42105 0.0703125ZM4.34467 6.08293L3.93103 7.27513H3.20977L4.83055 2.77031H5.61583L7.23731 7.27513H6.51536L6.10448 6.08293H4.34467ZM5.20702 3.58857L4.54219 5.51104H5.90627L5.24212 3.58857H5.20702ZM7.88774 7.27513H10.6083V6.69003H8.56703V2.77031H7.88774V7.27513ZM12.0633 7.27513H11.384V2.77031H12.9897C14.0365 2.77031 14.5492 3.3994 14.5492 4.22866C14.5492 5.06011 14.0324 5.6914 12.9876 5.6914H12.0633V7.27513ZM12.0633 3.35321V5.1151H12.9257C13.5898 5.1151 13.8651 4.73897 13.8651 4.22866C13.8651 3.71835 13.5898 3.35321 12.9167 3.35321H12.0633ZM15.3461 7.27513H16.0254V5.31087H18.2711V7.27513H18.9532V2.77031H18.2711V4.72797H16.0254V2.77031H15.3461V7.27513ZM20.7371 6.08293L20.3235 7.27513H19.6022L21.223 2.77031H22.0083L23.6298 7.27513H22.9085L22.497 6.08293H20.7371ZM21.5995 3.58857L20.9354 5.51104H22.2988L21.6346 3.58857H21.5995Z" fill="#445072"/>
</svg>
