<svg width="31" height="42" viewBox="0 0 31 42" fill="none" xmlns="http://www.w3.org/2000/svg">
<path opacity="0.75" d="M7.47747 4.64988L3.82761 9.75969H2.36766L0.907715 15.5995V39.6886H2.36766L5.28755 38.2286L8.93742 34.5788L10.3974 30.9289V26.5491L7.47747 21.4393H9.66739L24.2669 20.7093L28.6467 16.3295V10.4897L24.2669 4.64988L18.4271 2.45996H13.3173L7.47747 4.64988Z" fill="#A2A8B9" stroke="black"/>
<path d="M16.8591 17.4598L15.3196 16.0074L13.7798 17.4598L15.3196 20.0906L16.8591 17.4598Z" fill="#293044" stroke="#293044" stroke-width="0.23"/>
<path d="M11.0602 13.851C11.0602 14.9878 10.1385 15.9096 9.00165 15.9096C7.86452 15.9096 6.94287 14.9879 6.94287 13.851C6.94287 12.7139 7.86452 11.7922 9.00165 11.7922C10.1385 11.7922 11.0602 12.7139 11.0602 13.851Z" fill="#293044" stroke="#293044" stroke-width="0.23"/>
<path d="M23.6993 13.851C23.6993 14.9878 22.7777 15.9096 21.6406 15.9096C20.5038 15.9096 19.582 14.9879 19.582 13.851C19.582 12.7139 20.5037 11.7922 21.6406 11.7922C22.7777 11.7922 23.6993 12.7139 23.6993 13.851Z" fill="#293044" stroke="#293044" stroke-width="0.23"/>
<path d="M0.198195 14.966L0.177734 16.0067V41H12.6188C21.5179 41 29.2677 34.4707 30.5265 25.5256C30.799 23.5896 30.8607 21.6191 30.7137 19.6472L30.719 19.6602L30.5345 16.3579C30.5345 12.3042 28.9581 8.49282 26.0951 5.6208C28.14 5.07579 29.6484 3.21631 29.6484 1H24.8615V4.51153C22.1659 2.33276 18.8342 1.14722 15.3188 1.14722C11.7099 1.14722 8.39218 2.41299 5.78166 4.52082V1H0.994119C0.994119 3.21877 2.50576 5.07946 4.55375 5.62263C2.24942 7.93314 0.684125 10.98 0.239608 14.3741C0.214496 14.57 0.202406 14.7678 0.198376 14.9656L0.198195 14.966ZM28.4628 25.2357C27.3657 33.0348 20.5541 38.9165 12.6194 38.9165H6.0062C9.59059 36.5588 11.8159 32.7695 11.7443 28.6642C11.7031 26.4923 11.0176 24.3745 9.78376 22.5309H22.259C20.1887 22.5309 22.8443 22.4674 23.1016 22.3536C25.4127 21.8752 27.3472 20.4269 28.5045 18.4825C28.7897 20.7127 28.7804 22.9814 28.4629 25.2359L28.4628 25.2357ZM15.3194 3.2321C18.5221 3.2321 21.5476 4.37328 23.9375 6.45872C23.1463 6.20482 22.3047 6.06531 21.4304 6.06531C19.0197 6.06531 16.8341 7.10173 15.3222 8.77329C13.8102 7.10141 11.6243 6.06531 9.21393 6.06531C8.34465 6.06531 7.5076 6.20265 6.72079 6.45376C9.02512 4.4495 12.0317 3.23206 15.3191 3.23206L15.3194 3.2321ZM3.07593 13.9153C3.26008 10.8814 5.72565 8.38432 8.75727 8.16576C11.526 7.96611 13.9395 9.60176 14.9073 11.9805C15.0561 12.3463 15.5869 12.3463 15.7357 11.9805C16.7024 9.60573 19.109 7.97163 21.8725 8.16512C24.8734 8.37531 27.3355 10.8238 27.5609 13.8232C27.8108 17.1482 25.4129 20.021 22.2587 20.4467L8.86766 20.4464V20.429C5.50867 20.2418 2.86641 17.3667 3.07569 13.9153L3.07593 13.9153ZM1.93103 19.2011C2.25809 19.3077 2.58113 19.4289 2.89887 19.5625C5.36875 20.3692 5.98231 21.4816 6.79047 22.1555C6.82736 22.1927 6.86612 22.2284 6.90239 22.2662C8.66109 24.09 9.61441 26.3162 9.65997 28.7021C9.73592 33.0705 6.59859 37.0266 1.93064 38.5924L1.93103 19.2011Z" fill="#293044" stroke="#293044" stroke-width="0.23"/>
</svg>
